<?xml version="1.0" standalone="no"?>
<!DOCTYPE svg PUBLIC "-//W3C//DTD SVG 20010904//EN"
 "http://www.w3.org/TR/2001/REC-SVG-20010904/DTD/svg10.dtd">
<svg version="1.0" xmlns="http://www.w3.org/2000/svg"
 width="700.000000pt" height="700.000000pt" viewBox="0 0 700.000000 700.000000"
 preserveAspectRatio="xMidYMid meet">
<metadata>
Created by potrace 1.11, written by Peter Selinger 2001-2013
</metadata>
<g transform="translate(0.000000,700.000000) scale(0.100000,-0.100000)"
fill="#000000" stroke="none">
<path d="M296 6983 c-135 -41 -225 -147 -245 -290 -6 -42 -9 -1265 -8 -3243
l2 -3175 27 -58 c47 -101 108 -158 208 -196 l55 -21 3205 1 c3520 0 3248 -5
3346 61 27 18 63 52 81 76 l33 44 0 3317 0 3318 -29 40 c-36 50 -81 85 -147
115 l-49 23 -3215 2 c-2814 1 -3221 -1 -3264 -14z m2522 -1342 c9 -1 12 -65
12 -286 l0 -285 -358 0 -358 0 1 -1820 0 -1820 -322 0 -323 0 0 1820 0 1820
-390 0 c-305 0 -390 3 -391 13 -1 6 -2 134 -3 282 -1 253 0 270 17 275 14 4
2049 4 2115 1z m776 -2 c1 -2 44 -105 95 -229 51 -124 99 -238 107 -255 7 -16
56 -136 109 -265 54 -129 103 -248 110 -265 8 -16 46 -109 85 -205 40 -96 79
-190 87 -208 8 -18 29 -70 48 -115 18 -45 123 -299 234 -565 111 -266 201
-487 201 -493 0 -5 3 -9 8 -9 4 0 7 585 7 1301 0 758 4 1303 9 1306 13 9 545
7 554 -1 12 -13 10 -4276 -2 -4277 -55 -4 -410 -3 -417 1 -5 3 -55 132 -113
285 -141 380 -236 633 -451 1210 -412 1101 -495 1327 -495 1338 0 9 -2 9 -8 0
-4 -6 -7 -630 -6 -1387 l1 -1376 -322 0 -321 0 2 2108 c0 1159 2 2107 3 2107
190 0 473 -4 475 -6z m2709 2 c5 -1 6 -72 3 -158 -4 -87 -8 -223 -11 -303 -2
-80 -7 -221 -10 -315 -3 -93 -8 -242 -10 -330 -3 -88 -7 -221 -10 -295 -2 -74
-7 -225 -10 -335 -4 -110 -8 -249 -10 -310 -2 -60 -7 -204 -10 -320 -3 -115
-8 -255 -10 -310 -2 -55 -7 -201 -11 -325 -8 -265 -11 -343 -13 -350 -1 -7
-328 -6 -335 1 -4 4 -7 54 -21 364 -3 66 -8 156 -10 200 -2 44 -7 145 -10 225
-3 80 -8 181 -10 225 -2 44 -7 139 -10 210 -3 72 -8 175 -10 230 -6 118 -13
275 -20 435 -3 63 -8 162 -10 220 -3 58 -7 157 -10 220 -3 63 -7 156 -10 205
-2 50 -7 151 -10 225 -3 74 -8 169 -10 210 -2 41 -7 143 -10 227 -6 139 -5
152 11 155 14 2 545 1 577 -1z m26 -3926 l-1 -285 -322 0 -321 0 1 283 c1 155
2 283 3 285 0 1 145 2 321 2 l319 0 0 -285z"/>
</g>
</svg>
