<?xml version="1.0" encoding="utf-8"?>
<!-- Generator: Adobe Illustrator 15.0.0, SVG Export Plug-In . SVG Version: 6.00 Build 0)  -->
<!DOCTYPE svg [
	<!ENTITY ns_flows "http://ns.adobe.com/Flows/1.0/">
	<!ENTITY ns_extend "http://ns.adobe.com/Extensibility/1.0/">
	<!ENTITY ns_ai "http://ns.adobe.com/AdobeIllustrator/10.0/">
	<!ENTITY ns_graphs "http://ns.adobe.com/Graphs/1.0/">
]>
<svg version="1.2" baseProfile="tiny" id="Layer_1" xmlns:x="&ns_extend;" xmlns:i="&ns_ai;" xmlns:graph="&ns_graphs;"
	 xmlns="http://www.w3.org/2000/svg" xmlns:xlink="http://www.w3.org/1999/xlink" xmlns:a="http://ns.adobe.com/AdobeSVGViewerExtensions/3.0/"
	 x="0px" y="0px" width="83.6px" height="79.2px" viewBox="0 0 83.6 79.2" xml:space="preserve">
<path fill-rule="evenodd" fill="none" stroke="#FFFFFF" stroke-width="0.5" d="M21.6,0.5c1.4,0,2.7,0,4.1,0c3.9,0.8,8.9,0.4,11,2.9
	C36,4.5,36,3.7,36.3,5.1c-3.8,1.1-11.6-1.5-14.6,1.4c0.4,3.5,3,3.1,2.9,6.2c0.7,0,1.5,1.4,2.4,1.9C34.6,25.8,45.6,33.8,55,43.2
	c9.4,9.4,18.3,19.5,28.1,28.6c0,0.2,0,0.5,0,0.7c-1.9,2.4-3.8,4.7-6.5,6.2c-0.1,0-0.2,0-0.2,0c-19.8-19.6-37.5-41.2-57.1-61
	c-2.3,0.2-2.9-2.4-5-2.6c-5-0.6-4.4,5.8-8.2,7.4c-2.3-1.1-3.8-3-5.5-4.8c0-0.2,0-0.5,0-0.7c1.3-2.4,4.9-2.2,6.5-4.3
	C8.4,10.8,8.1,8.4,9.4,7C12.3,3.9,16.6,1.7,21.6,0.5z"/>
</svg>
