<?xml version="1.0" encoding="utf-8"?>
<!-- Generator: Adobe Illustrator 15.0.0, SVG Export Plug-In . SVG Version: 6.00 Build 0)  -->
<!DOCTYPE svg [
	<!ENTITY ns_flows "http://ns.adobe.com/Flows/1.0/">
	<!ENTITY ns_extend "http://ns.adobe.com/Extensibility/1.0/">
	<!ENTITY ns_ai "http://ns.adobe.com/AdobeIllustrator/10.0/">
	<!ENTITY ns_graphs "http://ns.adobe.com/Graphs/1.0/">
]>
<svg version="1.2" baseProfile="tiny"
	 id="Layer_0_xA0_Image_1_" xmlns:x="&ns_extend;" xmlns:i="&ns_ai;" xmlns:graph="&ns_graphs;"
	 xmlns="http://www.w3.org/2000/svg" xmlns:xlink="http://www.w3.org/1999/xlink" xmlns:a="http://ns.adobe.com/AdobeSVGViewerExtensions/3.0/"
	 x="0px" y="0px" width="1282.2px" height="618.5px" viewBox="0 0 1282.2 618.5" xml:space="preserve">
<g>
	<path fill-rule="evenodd" d="M571.2,31.3c0.6,1,2.3,1,2,3c-2.6-0.3-4.3,0.4-4,3c-2.5-0.1-4.8-0.2-6,1c-1.8,4.8,1.6,5.1,2,10
		c-3.1-0.1-2.9,3.1-7,2c-1.3,0.5-2.8,1.5-4,2c-0.4,0.2-1.8-0.3-2,0c-0.1,0.1,0.1,0.9,0,1c-0.4,0.2-1.8-0.3-2,0
		c-1.1,1.3-5.9,1.3-10,2c-1.5,0.3-1.8,0.9-3,1c-2.9,0.3-6.2-0.8-9,0c-4.1,1.1-5.4,3.7-8,6c-0.3,0.3-1.7-0.3-2,0
		c-0.9,1.1-1.4,0.5-3,1c-0.3,0.1-3.6,1.8-5,2c-4,0.6-8.9-1.1-11,2c-1.6,0.2,0,1,0,1c-0.1,1.2-2.7,1.7-2,5c-3,0-3.9,2.1-6,3
		c2,1.8,0.3,2.9-1,5c-0.6,1-2.8,4-4,5c-1.7-1.7-7.3,0.6-7-3c-0.8-0.5-3.3,0.7-4,0c-0.1-0.1,0.1-1,0-1c-1.9-0.1-3,1.2-4,1
		c-2.2-0.5-1.7-1.1-3-2c-0.6-0.4-2.4-0.5-3-1c-0.6-0.6-0.4-2.4-1-3c-0.3-0.3-1.7,0.3-2,0c-0.3-0.3,0.3-1.7,0-2c-1.5-1.4-3.7-1.7-5-3
		c-0.3-0.3,0.3-1.7,0-2c-0.3-0.3-1.8,0.3-2,0c-0.4-0.5,0.1-4.8-3-5c-0.1,0-1.9-1.9-2-2c-0.7-1.3,1-1.7,1-2c-0.1-1.1-2.1-0.7-2-2
		c0-3,2.6-3.4,3-6c3.6-0.8,6,2.9,7-1c0-3.5-2.9-0.1-5,0c-3.4,0.2-6-0.5-9-1c0.6-2.4,1.3-4.7,4-5c-0.4-2.2-5.3,0-6-2
		c-0.2-1.8,1-5-2-4c1.9-1.9,0.1-2.5,0-5c-0.8-0.5-3.4,0.7-4,0c-0.6-0.6,1.9-1.2,2-1c-0.8-1.7-1.1-1.3-3-2c-0.8-0.3-2.8-0.4-4-1
		c-0.2-0.1,0.2-1.9,0-2c-0.8-0.3-3.4,0.6-4,0c-1-1-1.7-0.5-5-1c-2-0.3-5.9-1.3-10-1c-2.2,0.1-2,1.7-5,1c-2.1-0.5-1.7-0.3-6,0
		c-1.9,0.1-4.3,0.3-6,0c-0.1,0-0.2-1-1-1c-3.6-0.2-2-2.7-7-2c-0.5-2.1,1.4-1.9,3-2c0.4-0.8-3.5-1.6-4-1c-0.9,1,0.2,2.2-2,2
		c-0.8-0.1-1-1.1-2-1c0.2-1.2,1.8-0.8,3-1c0.3-2.7-5.6,0.9-4-3c8.1-2.2,18.4-2.2,27-4c-0.4-2.2-4.9-0.4-7-1c-1.1-3.6,3.1-2.4,5-3
		c3.7-1.2,8.3-2.7,15-2c0.9-0.7,1.5-1.8,2-3c8.6,0.5,17.9-2.2,25-1c0.4,0.1,1.8-0.2,2,0c0.1,0.1-0.1,2,0,2c0.7,0,1.2-1.7,2-2
		c2.6-1,3.5,0.4,5,1c1-0.5,0.8-1.6,2-2c2.8-0.9,7.4,1,10,1c1.7-0.9,5.4,0,5-3c2.9-0.3,5.7,0.3,9,0c1.9-0.2,2.8-1,4-1
		c1.8,0,3.5,1,5,1c2.7-0.1,3.5-1.8,7-1c2.1,0.5,3.3,0.8,8,0c5.2-0.8,17-1.8,26-1c1.6,0.1,1.7,0.9,3,1c3.5,0.2,7.4-0.4,11,0
		c2.5,0.3,4.5,1.6,7,2c3.3,0.5,7-1,10,1c-0.2,1.2-1.8,0.8-3,1c0.2,1.2,1.8,0.8,3,1c1.1,0.2,0.7,2,2,2c2.9,0.3,3.1-2.3,6-2
		c2.2-0.4,1.5,1.7,3,2c2.5,0.4,4.1-0.8,6-1c6.5-0.7,13.9-0.1,19,1c-0.2,1.4-3,0.3-3,2c-3.8,0-8.9,0.1-12,2c-1.2,0.7-2.2,0.1-5,1
		c-0.9,0.3-1.6,1.9-2,2c-1.5,0.4-3.5-0.5-5,0c-1.4,0.5-0.1,1.1,0,1c-2.5,2.2-6.9,1.1-8,4c-0.2,2.2,3.5,0.5,5,1c1-0.6,1-2.3,3-2
		c-0.3,2.3-2.5,4.7,2,4c0.4,2.4-1.8,2.2-1,5c-2.1,0.5-1.9-1.4-2-3c-2.3,0-4.7,0-7,0c2,2,6.3,1.7,7,5c3.8-0.5,4.7-1.4,7,1
		C578.6,33.8,573.2,31.7,571.2,31.3z M557.2,6.3c-1.2,0.2-2.8-0.2-3,1C555.4,7.1,557,7.5,557.2,6.3z M573.2,13.3c-0.8,0.2-2,0-2,1
		C572,14.1,573.2,14.3,573.2,13.3z M455.2,45.3c-1.7,0.1-3.1-0.2-4-1C449.6,47.1,455.5,47.1,455.2,45.3z M556.2,47.3
		c-1.9-0.4-1.8-2.9-5-2C550.5,47.8,555.5,49.5,556.2,47.3z"/>
	<path fill-rule="evenodd" d="M861.2,8.3c0.4-2.2,4.9-0.4,7-1C867.8,9.5,863.3,7.7,861.2,8.3z"/>
	<path fill-rule="evenodd" d="M997.2,18.3c-13.2,0.8-23-1.7-33-4c0.6-1.8,4.5-2.7,7-4c1.8-0.9,4.1,0,8-1c1.7-0.4,2.1-0.9,6,0
		c0.2,0,0.1,1,1,1c2,0.1,3.7-0.6,3,3c3.1,0.2,7.3-0.7,9,1C996.3,16.2,996.4,15.1,997.2,18.3z"/>
	<path fill-rule="evenodd" d="M825.2,12.3c-1.7,0-3.3,0-5,0c-0.6,1.8,3.7,0.3,4,1c0.5,1.1-6.5,1.9-8,0c-5.2,2.7-8.9-1.7-15-1
		c-1.8-0.8,0.6-1.1,2-1c2-0.2,5.7-2.1,10-1c-0.2,0,5.2,1.8,7,0c0,0,0-1,0-1C822.6,9.4,825.7,9.6,825.2,12.3z"/>
	<path fill-rule="evenodd" d="M960.2,10.3c0.4-2.2,4.9-0.4,7-1C966.8,11.5,962.3,9.7,960.2,10.3z"/>
	<path fill-rule="evenodd" d="M921.2,11.3c0.2-1.2,1.8-0.8,3-1c1,0,2,0,3,0C927.1,12.5,923,10.7,921.2,11.3z"/>
	<path fill-rule="evenodd" d="M761.2,12.3c-1.7,1.9-5.2,2.2-9,2C753.9,12.4,757.4,12.1,761.2,12.3z"/>
	<path fill-rule="evenodd" d="M285.2,14.3c-0.2-1.6,6.5-2,5,1C287.4,16.1,287.6,13.9,285.2,14.3z"/>
	<path fill-rule="evenodd" d="M911.2,14.3c3.1-0.7,3.6,1,6,1C917.2,16.8,909.8,17.5,911.2,14.3z"/>
	<path fill-rule="evenodd" d="M281.2,21.3c-1.7-3-4,0-6,0c-2.3,0-4.9-1.9-8-1c0.3-2-0.2-3.1-2-3c0.6-0.9,3.8-1.9,6-2
		c2.2-0.1,2.5,0.7,4,1c3.2,0.6,8.1,0.2,10,1c0.1,0.1-0.1,1,0,1c1.9,0.8,4.7,1.5,4,4c-6-0.2-6.3-0.5-12,0
		C274,21.2,279.9,21.2,281.2,21.3z"/>
	<path fill-rule="evenodd" d="M1016.2,17.3c-0.6,5.2-8.2,2.6-13,3c-4,0.3-6.1,1.8-9,1c0.2-1.2,1.2-1.4,2-2c1.1-0.9,4.4-3.6,7-4
		C1007.5,14.7,1011.3,17.9,1016.2,17.3z"/>
	<path fill-rule="evenodd" d="M253.2,18.3c1.1,3.7-3.8,1.6-3,5c-1.8,0.5-3.6-0.6-6,0c-1.9,0.5-0.8,0.9-4,0c-0.3-0.1-1.8,0.2-2,0
		c-0.6-0.8-2.2-1.4-6-1c-0.4-1.7,0.8-1.9,2-2c1.4-0.1,2.8-0.2,3,1C240.2,17.1,247.9,17.7,253.2,18.3z"/>
	<path fill-rule="evenodd" d="M737.2,18.3C734.8,21.5,733.2,14.8,737.2,18.3L737.2,18.3z"/>
	<path fill-rule="evenodd" d="M740.2,18.3c0.4-2.2,4.9-0.4,7-1C746.8,19.5,742.3,17.7,740.2,18.3z"/>
	<path fill-rule="evenodd" d="M1018.2,20.3c1.2-3,3.4,1.1,6,0C1023.8,22.5,1018.9,21.1,1018.2,20.3z"/>
	<path fill-rule="evenodd" d="M263.2,22.3c1.2-2.1,7.3-0.7,7,2C266.5,25,264.9,23.6,263.2,22.3z"/>
	<path fill-rule="evenodd" d="M576.2,22.3c0.2-1.2,1.8-0.8,3-1C579,22.5,577.4,22.1,576.2,22.3z"/>
	<path fill-rule="evenodd" d="M957.2,24.3c0.2-1.2,1.8-0.8,3-1C960,24.5,958.4,24.1,957.2,24.3z"/>
	<path fill-rule="evenodd" d="M985.2,23.3c-0.1,2.2-2.5,2.1-5,2C980.3,23.1,982.7,23.2,985.2,23.3z"/>
	<path fill-rule="evenodd" d="M887.2,25.3c-0.2,2.3-1.4,1.4-4,2c-2,0.5-9.3,1.4-14,2c-2.5,0.3-4.8,0.5-7,1c-0.6,0.1-2.9,0.5-4,1
		c-0.5,0.2-1.6,1.8-2,2c-2.1,0.8-3.2-0.2-5,1c-0.9,0.6-3,0.8-5,2c-0.7,0.4-1.4,1.7-2,2c-1.5,0.9-4.1,1.1-5,3c0.2,3.8,4.1,3.9,7,5
		c0.2,1.6-2.3,0.3-3,1c-1.5,1.5-1.2,0-3,0c-2.5,0-5.7,0.5-8,0c-4-0.8-6.7-3.2-9-4c0.2-1.8,1.7-2.3,4-2c1.7-1.1-0.6-1.3,1-3
		c0.8-0.8,3.9,0.1,4-2c0.1-1.6,2.2-0.6,4-2c1.5-0.9,3.2-1.5,3-4c2.6,0.1,5.1,0.2,7-1c1.4-0.9,1.8-0.5,5-1c0.3,0,1.8,0.2,2,0
		c1-1.3,2-0.5,4-1c0.8-0.2,1-0.9,2-1c3.7-0.4,7.4,0.4,11,0C876,25.7,881.7,22.2,887.2,25.3z"/>
	<path fill-rule="evenodd" d="M273.2,29.3c-1.6,0.4,0.9,1.8-1,2c-0.3,1.4-2.5,0.8-4,1c-0.2-2.2,0.8-3.2,3-3c-0.4-1.6-3.1-0.9-2-4
		c8,2.2,17.8-2,26,1c0.8,3.5-1.1,4.2-2,6c-1.7-1.1-7.8,1.5-9,0c-0.1-0.1,0.1-0.9,0-1c-0.4-0.2-1.8,0.3-2,0c-0.1-0.1,0.1-1,0-1
		C279.5,29.6,275.9,30.9,273.2,29.3z"/>
	<path fill-rule="evenodd" d="M1170.2,25.3c0.7,0,1.3,0,2,0C1172.4,28.1,1164.7,25,1170.2,25.3z"/>
	<path fill-rule="evenodd" d="M1183.2,28.3c0-1,1.2-0.8,2-1C1185.2,28.3,1184,28.1,1183.2,28.3z"/>
	<path fill-rule="evenodd" d="M1126.2,29.3c-0.3,1.4-2.5,0.8-4,1C1122.5,28,1124.9,28,1126.2,29.3z"/>
	<path fill-rule="evenodd" d="M930.2,29.3c1.3,0,2.7,0,4,0c0,0.7,0,1.3,0,2c-1.3,0-2.7,0-4,0C930.2,30.6,930.2,30,930.2,29.3z"/>
	<path fill-rule="evenodd" d="M1178.2,30.3c-3.4,5.4-12.2,1.7-18,1C1163.8,26.3,1171.9,31.6,1178.2,30.3z"/>
	<path fill-rule="evenodd" d="M296.2,32.3c-0.4,0.9-0.9,1.8-2,2c1,2.2,2.2-0.3,3,3c0.4,1.5,2,1.1,2,4c-1,0-0.8,1.2-1,2
		c-4.8,1.5-11,3.3-14-1c-3.3-1-8.6-0.1-9-4c3.6,0.6,5.6-0.4,6-3c5,0.7,7.7-0.9,12-1C292.7,32.2,294.6,32.4,296.2,32.3z M283.2,38.3
		c-0.8,0.2-2,0-2,1C282,39.1,283.2,39.3,283.2,38.3z"/>
	<path fill-rule="evenodd" d="M707.2,34.3c0.2-1.2,1.8-0.8,3-1C710,34.5,708.4,34.1,707.2,34.3z"/>
	<path fill-rule="evenodd" d="M941.2,34.3c0-1,1.2-0.8,2-1C943.2,34.3,942,34.1,941.2,34.3z"/>
	<path fill-rule="evenodd" d="M1122.2,35.3c-0.3-1.8,5.6-1.8,4,1C1124.4,36.4,1124.1,35.1,1122.2,35.3z"/>
	<path fill-rule="evenodd" d="M911.2,36.3c1,0,2,0,3,0C913.6,39.2,903.8,36,911.2,36.3z"/>
	<path fill-rule="evenodd" d="M10.2,46.3c-3.4-0.3-8.1,0.8-10-1C0.8,42,10.7,42.3,10.2,46.3z"/>
	<path fill-rule="evenodd" d="M1282.2,44.3c-0.6,2.4-3.8,2.2-6,3C1275.3,43.3,1280.7,42.9,1282.2,44.3z"/>
	<path fill-rule="evenodd" d="M613.2,44.3c0.4,3-3.3,2.1-5,3C607.8,44.3,611.5,45.2,613.2,44.3z"/>
	<path fill-rule="evenodd" d="M1211.2,45.3c0.7,0,1.3,0,2,0c0,0.7,0,1.3,0,2c-0.7,0-1.3,0-2,0C1211.2,46.6,1211.2,46,1211.2,45.3z"
		/>
	<path fill-rule="evenodd" d="M283.2,46.3c0.7,0,1.3,0,2,0c0,0.7,0,1.3,0,2c-0.7,0-1.3,0-2,0C283.2,47.6,283.2,47,283.2,46.3z"/>
	<path fill-rule="evenodd" d="M820.2,51.3c0.1,3.7-4.4,2.9-8,3C811.8,48.8,816.7,50.8,820.2,51.3z"/>
	<path fill-rule="evenodd" d="M3.2,63.3c-1.5,0.5-0.1,1,1,1c0.3,1.6-0.9,1.7-1,3c-3.5,0.9-1.9-1.6-2-4c0-1.2-2.7-8.2,0-11
		c6.2,2.4,14.7,2.7,19,7c8.3-1.3,11.8,2.2,18,3c1.1,2.7-2.3,1.2-3,2c-0.2,0.3-2.6,2.8-5,2c-2.1-0.2-1.3,2.5-1,2
		c-0.5,0.9-1.8,0.8-2,2c-2.2,0.7-4.1-0.5-6-1c-1.5-0.4-4-0.5-5-1c-0.6-0.3-0.5-1.6-1-2c-0.7-0.5-2.2,0.3-2-1c-2.3,0.3-3.8,1.6-7,1
		C5.6,64.9,4.6,63.9,3.2,63.3z M22.2,60.3c-0.8,0.2-2,0-2,1C21,61.1,22.2,61.3,22.2,60.3z"/>
	<path fill-rule="evenodd" d="M286.2,52.3c-0.4,1.2-1.3,2.1-3,2C282.7,52.2,284.6,52.4,286.2,52.3z"/>
	<path fill-rule="evenodd" d="M359.2,56.3c0-1,1.2-0.8,2-1C361.2,56.3,360,56.1,359.2,56.3z"/>
	<path fill-rule="evenodd" d="M590.2,61.3c-1.1,3.1-1,3.2,3,3c0,1.8-0.2,3.1-1,4c-0.3,0.3-1.7-0.3-2,0c-1.6,1.9-0.9,1.3-5,2
		c-1.3,0.2-4.2,1.3-6,2c-2.4,1-7.6,1.3-11,0c-0.4-0.1-1.8,0.3-2,0c-0.1-0.1,0.1-1,0-1c-1.5-0.3-1.4,0.9-2,1c-0.8,0.1-2.3-1.7-4-1
		c-0.5-1.1,1.9-0.6,2-1c0.9-3.3-6.1-1.4-7-2c-1-0.7,3-1.1,3-1c0.5-1-3.1-1.1-4-1c0-3.3,4-2.6,5-5c3.4,0,5.3,1.4,7,3
		c2.3-0.7,5.1-0.9,7-2c1-1,5.7,1,5,1c2.2-0.1,3.4-1.9,5-2C585.5,61.1,587.6,63.1,590.2,61.3z M561.2,65.3c-0.8,0.2-2,0-2,1
		C560,66.1,561.2,66.3,561.2,65.3z"/>
	<path fill-rule="evenodd" d="M767.2,67.3c0-1,1.2-0.8,2-1C769.2,67.3,768,67.1,767.2,67.3z"/>
	<path fill-rule="evenodd" d="M30.2,71.3c5.1-0.8,7.3,1.4,12,1c1.6,3.6-3.4,0.6-3,3c-1.8,0.2-2.9-1.3-5-2
		C33.1,72.9,29.1,74.5,30.2,71.3z"/>
	<path fill-rule="evenodd" d="M350.2,74.3c0.1,3.7-4.4,2.9-8,3C341.5,73,346.8,74.6,350.2,74.3z"/>
	<path fill-rule="evenodd" d="M355.2,76.3c1.7,0,3.3,0,5,0C361.6,79.9,353.5,81.1,355.2,76.3z"/>
	<path fill-rule="evenodd" d="M619.2,76.3c-0.8,0.9-1.1,2.3-1,4c-3.2,1.2-0.8-3.2-4-2C614.3,76.1,616.7,76.2,619.2,76.3z"/>
	<path fill-rule="evenodd" d="M412.2,79.3c0.3,1.8-5.6,1.8-4-1C410.2,76.3,410.2,78.7,412.2,79.3z"/>
	<path fill-rule="evenodd" d="M639.2,81.3c0.7,3.1-2.7,1.9-2,5c-1.3-0.7-1.9-2.1-2-4C637,82.4,637.3,81.1,639.2,81.3z"/>
	<path fill-rule="evenodd" d="M25.2,83.3c0.7-3,2.1,1,4,0C29,85.8,25.8,83.6,25.2,83.3z"/>
	<path fill-rule="evenodd" d="M398.2,82.3c0.7,0,1.3,0,2,0c0.5,2.1-1.4,1.9-3,2C397.4,83.5,398.2,83.3,398.2,82.3z"/>
	<path fill-rule="evenodd" d="M45.2,83.3c2.9,0.1,6.5-0.5,8,1C52.1,87.1,45.5,86.9,45.2,83.3z"/>
	<path fill-rule="evenodd" d="M710.2,83.3c2.3-0.3,3.8,0.2,5,1C715.4,85.9,708.7,86.3,710.2,83.3z"/>
	<path fill-rule="evenodd" d="M355.2,86.3c0-1,1.2-0.8,2-1C357.2,86.3,356,86.1,355.2,86.3z"/>
	<path fill-rule="evenodd" d="M620.2,120.3c0.6-1.1,2-1.3,3-2c1-0.7,1.1-2.3,3-2c-0.3-1.4-2.5-0.8-4-1c-0.3-2.6,1.4-3.3,4-3
		c-0.4-1.6-3.1-0.9-2-4c2,0,4,0,6,0c0.2-2.5-1.5-3.1-3-4c-1,0.6-1,2.3-3,2c-0.7-5.3-1.8,1.7-5,0c2,1.9,0.5,4.7,0,7
		c-5.7-0.7-9.8,4.4-15,1c-0.2-2.5,1.5-3.1,3-4c-1.1-1.5-3.3-2.1-3-5c2.3-0.3,4.1-2,6,0c-2.6-2.6,1.6-0.8,1-4c2.3,0,4.7,0,7,0
		c-1.1-1.2-0.9-2.1,1-2c-2.2-1.7-1-7.3-4-3c-2.7-2.2,0.2-7.1,4-6c0,1,0,2,0,3c1.5-0.9,3.2-1.5,3-4c5.7,1.4,6-2.6,11-2
		c-0.9,1.8-2.2,3.1-4,4c0.1,2.2,4.2,0.4,6,1c0.5,3.1-1.2,4.1-3,5c0.1,2,3.1,2.2,4,3c0.6,0.6,0.4,2.3,1,3c1.2,1.4,3.1,1,4,2
		c1.1,1.2,1.1,2.8,2,4c2.8-0.8,2.6,1.4,5,1c1.5,3.1-5.7,4.8-1,5c0.4,1.9-2.3,1.2-3,2c-1,1.2-1.7,0.5-5,1c-0.3,0-1.8-0.2-2,0
		c-1.1,1.3-0.4-0.2-2,0c-1,0.2-3.2,2.1-5,0c-1,0-0.8,1.2-1,2C624.5,118.6,624.3,122,620.2,120.3z M622.2,102.3
		C623.4,102.4,622.8,100.8,622.2,102.3L622.2,102.3z"/>
	<path fill-rule="evenodd" d="M1227.2,87.3c0.1,2.8-2.4,2.9-5,3C1223.1,88.6,1224.1,86.8,1227.2,87.3z"/>
	<path fill-rule="evenodd" d="M90.2,93.3c5.1,0.4,5.5-3.9,10-4c3.1,5.8-5.6,7.5-10,9C92.1,96.4,90.3,95.8,90.2,93.3z"/>
	<path fill-rule="evenodd" d="M710.2,91.3c-0.4,2.9-2.1,4.6-5,5C704.6,92.4,707.4,91.9,710.2,91.3z"/>
	<path fill-rule="evenodd" d="M35.2,95.3c0-1,1.2-0.8,2-1C37.2,95.3,36,95.1,35.2,95.3z"/>
	<path fill-rule="evenodd" d="M356.2,95.3c2.5,0.9,5.8,0.9,6,4c-2.4,0-2.9,1.7-6,1C356.2,98.6,356.2,97,356.2,95.3z"/>
	<path fill-rule="evenodd" d="M37.2,97.3c0-1,1.2-0.8,2-1C39.2,97.3,38,97.1,37.2,97.3z"/>
	<path fill-rule="evenodd" d="M693.2,101.3c0.7,0,1.3,0,2,0c0,0.7,0,1.3,0,2c-0.7,0-1.3,0-2,0C693.2,102.6,693.2,102,693.2,101.3z"
		/>
	<path fill-rule="evenodd" d="M1230.2,102.3c0.6-2.4,5.1-0.5,4,2C1231.5,105,1232.2,102.3,1230.2,102.3z"/>
	<path fill-rule="evenodd" d="M1236.2,102.3c0.9,1.1,3.7,0.3,3,3C1238.3,104.2,1235.5,105,1236.2,102.3z"/>
	<path fill-rule="evenodd" d="M53.2,105.3c-3,3.7-9.4,4-14,6c0.5-1.2,1-2.2,2-3c1.4-1.1,4.1-0.8,6-2c0.1-0.1,1.7-1.3,2-1
		C50.2,106.3,49.5,105.5,53.2,105.3z"/>
	<path fill-rule="evenodd" d="M167.2,105.3c2,0,4,0,6,0c-1.4,5.4,2.7,5.3,3,9c-2.6,0.9-2.7-2.9-5-3
		C169.6,111.2,168,107.8,167.2,105.3z"/>
	<path fill-rule="evenodd" d="M37.2,110.3c0.1-1.9,1.6,0.4,1,1C37.2,112.3,35.6,109.8,37.2,110.3z"/>
	<path fill-rule="evenodd" d="M1254.2,110.3c0.3-1.4,2.5-0.8,4-1c-0.2,1.2,0.2,1.8,1,2C1258.3,114,1255.7,110.3,1254.2,110.3z"/>
	<path fill-rule="evenodd" d="M33.2,111.3c0.2-1.3,2-1,2,0C34.3,111.9,33.4,112.5,33.2,111.3z"/>
	<path fill-rule="evenodd" d="M26.2,112.3c-1.6,2.1-7,0.3-9,2C18.7,110.7,22.4,111.5,26.2,112.3z"/>
	<path fill-rule="evenodd" d="M27.2,111.3c0.7,0,1.3,0,2,0c0,0.7,0,1.3,0,2c-0.7,0-1.3,0-2,0C27.2,112.6,27.2,112,27.2,111.3z"/>
	<path fill-rule="evenodd" d="M16.2,112.3c0,4-5.2,2.8-9,3C7.2,111.3,14.4,114.5,16.2,112.3z"/>
	<path fill-rule="evenodd" d="M1272.2,113.3c0.1-1.9,1.6,0.4,1,1C1272.2,115.3,1270.6,112.8,1272.2,113.3z"/>
	<path fill-rule="evenodd" d="M1191.2,122.3c0.1-1.9,1.6,0.4,1,1C1191.2,124.3,1189.6,121.8,1191.2,122.3z"/>
	<path fill-rule="evenodd" d="M1188.2,125.3c0-1,1.2-0.8,2-1C1190.2,125.3,1189,125.1,1188.2,125.3z"/>
	<path fill-rule="evenodd" d="M423.2,128.3c-1.1,0.9-0.3,3.7-3,3C420,129.1,421,128.1,423.2,128.3z"/>
	<path fill-rule="evenodd" d="M1184.2,129.3c0-1,1.2-0.8,2-1C1186.2,129.3,1185,129.1,1184.2,129.3z"/>
	<path fill-rule="evenodd" d="M1183.2,130.3c-0.4,1.2-1.3,2.1-3,2C1180.6,131.1,1181.5,130.2,1183.2,130.3z"/>
	<path fill-rule="evenodd" d="M1177.2,133.3c-0.9,1.8-1.9,3.5-5,3C1172.9,134.3,1174.9,133.6,1177.2,133.3z"/>
	<path fill-rule="evenodd" d="M427.2,142.3c0-1,1.2-0.8,2-1C429.2,142.3,428,142.1,427.2,142.3z"/>
	<path fill-rule="evenodd" d="M674.2,145.3c2.1,1.1,0.7,3.1,1,5c0.4,2.7,1.7,5.6,1,9c-2.4,0-2.9,1.7-6,1c0.7-3.4-1-7.6,0-9
		c0,0,2,1.2,2,1c0.3-2.3-1.1-2.8-1-6C672.6,146.4,674,146.5,674.2,145.3z"/>
	<path fill-rule="evenodd" d="M654.2,156.3c0.3,1.6-0.9,1.7-1,3c-1.8,0.1-2.1-1.2-4-1C649,155.3,652.8,154.8,654.2,156.3z"/>
	<path fill-rule="evenodd" d="M654.2,156.3c-0.4-1.9,4.6-1.5,3,1c-0.7,0-1.3,0-2,0C655.4,156.5,654.8,156.4,654.2,156.3z"/>
	<path fill-rule="evenodd" d="M529.2,158.3c0-1,1.2-0.8,2-1C531.2,158.3,530,158.1,529.2,158.3z"/>
	<path fill-rule="evenodd" d="M646.2,158.3C649.9,161.3,643.2,161.7,646.2,158.3L646.2,158.3z"/>
	<path fill-rule="evenodd" d="M538.2,161.3c0.4-2.2,4.9-0.4,7-1C543.8,161.8,540,163.1,538.2,161.3z"/>
	<path fill-rule="evenodd" d="M552.2,163.3C551,166.3,546.9,162.2,552.2,163.3L552.2,163.3z"/>
	<path fill-rule="evenodd" d="M735.2,164.3c0,1-1.2,0.8-2,1C733.2,164.3,734.4,164.5,735.2,164.3z"/>
	<path fill-rule="evenodd" d="M1114.2,168.3c0.7,0,1.3,0,2,0c0,0.7,0,1.3,0,2c-0.7,0-1.3,0-2,0
		C1114.2,169.6,1114.2,169,1114.2,168.3z"/>
	<path fill-rule="evenodd" d="M737.2,171.3c0.2-1.6,1.1,0,1,1C738,173.9,737,172.4,737.2,171.3z"/>
	<path fill-rule="evenodd" d="M724.2,171.3c0.7,0,1.3,0,2,0c1.8,2.2,9-1,9,3c-2.3,0-4.7,0-7,0C728.5,171.7,722.6,175.2,724.2,171.3z
		"/>
	<path fill-rule="evenodd" d="M764.2,171.3c-1.4,3.9-5.9,6-9,3C756.2,171.3,761.2,172.3,764.2,171.3z"/>
	<path fill-rule="evenodd" d="M1093.2,178.3c1,3-2.2,1.8-4,2C1089.4,178.5,1090.9,178,1093.2,178.3z"/>
	<path fill-rule="evenodd" d="M215.2,180.3c0-1,1.2-0.8,2-1C217.2,180.3,216,180.1,215.2,180.3z"/>
	<path fill-rule="evenodd" d="M1137.2,181.3c0-1,1.2-0.8,2-1C1139.2,181.3,1138,181.1,1137.2,181.3z"/>
	<path fill-rule="evenodd" d="M579.2,182.3c0.2-1.2,1.8-0.8,3-1C582,182.5,580.4,182.1,579.2,182.3z"/>
	<path fill-rule="evenodd" d="M410.2,183.3c0.2-1.3,2-1,2,0C411.3,183.9,410.4,184.5,410.2,183.3z"/>
	<path fill-rule="evenodd" d="M220.2,195.3c0.2-1.1,1-0.6,1,0C221,196.4,220.2,195.9,220.2,195.3z"/>
	<path fill-rule="evenodd" d="M594.2,194.3c-1.9,1.5-1.5,5.2-5,5C590,196.8,590.5,193.9,594.2,194.3z"/>
	<path fill-rule="evenodd" d="M577.2,196.3c0.2-1.1,1-0.6,1,0C578,197.4,577.2,196.9,577.2,196.3z"/>
	<path fill-rule="evenodd" d="M584.2,196.3c-0.6,2.1-1.5,3.8-5,3C578.8,196.3,582.5,197.2,584.2,196.3z"/>
	<path fill-rule="evenodd" d="M1103.2,196.3c-0.3,2-2.7,2-3,4C1097.7,199.3,1101,195.9,1103.2,196.3z"/>
	<path fill-rule="evenodd" d="M585.2,197.3c0.7,0,1.3,0,2,0c0,1,0,2,0,3c-1,0-2,0-3,0C583.9,198.7,585.1,198.6,585.2,197.3z"/>
	<path fill-rule="evenodd" d="M576.2,200.3c0-1,1.2-0.8,2-1C578.2,200.3,577,200.1,576.2,200.3z"/>
	<path fill-rule="evenodd" d="M368.2,203.3c0.2,2.2-0.8,3.2-3,3c2.1-3.8-1.2-2-5-2c0.4-1.1,1.8-2.5,2-1
		C363.5,201.9,366.9,201.9,368.2,203.3z"/>
	<path fill-rule="evenodd" d="M1098.2,202.3c0.6,2.2-1.9,1.4-2,3c-0.1,1-1.2,0.8-2,1C1094.3,203.8,1095.7,202.4,1098.2,202.3z"/>
	<path fill-rule="evenodd" d="M1146.2,203.3c0.2-1.1,1-0.6,1,0C1147,204.4,1146.2,203.9,1146.2,203.3z"/>
	<path fill-rule="evenodd" d="M369.2,211.3c0.1-1.4,0.2-2.8-1-3c2.3-3.2,3.1,3.5,6,3c-0.7,3.1,1,3.6,1,6
		C371.6,216.9,374.5,210,369.2,211.3z"/>
	<path fill-rule="evenodd" d="M362.2,208.3c3.1,0.7,1.9,0.7,5,0c-2.1,2.4-1.4,2.1-1,6C362.9,214.3,362.4,211.5,362.2,208.3z"/>
	<path fill-rule="evenodd" d="M1075.2,208.3c0.5,5.8-2.8,7.8-4,12C1065.3,218.4,1067.4,207.5,1075.2,208.3z"/>
	<path fill-rule="evenodd" d="M1086.2,210.3c0.2-1.1,1-0.6,1,0C1087,211.4,1086.2,210.9,1086.2,210.3z"/>
	<path fill-rule="evenodd" d="M1084.2,210.3c-0.2,1.8-1.7,2.3-4,2C1080.9,211,1082.3,210.4,1084.2,210.3z"/>
	<path fill-rule="evenodd" d="M375.2,213.3c0-1,1.2-0.8,2-1C377.2,213.3,376,213.1,375.2,213.3z"/>
	<path fill-rule="evenodd" d="M372.2,213.3c0,0.7,0,1.3,0,2c-0.7,0-1.3,0-2,0c0-0.7,0-1.3,0-2C370.9,213.3,371.5,213.3,372.2,213.3z
		"/>
	<path fill-rule="evenodd" d="M339.2,221.3c-0.2-4.5,8.3-6.4,14-6c2.1,0.1,7,0.6,6,3c1.8,0.1,2.1-1.2,4-1c0.4,2.9,4.3,2.4,5,5
		c1.2,0.3,2.8-0.4,4,0c0.5,0.2,0.6,1.8,1,2c0.8,0.4,2.3-0.4,3,0c0.5,0.3-0.1,0.9,1,1c1,0.1,0.8,1.2,1,2c-5.7,1.3-7.8,0.2-14,1
		c0.4-0.9,0.9-1.8,2-2c-0.1-1.7-3.8-0.7-5-2c-0.2-0.2,0.3-1.9,0-2c-0.5-0.2-1.4,0.1-2,0c-0.9-0.2-1.7-0.7-3-1c-2.4-0.6-6.2-1.7-9-3
		C345,219.8,342.9,221.3,339.2,221.3z"/>
	<path fill-rule="evenodd" d="M376.2,216.3c3.9-0.8,3.9,4.8,0,4C376.2,219,376.2,217.6,376.2,216.3z"/>
	<path fill-rule="evenodd" d="M75.2,218.3c0,1,0,2,0,3c-1.7,0.2-2.6-1.7-3,0C69.3,220.2,73.5,218.1,75.2,218.3z"/>
	<path fill-rule="evenodd" d="M380.2,219.3c0.2-1.2,1.8-0.8,3-1C383,219.5,381.4,219.1,380.2,219.3z"/>
	<path fill-rule="evenodd" d="M387.2,220.3c-0.3,1.4-2.5,0.8-4,1C383.5,219,385.9,219,387.2,220.3z"/>
	<path fill-rule="evenodd" d="M91.2,230.3c-2.8-0.8-2.6,1.4-5,1c0-1.7,0-3.3,0-5c-0.2-1.7-2.7-0.4-4-1c-0.3-0.1,0.3-1.9,0-2
		c-0.9-0.5-5.8,0.9-4-2c0.8,0,1.1-1.3,2-1c0.4,0.1,0.7,1.9,1,2c1.4,0.5,4.8,0.2,6,1c0.3,0.2-0.3,1.8,0,2c0.7,0.6,1.7,1,3,1
		C90.1,228.1,91.4,228.4,91.2,230.3z"/>
	<path fill-rule="evenodd" d="M261.2,220.3c0.7,0,1.3,0,2,0c0,0.7,0,1.3,0,2c-0.7,0-1.3,0-2,0C261.2,221.6,261.2,221,261.2,220.3z"
		/>
	<path fill-rule="evenodd" d="M348.2,220.3c0,0.7,0,1.3,0,2c-1,0-2,0-3,0C344.7,220.2,346.6,220.4,348.2,220.3z"/>
	<path fill-rule="evenodd" d="M381.2,221.3c1.2,0.2,0.8,1.8,1,3c-1,0-2,0-3,0C378.6,222.1,381.1,222.9,381.2,221.3z"/>
	<path fill-rule="evenodd" d="M1074.2,224.3c0.2-1.6,1.1,0,1,1C1075,226.9,1074,225.4,1074.2,224.3z"/>
	<path fill-rule="evenodd" d="M398.2,231.3c0.9,3.9-2.2,1.8-4,2c-1.5,0.1-3.8,1.9-4,0c-2.6-0.3-0.8,3.9-4,3c0.2-5.2-11.4,1.4-10-5
		c1.4-0.1,2.8-0.2,3,1c1-0.6,1-2.3,3-2c-0.7-0.9-1.8-1.5-3-2c0.4-0.1,1.8-2,2-2c1.6-0.3,1.7,1,3,1c1.9,0,4.9-0.5,7,0
		c0.2,0.1,0.1,1,1,1c1.4,0.1,2.2,1.9,4,2C397.3,230.4,398,230.3,398.2,231.3z"/>
	<path fill-rule="evenodd" d="M356.2,228.3c0.2-1.3,2-1,2,0C357.3,228.9,356.4,229.5,356.2,228.3z"/>
	<path fill-rule="evenodd" d="M351.2,230.3c0-1,1.2-0.8,2-1C353.2,230.3,352,230.1,351.2,230.3z"/>
	<path fill-rule="evenodd" d="M246.2,231.3c0.2-1.1,1-0.6,1,0C247,232.4,246.2,231.9,246.2,231.3z"/>
	<path fill-rule="evenodd" d="M1158.2,232.3c0-1,1.2-0.8,2-1C1160.2,232.3,1159,232.1,1158.2,232.3z"/>
	<path fill-rule="evenodd" d="M362.2,232.3c3.4,0.3,8.7-1.3,8,3C366.6,235.2,362.1,236,362.2,232.3z"/>
	<path fill-rule="evenodd" d="M410.2,235.3c0-1,1.2-0.8,2-1C412.2,235.3,411,235.1,410.2,235.3z"/>
	<path fill-rule="evenodd" d="M551.2,236.3c1.2,0.4,2.1,1.3,2,3c-1.6,0.3-1.7-0.9-3-1C550.4,237.5,551.2,237.3,551.2,236.3z"/>
	<path fill-rule="evenodd" d="M554.2,238.3c0.7,0,1.3,0,2,0c0,0.7,0,1.3,0,2c-0.7,0-1.3,0-2,0C554.2,239.6,554.2,239,554.2,238.3z"
		/>
	<path fill-rule="evenodd" d="M333.2,240.3c0.2-1.2,1.8-0.8,3-1C336,240.5,334.4,240.1,333.2,240.3z"/>
	<path fill-rule="evenodd" d="M421.2,239.3c1,0,2,0,3,0c0,1.7,0,3.3,0,5C421.4,244.4,421.3,241.9,421.2,239.3z"/>
	<path fill-rule="evenodd" d="M1158.2,240.3c0-1,1.2-0.8,2-1C1160.2,240.3,1159,240.1,1158.2,240.3z"/>
	<path fill-rule="evenodd" d="M559.2,240.3c0.7,0,1.3,0,2,0c0,0.7,0,1.3,0,2c-0.7,0-1.3,0-2,0C559.2,241.6,559.2,241,559.2,240.3z"
		/>
	<path fill-rule="evenodd" d="M556.2,243.3c0.9,0.6,1.8,1.2,2,0C562.3,244.4,554.6,247.5,556.2,243.3z"/>
	<path fill-rule="evenodd" d="M1159.2,244.3c0.1-1.9,1.6,0.4,1,1C1159.2,246.3,1157.6,243.8,1159.2,244.3z"/>
	<path fill-rule="evenodd" d="M553.2,244.3c0.7,0,1.3,0,2,0c0,0.7,0,1.3,0,2c-0.7,0-1.3,0-2,0C553.2,245.6,553.2,245,553.2,244.3z"
		/>
	<path fill-rule="evenodd" d="M971.2,249.3c2.5,1.6,0.4,7,0,9C968.7,256.7,970.8,251.3,971.2,249.3z"/>
	<path fill-rule="evenodd" d="M1155.2,249.3c0.7,0,1.3,0,2,0c0,0.7,0,1.3,0,2c-0.7,0-1.3,0-2,0
		C1155.2,250.6,1155.2,250,1155.2,249.3z"/>
	<path fill-rule="evenodd" d="M428.2,250.3c0.7,0,1.3,0,2,0c0,0.7,0,1.3,0,2c-0.7,0-1.3,0-2,0C428.2,251.6,428.2,251,428.2,250.3z"
		/>
	<path fill-rule="evenodd" d="M835.2,253.3c-0.1,2.5-3.7,2.4-5,1C830.3,251.8,833.9,251.9,835.2,253.3z"/>
	<path fill-rule="evenodd" d="M395.2,255.3c-0.3-1.8,5.6-1.8,4,1C397.2,254.6,397.2,257,395.2,255.3z"/>
	<path fill-rule="evenodd" d="M421.2,255.3c0.2-1.1,1-0.6,1,0C422,256.4,421.2,255.9,421.2,255.3z"/>
	<path fill-rule="evenodd" d="M1067.2,254.3c5.6-0.1-2.7,5,1,6c-1.6,1.6-3.3,3.4-5,5c-1.7,1.6-4,2.7-5,5c0,1,0,2,0,3
		c2.4,2,3.2,5.4,8,5c1.3,2.7-2.3,2.4-3,3c-0.3,0.3,0.3,1.7,0,2c-0.8,0.7-2.3,0.2-3,1c-0.8,3.5,1.5,3.8,1,7c1,1.4,2.7,2,4,3
		c0.3,1.2-2.9,3.4-3,1c-1.3,0.4-1.6,1.8-3,2c-0.1,1.4-0.2,2.8,1,3c-0.9,1.5-1.5,3.2-4,3c0.3,4-1.8,5.6-1,10c-3.2-1.4-3.3-0.2-7,0
		c1.6-3.6-3.4-0.6-3-3c-2.1-0.5-2.6,0.8-4,1c0.4-0.1-0.5-1.6-1-1c-1.8,2.2-1.1-0.2-2-1c-0.8-0.6-4,0.5-6,0c1.3-2.5-2.2-4.9,0-5
		c-0.2-2.1-2.9-0.5-3-3c-0.1-1.2-0.8-0.5-1-1c-0.4-1.2,0.9-0.6,1-1c0.1-0.6-1.2-2.4-1-4c0.3-2.3,0.7-3.8,2-5c1.3,1,3.7,1,5,2
		c2.1-0.3,0.3-4.4,2-5c5.6,0.6,7.8-2.2,9-6c2.5-0.3,4.4-1,6-3c0.5-0.6,0.9,0.2,1-1c0.1-1.3,1.9-1.6,2-3c0.1-1,1.2-0.8,2-1
		c-3.3-5.7,5-9,8-13c0.8-1-0.8-3,1-3C1067.4,257.3,1067,255.4,1067.2,254.3z"/>
	<path fill-rule="evenodd" d="M408.2,259.3c0.4-1.5,0.9,0.1,2,0C410,260.6,408.2,260.3,408.2,259.3z"/>
	<path fill-rule="evenodd" d="M969.2,259.3c0.7,0,1.3,0,2,0c0,0.7,0,1.3,0,2c-0.7,0-1.3,0-2,0C969.2,260.6,969.2,260,969.2,259.3z"
		/>
	<path fill-rule="evenodd" d="M1132.2,264.3c0.1-1.9,1.6,0.4,1,1C1132.2,266.3,1130.6,263.8,1132.2,264.3z"/>
	<path fill-rule="evenodd" d="M1020.2,267.3c0.1-1.9,1.6,0.4,1,1C1020.2,269.3,1018.6,266.8,1020.2,267.3z"/>
	<path fill-rule="evenodd" d="M971.2,269.3c-0.4-1.9,4.6-1.5,3,1c-0.7,0-1.3,0-2,0C972.4,269.5,971.8,269.4,971.2,269.3z"/>
	<path fill-rule="evenodd" d="M1119.2,271.3c0.2-1.1,1-0.6,1,0C1120,272.4,1119.2,271.9,1119.2,271.3z"/>
	<path fill-rule="evenodd" d="M973.2,271.3c2.1-0.5,1.9,1.4,2,3c-0.8-0.2-1-1-2-1C973.2,272.6,973.2,272,973.2,271.3z"/>
	<path fill-rule="evenodd" d="M1182.2,271.3C1181,274.3,1176.9,270.2,1182.2,271.3L1182.2,271.3z"/>
	<path fill-rule="evenodd" d="M1070.2,277.3c-0.3-1.6,5.4-1.4,3,1C1073.6,277.9,1070.2,277.2,1070.2,277.3z"/>
	<path fill-rule="evenodd" d="M1244.2,277.3c0.2-1.1,1-0.6,1,0C1245,278.4,1244.2,277.9,1244.2,277.3z"/>
	<path fill-rule="evenodd" d="M1067.2,280.3c0-1,1.2-0.8,2-1C1069.2,280.3,1068,280.1,1067.2,280.3z"/>
	<path fill-rule="evenodd" d="M1091.2,281.3c1.8,0.2,2.3,1.7,2,4C1090.2,286.3,1091.4,283.1,1091.2,281.3z"/>
	<path fill-rule="evenodd" d="M902.2,283.3c0.2-1.1,1-0.6,1,0C903,284.4,902.2,283.9,902.2,283.3z"/>
	<path fill-rule="evenodd" d="M1025.2,283.3c0.7,0,1.3,0,2,0c0,0.7,0,1.3,0,2c-0.7,0-1.3,0-2,0
		C1025.2,284.6,1025.2,284,1025.2,283.3z"/>
	<path fill-rule="evenodd" d="M1087.2,285.3c0.2-1.1,1-0.6,1,0C1088,286.4,1087.2,285.9,1087.2,285.3z"/>
	<path fill-rule="evenodd" d="M901.2,287.3c0-1,1.2-0.8,2-1C903.2,287.3,902,287.1,901.2,287.3z"/>
	<path fill-rule="evenodd" d="M1255.2,287.3c0.2-1.1,1-0.6,1,0C1256,288.4,1255.2,287.9,1255.2,287.3z"/>
	<path fill-rule="evenodd" d="M981.2,287.3c2.2-0.2,3.2,0.8,3,3C982,290.5,981,289.5,981.2,287.3z"/>
	<path fill-rule="evenodd" d="M1027.2,288.3c0-1,1.2-0.8,2-1C1029.2,288.3,1028,288.1,1027.2,288.3z"/>
	<path fill-rule="evenodd" d="M1086.2,289.3c0-1,1.2-0.8,2-1C1088.2,289.3,1087,289.1,1086.2,289.3z"/>
	<path fill-rule="evenodd" d="M1099.2,288.3c0.3,2-0.2,3.1-2,3c0,1,1.2,0.8,2,1c-0.5,3.5,0.8,5.2,3,6c-0.9,2.7-3.5-1-5-1
		c-2.5,0.7,1.9,2.7,1,5c-3.1-2.1-1.3,0.7-1,3c-2.1,0.4-2.6-0.7-4-1c1.9-2.3,2.3-3-1-4c0.4-0.9,0.9-1.8,2-2
		C1092.4,294.2,1094.7,289,1099.2,288.3z"/>
	<path fill-rule="evenodd" d="M83.2,291.3C80.2,295,79.8,288.3,83.2,291.3L83.2,291.3z"/>
	<path fill-rule="evenodd" d="M1255.2,292.3c0-1,1.2-0.8,2-1C1257.2,292.3,1256,292.1,1255.2,292.3z"/>
	<path fill-rule="evenodd" d="M986.2,292.3c2.5,0.1,3.9,1.5,4,4C987.7,296.2,986.3,294.8,986.2,292.3z"/>
	<path fill-rule="evenodd" d="M1256.2,294.3c0.2-1.1,1-0.6,1,0C1257,295.4,1256.2,294.9,1256.2,294.3z"/>
	<path fill-rule="evenodd" d="M664.2,297.3c0.2-1.1,1-0.6,1,0C665,298.4,664.2,297.9,664.2,297.3z"/>
	<path fill-rule="evenodd" d="M315.2,297.3c2.4,1,6.3,0.3,6,4c-3.1-0.7-2.9,1.7-6,1C315.2,300.6,315.2,299,315.2,297.3z"/>
	<path fill-rule="evenodd" d="M990.2,298.3c0.7,0,1.3,0,2,0c0,0.7,0,1.3,0,2c-0.7,0-1.3,0-2,0C990.2,299.6,990.2,299,990.2,298.3z"
		/>
	<path fill-rule="evenodd" d="M1104.2,298.3c1.8,0.2,5-1,4,2c3.3-1.7,6.4-0.6,10,0c-0.7,1.3,0.9,1.7,1,2c0.2,1-1,2.1-1,2
		c0.6,2.1,2.4,2.3,3,5c3.1,0.5,2.6-2.7,5-3c-0.2-1.8-3.4-0.6-4-2c1.3-1.4,3-2,0-3c1.2-2.7,5.3-0.1,4,3c1.6,0.8,3.1-1.1,5-1
		c0.7,0,3.6,0.5,4,1c0.7,0.8,0.8,0.7,2,1c0.9,0.2,4,1.5,6,2c0.6,0.1,1.4-0.2,2,0c0.5,0.2,1.6,1.8,2,2c2.1,0.8,3.2-0.2,5,1
		c0.8,0.5,2.3,1.2,4,2c2.1,1,5.4,2.4,5,2c0.1,0.1-1,1.5-1,2c0.1,1.1,2.1,0.7,2,2c1-0.6,1-2.3,3-2c0.3,1.6-0.9,1.7-1,3
		c2,1.2,1.5-1.8,2-2c1.4-0.5,7.9,1.2,8-1c0.1-2.4,1.3,1.1,1,1c0.8,0.2,5.3-2.7,5-3c-1.1-0.9-0.2-0.5,0-2c0.8,0.5,1.6,1,3,1
		c-1.4-2.3-4.1-3.2-6-5c0.3-3.5,3.7,2.5,4-1c1.5-0.5,0.4,2.7,1,3c0.6,0.3,1.3-1.7,1-2c0.9,0.8,0.7,2.5,2,3c0.8,0.9,1.1,2.3,1,4
		c-1.3,1.2-1.6,0.4-3,0c-1,3.3-4.2,4.5-7,6c-4.2,0.8-4.7-1.9-8-2c-1.9,0.4-0.1,4.6-4,3c1.9,2.8,4.4,4.9,6,8c1.7,0,2.6,0.7,3,2
		c1-0.6,1-2.3,3-2c1.1,1.5,3.3,2.1,3,5c-7.5,2.3-17.2-1.3-19-8c-3.1,0.7-2.9-1.7-6-1c-2,0.7-2.7,2.7-3,5c-1.2-0.2-1.8,0.2-2,1
		c-3.1-1.5-9.4,0.1-10-4c-3,0-6,0-9,0c0.3-2.3,0.6-4.7,4-4c-0.6-2.8-2.5-4.2-3-7c-5.1-1.3-9.4-3.3-14-5c-1.1,0.2-0.6,1,0,1
		c-0.7,3-2.1-1-4,0c1.4-4.4-3.4-2.6-3-6c1,0,2,0,3,0c0.4-2.4-4.6,0.6-3-3C1105.7,304.8,1103.7,302.8,1104.2,298.3z M1177.2,333.3
		c-0.8,0.2-2,0-2,1C1176,334.1,1177.2,334.3,1177.2,333.3z"/>
	<path fill-rule="evenodd" d="M322.2,300.3c0.7,0,1.3,0,2,0c0,0.7,0,1.3,0,2c-0.7,0-1.3,0-2,0C322.2,301.6,322.2,301,322.2,300.3z"
		/>
	<path fill-rule="evenodd" d="M1172.2,302.3c0.7,0,1.3,0,2,0c0,0.7,0,1.3,0,2c-0.7,0-1.3,0-2,0
		C1172.2,303.6,1172.2,303,1172.2,302.3z"/>
	<path fill-rule="evenodd" d="M1027.2,304.3c0-1,1.2-0.8,2-1C1029.2,304.3,1028,304.1,1027.2,304.3z"/>
	<path fill-rule="evenodd" d="M1083.2,303.3c2.4,0.6,4.6,1.4,8,1c-0.6,0.9-2.8,1.5-1,2c-0.7,1.7-2.3,0.6-2-1c-2.8-0.8-2.6,1.4-5,1
		C1083.2,305.3,1083.2,304.3,1083.2,303.3z"/>
	<path fill-rule="evenodd" d="M1102.2,304.3c1,0,2,0,3,0c0,0.7,0,1.3,0,2c-1,0-2,0-3,0C1102.2,305.6,1102.2,305,1102.2,304.3z"/>
	<path fill-rule="evenodd" d="M1174.2,306.3c0.7,0,1.3,0,2,0c0,0.7,0,1.3,0,2c-0.7,0-1.3,0-2,0
		C1174.2,307.6,1174.2,307,1174.2,306.3z"/>
	<path fill-rule="evenodd" d="M30.2,308.3c0.2-1.1,1-0.6,1,0C31,309.4,30.2,308.9,30.2,308.3z"/>
	<path fill-rule="evenodd" d="M1107.2,312.3c-2.2,1.7-3.1-1.8-4-2c-0.7-0.2-1.1,1.1-2,1c-0.4,0-1.5-0.9-1-1c-0.5,0.1-3.3,3.7-5,2
		c-0.1-0.1,0.1-2,0-2c-1.1-0.2-3.6,4.1-6,1c0-1.6,0.7-2.8,2-3c1.6-0.3,1.8,1.2,3,1c0.8-0.1,1.1-0.8,2-1c1.5-0.3,4.6,1.1,5-1
		c1.2,0.8,2.7,1.3,5,1C1106.1,310.1,1107.4,310.4,1107.2,312.3z"/>
	<path fill-rule="evenodd" d="M89.2,313.3c0-1,1.2-0.8,2-1C91.2,313.3,90,313.1,89.2,313.3z"/>
	<path fill-rule="evenodd" d="M28.2,314.3c0.2-1.1,1-0.6,1,0C29,315.4,28.2,314.9,28.2,314.3z"/>
	<path fill-rule="evenodd" d="M837.2,315.3c0-1,1.2-0.8,2-1C839.2,315.3,838,315.1,837.2,315.3z"/>
	<path fill-rule="evenodd" d="M782.2,315.3c1.6-0.3,1.4,5.4-1,3C781.6,318.7,782.3,315.3,782.2,315.3z"/>
	<path fill-rule="evenodd" d="M1190.2,315.3c1.9,0.8,2.9,2.4,4,4c0.9,1.3,3.1,1.9,2,5C1192,323.5,1190.9,319.6,1190.2,315.3z"/>
	<path fill-rule="evenodd" d="M1004.2,317.3c0.4-1.5,0.9,0.1,2,0C1006,318.6,1004.2,318.3,1004.2,317.3z"/>
	<path fill-rule="evenodd" d="M1114.2,316.3c2.4,0.6,0.5,5.1-2,4C1111.1,317.2,1113.8,317.9,1114.2,316.3z"/>
	<path fill-rule="evenodd" d="M1118.2,317.3c3.1-0.5,3.2,2.1,3,5c-1.8-0.1-2.1,1.2-4,1C1116.5,320.2,1118.9,320.4,1118.2,317.3z"/>
	<path fill-rule="evenodd" d="M1197.2,321.3c3.1-0.5,2.6,2.7,5,3c0,1-1.2,0.8-2,1c1,2,4.4,1.6,4,5c-1.3,0-2.7,0-4,0
		c1.1-2.1-1.6-4.8-2-2c-3.1-0.8,0.1-5.7,0-3c0,0,1.2-0.1,1-1C1199.1,323.6,1196.3,323.2,1197.2,321.3z"/>
	<path fill-rule="evenodd" d="M1050.2,323.3c0-1,1.2-0.8,2-1C1052.2,323.3,1051,323.1,1050.2,323.3z"/>
	<path fill-rule="evenodd" d="M898.2,324.3c0.2-1.1,1-0.6,1,0C899,325.4,898.2,324.9,898.2,324.3z"/>
	<path fill-rule="evenodd" d="M1069.2,324.3c0-1,1.2-0.8,2-1C1071.2,324.3,1070,324.1,1069.2,324.3z"/>
	<path fill-rule="evenodd" d="M1111.2,323.3c-1.9,1.5-1.5,5.2-5,5C1106.8,325.5,1107.3,322.7,1111.2,323.3z"/>
	<path fill-rule="evenodd" d="M1204.2,324.3c2.7,1,5.7,1.6,6,5C1207.2,328.7,1204.4,327.7,1204.2,324.3z"/>
	<path fill-rule="evenodd" d="M1101.2,325.3c0.7,0,1.3,0,2,0c0,0.7,0,1.3,0,2c-0.7,0-1.3,0-2,0
		C1101.2,326.6,1101.2,326,1101.2,325.3z"/>
	<path fill-rule="evenodd" d="M589.2,327.3c0-1,1.2-0.8,2-1C591.2,327.3,590,327.1,589.2,327.3z"/>
	<path fill-rule="evenodd" d="M1178.2,327.3c2.2,0,1,4.9-1,2C1177.4,328.5,1178.2,328.3,1178.2,327.3z"/>
	<path fill-rule="evenodd" d="M1213.2,334.3c-2.4,0.4-2.2-1.8-5-1c0.4-1.7-0.8-1.9-2-2c1.8-2.5,6.7,2.1,6-4c2.3,1.1,3.6,3,4,6
		C1212.7,333.1,1212,329.2,1213.2,334.3z"/>
	<path fill-rule="evenodd" d="M145.2,329.3C144,332.3,139.9,328.2,145.2,329.3L145.2,329.3z"/>
	<path fill-rule="evenodd" d="M1183.2,329.3c0.7,0,1.3,0,2,0c0,0.7,0,1.3,0,2c-0.7,0-1.3,0-2,0
		C1183.2,330.6,1183.2,330,1183.2,329.3z"/>
	<path fill-rule="evenodd" d="M142.2,332.3c0-1,1.2-0.8,2-1C144.2,332.3,143,332.1,142.2,332.3z"/>
	<path fill-rule="evenodd" d="M1063.2,332.3c2.2-2.5,8.8-0.8,8,3C1066.7,336.1,1066.2,333,1063.2,332.3z"/>
	<path fill-rule="evenodd" d="M146.2,333.3c0.2-1.3,2-1,2,0C147.3,333.9,146.4,334.5,146.2,333.3z"/>
	<path fill-rule="evenodd" d="M1214.2,335.3c1.2-3,3.8,0.7,5,1C1218,339.3,1215.4,335.6,1214.2,335.3z"/>
	<path fill-rule="evenodd" d="M147.2,336.3c0-1,1.2-0.8,2-1C149.2,336.3,148,336.1,147.2,336.3z"/>
	<path fill-rule="evenodd" d="M1073.2,336.3c0-1,1.2-0.8,2-1C1075.2,336.3,1074,336.1,1073.2,336.3z"/>
	<path fill-rule="evenodd" d="M1230.2,335.3c0.7,0,1.3,0,2,0c0,0.7,0,1.3,0,2c-0.7,0-1.3,0-2,0
		C1230.2,336.6,1230.2,336,1230.2,335.3z"/>
	<path fill-rule="evenodd" d="M1185.2,339.3c-0.2-2.2,3.5-0.5,5-1C1189.3,340,1186.7,340.9,1185.2,339.3z"/>
	<path fill-rule="evenodd" d="M1209.2,338.3c2.2-0.2,3.2,0.8,3,3C1211.3,340.2,1208.5,341,1209.2,338.3z"/>
	<path fill-rule="evenodd" d="M1233.2,340.3c0-1,1.2-0.8,2-1C1235.2,340.3,1234,340.1,1233.2,340.3z"/>
	<path fill-rule="evenodd" d="M798.2,340.3c0.7,0,1.3,0,2,0c0,0.7,0,1.3,0,2c-0.7,0-1.3,0-2,0C798.2,341.6,798.2,341,798.2,340.3z"
		/>
	<path fill-rule="evenodd" d="M815.2,340.3c1.2-0.2,1.8,0.2,2,1c0.9,1.8,1.3,1.2,2,4c0.2,0.9,0.4,2.3,1,5c0.2,0.8,1.1,1,1,2
		c-0.1,1.5-1.3,2.6-2,4c-0.7,1.5,0.6,3.5-2,3c-0.6,11.4-5.3,18.7-8,28c-3.3,2.2-7.7,2.3-12,1c-0.7-3.9-1.7-7.6-3-11
		c0.2-3.8,3.1-4.9,4-8c-0.2-5.4-1.8-9.1,0-14c3.7-0.3,6.9-1.1,9-3c1.8-0.9,4.9-4.6,5-7c0.1-1.5,1.2,0.1,2,0
		C813.4,342.5,815.6,342.7,815.2,340.3z"/>
	<path fill-rule="evenodd" d="M801.2,344.3c0.2-1.1,1-0.6,1,0C802,345.4,801.2,344.9,801.2,344.3z"/>
	<path fill-rule="evenodd" d="M32.2,347.3c-1,2.8-4.2-0.3-6,0c-0.3-1.7,3.9-3.5,3,0C30.2,347.3,31.2,347.3,32.2,347.3z"/>
	<path fill-rule="evenodd" d="M1236.2,347.3c0.2-1.6,1.1,0,1,1C1237,349.9,1236,348.4,1236.2,347.3z"/>
	<path fill-rule="evenodd" d="M33.2,349.3c0-1,1.2-0.8,2-1C35.2,349.3,34,349.1,33.2,349.3z"/>
	<path fill-rule="evenodd" d="M1233.2,350.3c2.8,0.2,3.1,2.9,4,5c2.8-1-1.5-2.7,1-4c2.6,0.4,0.9,5.1,3,6c-0.8,2.9-3.2-0.6-5,0
		c-1.1-0.9-0.3-3.7-3-3C1233.2,353,1233.2,351.6,1233.2,350.3z"/>
	<path fill-rule="evenodd" d="M134.2,355.3c0.2-1.1,1-0.6,1,0C135,356.4,134.2,355.9,134.2,355.3z"/>
	<path fill-rule="evenodd" d="M1.2,356.3c0.4-1.9,1.3,0.6,1,2C1.8,360.2,0.9,357.7,1.2,356.3z"/>
	<path fill-rule="evenodd" d="M102.2,357.3c0.2-1.1,1-0.6,1,0C103,358.4,102.2,357.9,102.2,357.3z"/>
	<path fill-rule="evenodd" d="M130.2,357.3c0.4-1.5,0.9,0.1,2,0C132,358.6,130.2,358.3,130.2,357.3z"/>
	<path fill-rule="evenodd" d="M108.2,361.3c-0.4-1.9,4.6-1.5,3,1c-0.7,0-1.3,0-2,0C109.4,361.5,108.8,361.4,108.2,361.3z"/>
	<path fill-rule="evenodd" d="M140.2,360.3C143.8,363,138,366.7,140.2,360.3L140.2,360.3z"/>
	<path fill-rule="evenodd" d="M1238.2,361.3c-0.4-1.9,4.6-1.5,3,1c-0.7,0-1.3,0-2,0C1239.4,361.5,1238.8,361.4,1238.2,361.3z"/>
	<path fill-rule="evenodd" d="M1278.2,362.3c0.2-1.1,1-0.6,1,0C1279,363.4,1278.2,362.9,1278.2,362.3z"/>
	<path fill-rule="evenodd" d="M153.2,363.3c0.2-1.1,1-0.6,1,0C154,364.4,153.2,363.9,153.2,363.3z"/>
	<path fill-rule="evenodd" d="M155.2,364.3c0-1,1.2-0.8,2-1C157.2,364.3,156,364.1,155.2,364.3z"/>
	<path fill-rule="evenodd" d="M1241.2,364.3c2.6-0.3,3.3,1.4,3,4C1241.6,368.6,1241.6,366.2,1241.2,364.3z"/>
	<path fill-rule="evenodd" d="M6.2,366.3c0.2-1.1,1-0.6,1,0C7,367.4,6.2,366.9,6.2,366.3z"/>
	<path fill-rule="evenodd" d="M36.2,366.3c0-1,1.2-0.8,2-1C38.2,366.3,37,366.1,36.2,366.3z"/>
	<path fill-rule="evenodd" d="M1276.2,365.3c-0.4,1.2-1.3,2.1-3,2C1272.7,365.2,1274.6,365.4,1276.2,365.3z"/>
	<path fill-rule="evenodd" d="M845.2,369.3c0.7,0,1.3,0,2,0c0.5,2.1-1.4,1.9-3,2C844.4,370.5,845.2,370.3,845.2,369.3z"/>
	<path fill-rule="evenodd" d="M1224.2,369.3c0.6,0.6,1.3,0.5,2,1c1.1,0.7,2.1,1.1,3,2c1,1,5.9,2.4,6,6c-2.4,0.1-5.5-1.9-7-3
		C1226.4,374,1223.6,372.7,1224.2,369.3z"/>
	<path fill-rule="evenodd" d="M1244.2,370.3c0-1,1.2-0.8,2-1C1246.2,370.3,1245,370.1,1244.2,370.3z"/>
	<path fill-rule="evenodd" d="M148.2,372.3c0.2-1.1,1-0.6,1,0C149,373.4,148.2,372.9,148.2,372.3z"/>
	<path fill-rule="evenodd" d="M1052.2,373.3c-1,0-0.8-1.2-1-2C1052.2,371.3,1052,372.5,1052.2,373.3z"/>
	<path fill-rule="evenodd" d="M17.2,372.3c0.9,1.1,3.7,0.3,3,3C18,375.5,17,374.5,17.2,372.3z"/>
	<path fill-rule="evenodd" d="M837.2,372.3c1,0,2,0,3,0c0,0.7,0,1.3,0,2c-1,0-2,0-3,0C837.2,373.6,837.2,373,837.2,372.3z"/>
	<path fill-rule="evenodd" d="M72.2,374.3c0-1,1.2-0.8,2-1C74.2,374.3,73,374.1,72.2,374.3z"/>
	<path fill-rule="evenodd" d="M251.2,395.3c0-1,1.2-0.8,2-1C253.2,395.3,252,395.1,251.2,395.3z"/>
	<path fill-rule="evenodd" d="M1232.2,462.3c-0.5-3.5,3.9-4,6-6c0.4-0.3,0.6-1.8,1-2c1.2-0.8,3-0.5,4-1c2.1-1.1,3.9-2.8,6-5
		c0.8-0.9,1.2-2.1,3-2c-0.3-2.9,1.9-3.5,3-5c1.2,0.1,1.2,2.7,2,3c1.2,0.5,2.3-3.5,3-1c1.4,1.1,2.4,1.1,3-1c0.1-2.8-2.4-2.9-5-3
		c-0.3-3.6,4-2.7,4-6c-0.9-5.8-6.2-7.1-7-13c2.8,0.5,4.2,2.4,7,3c-0.7,3.1,1.7,2.9,1,6c2.4,0.4-0.6-4.6,3-3c0.3,2.3,1.2,4.1,2,6
		c3.8,0.8,4.8-1.2,8-1c1.2,3-1,3.6-2,5c-0.2,0.3,0.3,1.8,0,2c-0.7,0.4-2.2-0.3-3,0c1.6,3.4-2.9,3.5-3,6c-0.1,1.1-2.1,0.7-2,2
		c-1.6-0.1-3.8,0.5-4-1c-1.5,0-0.5,2-1,3c-0.7,1.3-3.1,1.1-3,3c-1.1,0.4-2.5,1.8-1,2c-1.2,1.4-3.4,1.9-6,2c-0.8,2.2-2.1,3.9-2,7
		c-0.9,0.6-3.4,0.2-4,1c-0.7,0.9-2.2,1.3-4,1c-0.3,0-1.8,0.2-2,0C1238.3,463.2,1235,463.7,1232.2,462.3z"/>
	<path fill-rule="evenodd" d="M1152.2,438.3c2.9-1.5,2.9,4.5,0,3C1152.2,440.3,1152.2,439.3,1152.2,438.3z"/>
	<path fill-rule="evenodd" d="M1166.2,439.3c1.6-0.3,1.7,0.9,3,1c0.4,4.7-0.3,8.3-1,12c-4.3-0.3-3.7,3.2-7,1c-0.8-0.5-2.4-1.2-4-2
		c0.9-4.9-3.3-4.7-2-10c3.3,2.3,8.2,4.2,12,1C1166.7,441.5,1166.2,440.7,1166.2,439.3z"/>
	<path fill-rule="evenodd" d="M376.2,452.3c0,0.7,0,1.3,0,2c-0.7,0-1.3,0-2,0c0-0.7,0-1.3,0-2C374.9,452.3,375.5,452.3,376.2,452.3z
		"/>
	<path fill-rule="evenodd" d="M12.2,453.3c2.6-0.6,3.6,0.4,3,3C14.3,455.2,11.5,456,12.2,453.3z"/>
	<path fill-rule="evenodd" d="M824.2,462.3c0.7,0,1.3,0,2,0c0,0.7,0,1.3,0,2c-0.7,0-1.3,0-2,0C824.2,463.6,824.2,463,824.2,462.3z"
		/>
	<path fill-rule="evenodd" d="M774.2,465.3c0-1,1.2-0.8,2-1C776.2,465.3,775,465.1,774.2,465.3z"/>
	<path fill-rule="evenodd" d="M1240.2,465.3c-0.3,1.4-2.5,0.8-4,1C1236.5,464,1238.9,464,1240.2,465.3z"/>
	<path fill-rule="evenodd" d="M885.2,471.3c3.2-0.5,3.5,1.8,7,1c0.7,4-3.8,2.9-7,3C885.2,474,885.2,472.6,885.2,471.3z"/>
	<path fill-rule="evenodd" d="M1231.2,477.3c0.7,0,1.3,0,2,0c0.5,2.1-1.4,1.9-3,2C1230.4,478.5,1231.2,478.3,1231.2,477.3z"/>
	<path fill-rule="evenodd" d="M436.2,480.3c0.2,2.5-1.5,3.1-3,4c-0.9-0.6-4.3,0.8-5,0c-1-1.2-1.8,0.9-5-1c0.6-1,2.3-1,2-3
		C428.9,480.3,432.5,480.3,436.2,480.3z"/>
	<path fill-rule="evenodd" d="M1241.2,485.3c0-1,1.2-0.8,2-1C1243.2,485.3,1242,485.1,1241.2,485.3z"/>
	<path fill-rule="evenodd" d="M901.2,487.3C904.2,483.6,904.6,490.3,901.2,487.3L901.2,487.3z"/>
	<path fill-rule="evenodd" d="M514.2,492.3c-1.8,4.7-3.9-2.8-9-1C506.6,487.1,512.3,491,514.2,492.3z"/>
	<path fill-rule="evenodd" d="M1205.2,491.3c0.7,0,1.3,0,2,0c0,0.7,0,1.3,0,2c-0.7,0-1.3,0-2,0
		C1205.2,492.6,1205.2,492,1205.2,491.3z"/>
	<path fill-rule="evenodd" d="M546.2,506.3c0-1,1.2-0.8,2-1C548.2,506.3,547,506.1,546.2,506.3z"/>
	<path fill-rule="evenodd" d="M477.2,514.3c0-1,1.2-0.8,2-1c0.7,0,1.3,0,2,0C480.9,514.7,478.7,514.1,477.2,514.3z"/>
	<path fill-rule="evenodd" d="M445.2,515.3c0.7,0,1.3,0,2,0C447.4,518.1,439.7,515,445.2,515.3z"/>
	<path fill-rule="evenodd" d="M437.2,518.3c-1.3,1.9-4,1.4-6,2c-3,0.8-5.1,3-8,1c0.7-1.2,4.3-1.3,6-2c0.4-0.1,1.8,0.3,2,0
		C431.7,518.7,434.1,517.7,437.2,518.3z"/>
	<path fill-rule="evenodd" d="M418.2,522.3c0.2-1.3,2-1,2,0C419.3,522.9,418.4,523.5,418.2,522.3z"/>
	<path fill-rule="evenodd" d="M1006.2,529.3c1.6-0.3,1.7,0.9,3,1C1009.6,532.2,1004.6,531.8,1006.2,529.3z"/>
	<path fill-rule="evenodd" d="M997.2,532.3c-1-3.4,3.1-1.6,5-2C1002.1,532.5,999.7,532.5,997.2,532.3z"/>
	<path fill-rule="evenodd" d="M969.2,532.3c0-1,1.2-0.8,2-1C971.2,532.3,970,532.1,969.2,532.3z"/>
	<path fill-rule="evenodd" d="M1226.2,537.3c0.7,0,1.3,0,2,0c0,0.7,0,1.3,0,2c-0.7,0-1.3,0-2,0
		C1226.2,538.6,1226.2,538,1226.2,537.3z"/>
	<path fill-rule="evenodd" d="M318.2,543.3c0-1,1.2-0.8,2-1C320.2,543.3,319,543.1,318.2,543.3z"/>
	<path fill-rule="evenodd" d="M424.2,543.3c0-1,1.2-0.8,2-1C426.2,543.3,425,543.1,424.2,543.3z"/>
	<path fill-rule="evenodd" d="M644.2,548.3C647.2,544.6,647.6,551.3,644.2,548.3L644.2,548.3z"/>
	<path fill-rule="evenodd" d="M733.2,547.3c1.3,0,2.7,0,4,0c0,0.7,0,1.3,0,2c-1.3,0-2.7,0-4,0C733.2,548.6,733.2,548,733.2,547.3z"
		/>
	<path fill-rule="evenodd" d="M582.2,555.3c0.7,0,1.3,0,2,0c0,0.7,0,1.3,0,2c-0.7,0-1.3,0-2,0C582.2,556.6,582.2,556,582.2,555.3z"
		/>
	<path fill-rule="evenodd" d="M267.2,557.3c1.6-0.3,1.7,0.9,3,1C270.6,560.2,265.6,559.8,267.2,557.3z"/>
	<path fill-rule="evenodd" d="M201.2,561.3c-1.3,1.8-4.3,1.1-6,1c-0.7-0.1-3.6-0.5-4-1c-1.2-1.5-1.5,1-4-1
		C190.3,555.4,197.3,560.7,201.2,561.3z"/>
	<path fill-rule="evenodd" d="M569.2,560.3c-0.6,0.9-1.2,1.8,0,2c-1.5,3-3.9-1.3-7,0c0-1,1.2-0.8,2-1
		C566,560.4,567.1,558.1,569.2,560.3z"/>
	<path fill-rule="evenodd" d="M489.2,582.3c-2.9,3.2-7,1.5-11,2c-9.4,1.1-20.2,2.7-31,2c0.9-5.1,8.8-3.2,13-5c1.6-0.2,0-1,0-1
		c0.1-1.3,2.3-1.9,3-4c6.4-2.3,14.5-2.3,22-1C485.7,578.5,489,578.8,489.2,582.3z"/>
	<path fill-rule="evenodd" d="M398.2,580.3c-0.5-2-4.3,0.9-5,2c-2.9-0.1-6.5,0.5-8-1c3.5-4.5,12.2-3.8,19-5c-0.4,1.2-1.3,2.1-3,2
		c-0.3,2.1,3,0.7,4,2c0.7,0.8,0.8,0.7,2,1c1.3,0.3,1.6,1.7,3,2c2.5,0.5,6,0.3,9,0c3.6-0.4,7.8-4.1,11-1c0.1,1.8-1.2,2.1-1,4
		c-3.9-0.3-7.2,0.4-10,0c-2-0.3-2.1-1.7-5-1c-0.4,0.1-1.3,1-1,1c-1.1,0-4-1.9-8-1c0.3-1.2-1.6-0.5-2-1c-0.2-0.3,0.3-1.8,0-2
		c-1-0.6-5.8-0.1-6-2C397.5,580.3,397.9,580.3,398.2,580.3z"/>
	<path fill-rule="evenodd" d="M76.2,581.3c-1.1,1.9-4.2,1-6,1c-4.4,0.1-10.7-0.4-14-2C60.3,574.6,70.6,579.7,76.2,581.3z"/>
	<path fill-rule="evenodd" d="M87.2,582.3c-0.3-0.7,2.5-1.5,3-1c0.1,0.1-0.1,1,0,1c0.5,0.1,3.8-0.3,4,0
		C95.2,584.2,88.4,583,87.2,582.3z"/>
	<path fill-rule="evenodd" d="M71.2,589.3c-3.7-0.7-7.3-1.4-12-1c-2.7-1.4,3.1-1.1,6-1C67.7,587.4,72.4,586.3,71.2,589.3z"/>
	<path fill-rule="evenodd" d="M75.2,589.3c0.9-2.9,2.5,1.3,5,0C79.9,591.6,75.8,589.9,75.2,589.3z"/>
	<path fill-rule="evenodd" d="M361.2,23.3c0.2,1.2,1.8,0.8,3,1c-0.4,4.4-7.7,3.4-5,8c-3.3,0-6.2,1.8-9,2c-1.8,0.2-3.3-0.9-5-1
		c-2.2-0.1-2.6,0.9-4,1c-1.6,0.1-1.7-0.9-3-1c-0.7-0.1-1.1,1-2,1c-0.8,0-1-1.1-2-1c-1.3,0.1-2.7,1.1-6,1c-3.1-0.1-8.3-1.9-15-1
		c-0.4-3.9-1.9-6.8-7-6c-0.4,3.4,4.4,1.6,3,6c-2,0-4,0-6,0c2.8,2.8,13-0.8,17,2c-1.7,4.3-7.3,4.7-12,6c-0.9,2.1,1.4,1.3,2,2
		c0.4,0.5,0.5,2.6,1,3c1.1,0.9,3.9,0.7,5,2c0,1-1.2,0.8-2,1c1.3,2.1,9.7,0,6,4c1.3,2.8,2.1-3.2,5-2c0.2,1.2,1.8,0.8,3,1
		c2.8,2.3-2.3,6.2,3,6c1.5-0.4-0.4-1.3,0-3c4.3,1.3,5.2,0.2,6-4c-0.2-0.8-1-1-1-2c-1.7,0.1-2.7,1.1-5,1c0.1,0-0.4-1-1-1
		c-2.2-0.1-2.5-0.6-4-1c-2.9-0.7-3.6-3.1-6-5c0.6-0.6,0.5-1.3,1-2c0.3-0.5,0.8-0.7,1-1c1.1-1.8,1.2-3,4-4c0.4-0.1,1.8,0.3,2,0
		c0.1-0.1-0.1-1,0-1c2-0.4,10.4-0.6,11,0c0.1,0.1-0.1,2,0,2c0.6,0,1.2-0.8,2-1c1-0.2,2,0.2,3,0c1.7-0.3,3-1.9,6-1c0.3,0.1,1.3,1,1,1
		c1.8,0.1,2.1-1.1,4-1c3.8,0.2,7.9,1.9,12,1c0.6,1.1,1.9,1.3,3,2c0.7,0.4,1.5,1.8,2,2c1.1,0.5,3.3,0.2,5,1c1.2,0.5,1.7,1.7,3,2
		c2.2,0.4,5.2-0.3,8,0c-0.6,2.2,1.9,1.4,2,3c6.3-1,9.2,1.5,13,3c-1.1,1.2-0.9,2.1,1,2c1,3-2.2,1.8-4,2c3.2,2.7,9.8,1.9,13,4
		c1,0.6,1.6,0.6,3,1c0.9,0.2,0.7,0.9,1,1c1.5,0.5,3.6-0.6,5,0c0.7,0.3,0.7,2.3,2,2c-1.4,3.9-8.3,2.4-9,7c-5.1-0.9-7.6-4.4-12-6
		c0.2,1.2-0.2,1.8-1,2c1,2.3,3.4,3.2,7,3c1.1,0.9,0.3,3.7,3,3c0,2.3,0,4.7,0,7c-3.9-0.1-4.6-3.4-9-3c0.3,2.4,4.7,0.6,4,4
		c-5.3-0.4-11.1-0.2-14-3c-0.9,0.8-2.3,1.1-4,1c0.3-2-3.3-1-4-2c-0.2-0.3,0.3-1.8,0-2c-1.2-0.8-2.6-0.3-4-1c-0.5-0.2,0.1-0.9-1-1
		c-0.7,0-1.1-0.8-2-1c-3.9-0.7-7.2,1.5-12,1c-0.4,2.4,4.6-0.6,3,3c-3.1-0.2-5.7,2.4-8,0c0.3-1.4,2.5-0.8,4-1c-0.6-0.9-2.8-1.5-1-2
		c-0.6-1-2.3-1-2-3c3.1-2.9,10.2-1.8,16-2c-0.6-1-2.3-1-2-3c3.6,0.3,3.7-3,7-3c-1.1-3-4-2.1-6-2c-2,0.1-2,1.5-4,2
		c-2.5,0.6-4.4-0.5-7,0c-0.9-4.3,2.4-4.3,6-4c-1-1.7-4.2-1.1-6-2c-1.9-0.8,0.5-2.3,0-3c-0.7-0.9-3.6-0.4-5-2c-0.5,2.1,1.4,1.9,3,2
		c-1.4,1.9-2.2,4.4-6,4c-0.6-2.2,1.9-1.4,2-3c-0.7-1.1-2.7,0.1-5,0c-1.8-0.1-4.2-1.6-6-1c0.2,1.2,1.8,0.8,3,1c-0.2,1.2,0.2,1.8,1,2
		c-0.4,1.2-1.3,2.1-3,2c-0.7,2.7,2.1,1.9,3,3c0.4,1.9-2.3,1.2-3,2c-0.1,0.1,0.2,0.9,0,1c-0.4,0.2-1.7-0.3-2,0c-0.9,1.1-1.7,3.1-4,1
		c-1.3,1.7,2,1.9,2,2c-0.1,1.4-2.7,0.8-4,1c1.8,2.5,4.7,1.1,7,2c0.4,0.2,0,0.9,1,1c1.4,0.1,0.2,1.7,1,2c1.4,0.6,3.5-0.5,5,0
		c-0.6,5.1-7.1,2-10,1c-3.5,0.1-4.5,2.9-8,3c-1.7,0.4-1.9-0.8-2-2c-2,0-4,0-6,0c1.1-2.5,4.8-2.5,4-7c-2.7-1-1.2,2.1-2,3
		c-0.7,0.8-3.3,0.1-3,2c-1.2-0.2-1.8,0.2-2,1c-1.7,0-3.3,0-5,0c-1.5,0.9-3.9,0.8-3,4c-2.1,0.4-7.2,0.2-8,2c-0.1,0.3,0.2,1.9,0,2
		c-0.6,0.4-2.5-0.5-3,0c-0.9,0.9-1,2.4-2,4c-0.3,0.5-0.9-0.2-1,1c0,0.8-1.1,1-1,2c1.1,0.2,0.6,1,0,1c0.9,1.7,3.1,2.2,6,2
		c0.9,2.1,3,3,3,6c3.7-2.7,8.4,0.5,13,0c0.6,1.1,2,1.3,3,2c0.5,0.3,1.6,1.8,2,2c2.4,1,6.3-0.4,8,2c3,0,6,0,9,0c1.2,1.2,1.1,3.5,1,6
		c1.4,1.6,4.9,1.1,6,3c-0.3,1.4-2.5,0.8-4,1c0.7,0.9,1.8,1.5,3,2c1,0.6,1,2.3,3,2c1.7-0.3-1.3-3.5,3-3c-0.2,0.8-1,1-1,2
		c4.1-1.6-0.4-7.9-2-10c1.8-1.9,4.8-1.5,7-3c0.9-0.6,1.5-1.8,4-2c0.9-6.3-2.5-8.1-7-9c-0.4-2,1.2-2.2,2-3c0.6-0.7,1-1.7,2-2
		c-0.2-0.8-1-1-1-2c-0.4-1.5-1.3,0.4-3,0c-0.5-2.1,1.4-1.9,3-2c-0.3-2.3-2-4.1,0-6c4.1-0.8,5.1,1.5,9,1c1.7,0.4,1.9-0.8,2-2
		c3.5-0.1,6.5,3.1,10,4c1.5,0.4,2,0.2,2,2c4.7,0.2,5.7,0.2,8,1c-0.8,1.2-1.3,2.7-1,5c0.6,1.1,1.9,1.3,3,2c0.9,0.6,1.8,1.9,3,2
		c4.5,0.5,9.1-3.5,10-8c2.1-0.7,1.3,1.3,2,2c0.7,0.8,2.4,2,4,3c0.5,0.3,1.5,0.6,2,1c0.8,0.8,0.3,4.4,3,3c0,1.7,0.7,2.6,2,3
		c0,1,0,2,0,3c0.3,2.4,4.7,0.6,4,4c1.1,0.6,4.1-0.8,5,0c0.2,0.2-0.2,1.9,0,2c1.6,0.5,2.6-1.9,3,0c2.7-0.7,1.9,2.1,3,3
		c2.8-0.8,2.6,1.4,5,1c0,2.7-0.6,5.9,2,6c-0.6-0.6-2,6-1,4c-0.5,1-1.8,0.8-2,2c0.6,0.9,2.8,1.5,1,2c0.1,1.7,4.2-1,7,0
		c1,0.5,0.4,2,1,3c0.6,0.9,1.2,0.4,1,0c0.1,0.2,2,2,2,2c0.1,0.8-1.1,1-1,2c0-0.4,0.9,0.7,1,1c0.4,1.7-1.5,2.2-1,4
		c-2.6-0.1-5.1-0.2-5-3c-3,0.3-3.6,3.1-8,2c0-2.6,0.7-1.2,2-1c-0.9-4.4-10.5-0.1-13-3c-0.3-0.6,2.7-1.3,2-2c-1-1-0.3-1.1,1-2
		c0.6-0.4-0.2-0.9,1-1c2.2-0.1,0.5-2.8,2-4c0.2-0.2,2.9-1.4,3-3c-5.6-0.9-6.8,2.5-10,4c-3.7,0-7.3,0-11,0c0.7,2.3,5.7,0.3,5,4
		c-3.5,0.1-6.7-0.5-9-2c-1.8-1.2-2.7-2.5-7-2c-2.9,0.4-3,3.2-7,3c2.7,2.6,6.6-2,11-1c0.2,1.2,1.8,0.8,3,1c0.3,3.6-1.8,4.8-2,8
		c0,1,1.5,0.5,2,0c1.4-1.4,0.2,0.7,2,1c2,0,4,0,6,0c0,1,0,2,0,3c2.2-1.5,2.3-5,6-5c-1.4,3.8,2.7,1.9,2,5c-4.7,1.9-8.8,4.6-15,5
		c-2.8,1.8-4.9,5.3-9,3c-0.9-3.2,0.9-3.8,2-5c-2-0.3-3.1,0.2-3,2c-6.2,0.5-11.5,1.8-14,6c-0.3,3.3,4.9,1.1,3,6c-2.4,0-2.9-1.7-6-1
		c-1.5,1.8-3.6,3.1-7,3c-2.4,1.2-2.3,3.9-4,6c-0.5,0.6-1.6,1.4-2,2c-1,1.5-0.3,3.5-3,4c0.8,2.2,2.6,3.4,2,7c-0.9,2.2-2.9-1.1-3,1
		c-0.1,1.2-1.9,0.8-3,1c-1.8-0.5-1.3,2.6-2,3c-1.1,0.7-4.2-0.8-5,1c-0.2,0.4,0.3,1.7,0,2c-0.3,0.3-1.7-0.3-2,0c-0.8,1-0.9,1.3-2,2
		c-1.7,1.1-3.2,2.3-4,5c0.2,1.6-0.1,2.9,1,5c0.4,0.8,1.8,1.5,2,2c0.3,0.8-0.6,3.4,0,4c1,1,3.4,4.1,2,8c0,0.1-1-0.1-1,0
		c-0.6,1.9-1.5,5-6,4c0.2-1.2,1.8-0.8,3-1c-1.7-3.6-4.3-6.3-7-9c0.1-1.6-0.5-3.8,1-4c-0.7-2.3-3.3-2.7-4-5c-2.1-0.4-2.6,0.7-4,1
		c-1.6,0.3-1.7-0.9-3-1c-2-3.6-4.6-0.3-9-1c-1.3,0.7-1.9,2.1-2,4c-1.4,1-2.8-1-3-1c-1.6,0-2.8,2.1-5,0c0.1,0.1-1.4-1.1-1-1
		c-1.2-0.4-0.6,0.9-1,1c-0.3,0.1-4.8-1.6-8-1c-0.4,0.1-1.5,0.7-2,1c-0.5,0.3-0.7,0.8-1,1c-0.9,0.5-2,0.4-3,1c-0.6,0.4-1.4,1.7-2,2
		c-1.1,0.6-2.1,0.3-3,1c-1.4,3.2-0.2,3.3,0,7c-1.8,4-3.4,12.9,0,18c1.8,2.7,4.5,6.7,5,7c1.4,1,4.1-0.9,4,2c4.4-1.3,9.6-1.8,13-4
		c0.7-2.3,0.9-5.1,2-7c4.4-0.3,7.7-1.6,13-1c-0.6,1.2,1.3,4.9-1,5c-1,0.1-0.8,1.2-1,2c-0.2,0.9-0.7,1.7-1,3c-0.2,0.7-1,0.9-1,1
		c-0.3,1.6,0.5,3.5,0,5c-0.1,0.3-0.9,0-1,1c0,0.8-1.1,1-1,2c2.3,2.3,10,0.4,15,1c0.3,2.1,2.7,2,4,3c0.2,2.9-0.3,5.1-2,6
		c2.2,2.7-0.6,5.1,0,8c0.9,4.2,4.6,6.2,8,8c3.6,0.3,3.7-3,7-3c0.3,1.4,2.5,0.8,4,1c1,1.4,2.7,2,4,3c1.2-0.9,3.2-1.9,4-3
		c1.2-1.8-0.6-2.1,1-3c0.4-1.3,1.8-1.6,2-3c3.1,0.7,2.9-1.7,6-1c3.5-0.5,3.5-4.5,8-4c2.6,2.5-0.7,3.6-2,5c4,0.7,5.7-1,5-5
		c1.7-0.4,1.9,0.8,2,2c0.2,0.8,1,1,1,2c2.9-0.2,5.5-0.1,5,3c3.9,0.1,8.8-0.8,10,2c2.7,0,2.6-2.8,4-4c2.8-1,0.8,1.9,1,2
		c1.3,0.4,2.6-0.8,4-1c2.2-0.2,6.5,1.1,7-2c1.8,0.7,0.1,1.8,0,3c0.3,1.6-0.9,1.7-1,3c0.6,2,3,2,1,4c3.7-0.7,3.8,2.2,7,2
		c1.8,1.7,1.8,3.9,3,5c0.3,0.3,1.7-0.3,2,0c1.1,1.4,0.9,1.5,3,2c1.9,0.5,1,0.4,3,0c2.2-0.5,4.5,0.2,7,1c2.8,0.9,4.2,1.9,7,4
		c0.9,0.7,1.7,1.7,3,2c-0.1,4.1,0.8,7.2,4,8c0,1.7,0,3.3,0,5c-0.1,2.4,3.7,1,5,2c0.2,0.2-0.3,1.9,0,2c1.6,0.6,3.9-0.4,6,0
		c0.1,0,0.2,1,1,1c0.3,0,0.8-0.1,1,0c1,0.4,2,1.5,5,1c-0.7,2.7,2,2,2,4c6.6-0.3,9.7,3,17,2c-0.2,1.2,1.5,0.5,2,1
		c3.4,3.2,5.6,7.9,13,7c0.6,3.8,2.1,6.2,2,9c-0.4,8.1-9.3,10.8-11,18c-2,0-1.3,2.7-4,2c-0.3,6.7,1.2,15.2-3,18c1.2,7.2-4.5,7.5-4,14
		c-1.9,0.4-4.3,0.4-4,3c-4-0.7-5.7,1-9,1c-1.2,0.4-2.1,1.3-2,3c-5.2-2.5-8.2,3-12,5c-0.8,4.1-0.2,3.4,0,8c-0.4,3.3-3,4.3-5,6
		c-0.6,1.4-0.3,2.6-1,4c-0.2,0.4-1.8,0.6-2,1c-0.2,0.5,0.3,1.6,0,2c-0.4,0.5-2.4,0.6-3,1c-1,0.7-2,2.4-3,4c-1.4,2.2-5.2,5.8-8,8
		c-5.1-0.8-6.5,0-11-2c-0.3,1.2,1.7,0.5,2,1c0.6,0.9-0.5,3,0,4c0.5,1,1.8,0.8,2,2c-1.3,7.7-9.1,8.9-18,9c-1.5,1.5-2.1,3.9-2,7
		c-3.3,1.7-6.4,0.6-10,0c-1.1,6,3.8,2.1,5,4c1,4-2.9,3.1-5,4c-1.3,2.4,0.1,1.9-1,5c-1.9,0.4-2.5,2.2-5,2c-2.3-0.3-1.1,2.9-3,3
		c1.8,1.5,3.1,3.6,7,3c1.2,7.2-7.8,4.2-7,11c-2.3,0.3-4.3,1-5,3c-1.5,2.4,1.5,2.8,2,4c0.8,1.7,0,2.8,1,4c3.1,4,8.3,5.6,16,5
		c-0.2,1.4-3,0.3-3,2c-1.4-0.7-4.4-0.3-6,0c-0.8,0.2-0.8,1-1,1c-0.6,0.1-1.4-0.8-1-1c-2.5,1.2-1.2,2-3,3c-1.8-0.6-3.5-0.7-5-1
		c0.2,0-0.5-1.7-1-1c-1,1.3-0.3,0.2-1,0c-2.2-0.5-5-0.1-7-1c-0.5-0.2,0.1-0.9-1-1c-1-0.1-0.8-1.2-1-2c-1.2-0.4-2.9,0.5-4,0
		c-0.5-0.2-0.6-1.8-1-2c-0.5-0.2-1.6,0.3-2,0c-0.8-0.6,0.4-1.6-1-2c-0.6-0.2-1.4,0.1-2,0c-0.4-1.7,0.8-1.9,2-2c-0.2-1.8-3.4-0.6-4-2
		c-1-1.3,1-3,1-3c-0.2-1.1-1.8-0.7-2-2c-0.3-2.7,0.2-5.7,0-10c0.6-1.4,3.8-0.2,4-2c-1.5-2.3-2.4-1.5-5-1c-1-2.3,2.2-2.1,3-3
		c0.3-0.3-0.3-1.7,0-2c0.8-0.6,1.9-0.7,2-2c-0.4-1.5-1.3,0.4-3,0c1-1.4,2.7-2,4-3c0.8-2.8-1.4-2.6-1-5c2.2-2.6,1.2-5.6,2-8
		c0.5-1.4,0.7-2.6,2-4c-1.8-3.9-0.9-7.4,1-11c0.3-0.5,0.8,0,1-1c0.1-0.5-0.3-1.5,0-2c0.2-0.4,1.9-0.7,2-1c0.2-0.6-0.1-1.4,0-2
		c0.2-0.7,1.7-3.2,2-5c0,0.3-1.1-0.4-1-1c0-0.1,0.9-0.2,1-1c0.2-2.3-0.2-4.6,0-7c0.2-2.4,1.7-3.8,0-7c3.4-3.6,3.3-12.1,4-19
		c0.3-3,2.4-12.9,0-17c0.6-2.2-2.9-1-3-3c0-0.3-1.7-1.7-2-2c-0.2-0.2-4.6-2.9-6-3c-0.5,0-1.5-0.7-2-1c-2.6-1.2-5.3-3.8-8-6
		c0.2-2.2,0-3.5-1-5c-0.4-0.6-1.2-4.9-4-5c-0.8-6.5-4.7-10-7-15c-0.7-2.3-3-3-5-4c-0.5-1.5,1.2-5.2-1-5c0.1-2.9,2.3-3.7,4-5
		c0.1-3.1-3.1-2.9-2-7c-0.1-4.1,4-4,3-9c1,0,2,0,3,0c1.3-3.7,3.6-6.4,7-8c-1.3-3-0.1-6.4-1-10c-0.7-2.7-3.4-4.7-3-8
		c-1.6,1.3-4,1.3-2-1c-5.1,0.3-2.3,3.4-4,6c-2,0.3-3.1-0.2-3-2c-3.3,0.6-4.4,2-3-2c-3.7,0.1-2.9,1.1-6,0c-0.7-4-4.7-4.6-8-6
		c-2.1-9.6-10.2-13.2-21-14c-2.9-2.8-5.9-5.5-9-8c-3.6-0.6-4.8,1.2-7,2c-3.9-0.8-8.2-1.1-10-4c-2.6,0.4-4.8-0.6-7-2
		c-0.6-0.4-4.9-2.9-7-3c-3.4-0.2-4.9-4.2-9-5c0.2-1.2-0.2-1.8-1-2c-0.2-4.2,1.6-4.7,0-8c-1.4-2.2-3.4-4.2-6-6c-0.6-0.4,0.2-0.9-1-1
		c-2-0.1-1.2-2.2-3-4c-0.3-0.3-1.7,0.3-2,0c-1-1.3-2.6-2.2-1-4c-1.4,0.5-1.5-0.6-2-1c-0.8-0.6-1.4-1.3-2-2c-0.4-0.5-1.2-0.9-1-2
		c-3.7,0.4-2.6-4.1-7-3c1.2-3.7-1.1-9.4-6-10c-3,0.7,1,2.1,0,4c1.2,3.5,2.9,1.8,5,3c-0.4,2.1,0.7,2.6,1,4c1.9,1.5,1.5,5.2,5,5
		c0.1,3.6,2.5,4.8,3,8c0.2,1.2,1.8,0.8,3,1c0,2.4,1.7,2.9,1,6c-3.8,0.8-3.4-2.6-5-4c-3,0-3.9-2.1-6-3c0.5-0.8,1-1.6,1-3
		c-1.6-2-3.3-4-7-4c-0.4-3.3-5.3-2-5-6c3.2-1.2,0.8,3.2,4,2c1.8-2.3-0.8-3.6-3-5c-0.6-0.4,0.2-0.9-1-1c-1.4-0.1-0.5-2-1-3
		c-0.2-0.5-1.8-0.6-2-1c-0.7-1.4-0.2-2.6-1-4c-0.2-0.4-1.8-0.6-2-1c-0.7-1.5,0-3.7-2-5c-4,0.3,1.1,3.5-3,3c-0.6-3.2,1.9-3.1,0-5
		c-3.1-0.7-2.9,1.7-6,1c-1-1.3-1-3.7-2-5c-1-1.4-2.7-2-4-3c0.8-1.7-0.7-2.4-1-3c-0.3-0.6-0.5-2.3-1-3c-0.9-1.3-3.3-1.9-4-3
		c-1.2-1.9,0.1-5.1-3-6c2-2.8-0.2-6,0-9c0.2-3.5,2.1-7,2-10c-0.1-4.5-2.8-6.3-3-11c-5.2-1.2-8-4.7-13-6c-0.6-2.2,1.9-1.4,2-3
		c-1.1-0.9-0.3-3.7-3-3c0.3-1.2-1.6-0.5-2-1c-0.3-0.4,0.3-1.7,0-2c-1.5-1.2-3.3-0.8-5-2c-1.4-2.3,2.6-3.8,0-4c-0.5,1.5-1,0.1-1-1
		c-1.2,0.2-1.8-0.2-2-1c-1,0.6-1,2.3-3,2c-2.5-0.8-5.4-1.3-5-5c-1.1-0.5-3,0.6-4,0c-0.3-0.2,0.3-1.8,0-2c-0.7-0.6-2.9-0.8-3-2
		c-0.1-2.4-3-0.7-3-4c-1.9,0.2-2.8-0.3-4-1c-1.7-1-1.3-1.3-4-2c-0.9-0.2-1.7-0.7-3-1c-0.9-0.2-2.3-0.4-5-1c-2.1-0.5-8.1-2.2-13,0
		c0.2-0.8,1-1,1-2c-3.5,0.5-9.5-1.5-10,2c-6.5-3.3-9.8,2.9-17,2c-0.2-2.5,1.6-3.1,2-5c-2.9,0.5-3.1,3.5-7,3c-0.1,1.8,1.2,2.1,1,4
		c-2.7-0.9-1.8,1.9-4,2c-0.8,0-4.5,1.2-6,2c-1,0.5-0.3,1.5-1,2c-0.4,0.3-1.5-0.1-2,0c-0.9,0.2-2.3,1.2-4,2c-0.5,0.2-1.6,1.9-2,2
		c-0.9,0.3-2.1-0.2-3,0c-0.2,1.2,0.2,1.8,1,2c-0.9,2.4-5.6,0.4-6-1c-2.2,0.8-3.9,2.1-7,2c0,1,1.2,0.8,2,1c-0.2,1.3-2,1-2,0
		c-3.8-0.8-4.8,1.2-8,1c-0.4-4.3,5.2-2.5,8-4c0.5-0.3,1.6-1.9,2-2c1.2-0.4,4.8-1.4,5,0c1.2,0.2,0.5-1.5,1-2c0.3-0.3,1.7,0.3,2,0
		c0.7-0.8,0.8-0.7,2-1c0,0,2.9-0.9,3-1c0.5-0.6,2.6-1.9,3-4c-0.6-3.2-3,0.6-5,0c-0.8-0.3-0.6-1.9-2-2c-2.7-0.1-5.3,1.7-9,1
		c0.9-2.3,0.9-2.7,0-5c-2.4-0.4-2.2,1.8-5,1c-4.5-0.5-5.3-4.7-9-6c0.1-3.9,4.1-3.9,5-7c5.4,0.8,7.7-1.6,13-1c0.7-2.7-2-2-2-4
		c-0.6,0.6-1.3,0.5-2,1c-1.6,1-2.6,0.2-7,0c-2.1-0.1-4.9,0.3-6,0c-3.4-0.8-5.7-4.1-8-4c1.5-2.5,4.8-2,8-3c1.3-0.4,2.6-1.2,6-1
		c2.9,0.2,5.1,2.3,8,2c-0.6-3.5-4.7-2-7-3c-0.3-0.1,0.3-1.8,0-2c-0.6-0.4-3.4-0.6-5-1c-1.8-0.5-3.5-1.7-5-1c-0.1-4.8,6.9-2.4,10-4
		c0.8-0.2,1-1,2-1c1-1,2-2,3-3c3.2-0.9,8.1,0.3,11-3c0.8,0.6,1.6,0.9,3,1c2.1,0.1,4-1.9,6-2c2.7-0.1,4.5,0.1,8,1c1.9,0.5,1,0.4,3,0
		c0.8-0.2,2.2-0.1,3,0c2.4,0.3,1.7,1.6,4,2c3.1,0.6,7.5-0.3,12,0c1.6,0.1,1.7,0.8,3,1c2,0.2,4-0.2,6,0c3.7,0.4,3.3,0.4,7,0
		c0.9-0.1,2.1-0.1,3,0c2.2,0.2,4.5,1.7,7,2c2.1,0.3,4.9-0.4,7,0c3.3,0.6,6.8,2.5,10,3c1.6-1.4,3.9-2.1,6-3c6.5,2.8,13.1-4.4,20-1
		c3.1,0.7,1.9-2.7,5-2c3.5,0.2,3.8,3.5,7,4c1.9-0.1,0.7-3.3,3-3c2.7-0.7,1.9,2.1,3,3c3.1-0.7,3.3-2.5,8-2c0.4,0,4.4,0.3,5,1
		c1.4,1.7,10,0.9,13,3c3.1-1-2.2-1.6-2-3c-1-3,2.2-1.8,4-2c-0.7-2.3-5.6-0.4-8-1c0.2-4.6-5.1-3.6-1-7c-1.4,1.3-3.2,0.9-5,2
		c-0.6,0.3-0.5,1.6-1,2c-0.4,0.3-1.7-0.3-2,0c-1,1.2-2,0.7-4,1c-2.4,0.3-3.3,1.7-6,0c-0.4-0.2-1.7-1.9-2-2c-2.4-0.6-3.8,0.5-6,0
		c-0.2-2.2,0.8-3.2,3-3c-0.5-3.3,5.6-4.3,1-6c2.4-2.5,6.5-0.1,10-1c1.9-0.5,2-0.6,6,0c1.7,0.3,2.2,0.9,4,1c2.2,0.2,2.6-1,4-1
		c1.6,0,1.7,0.8,3,1c2,0.4,2.6,0.6,4,1c0.5,0.1,1.5-0.3,2,0c0.3,0.2,0.8,1.9,1,2c1.4,0.5,3.7-0.6,5,0c0.2,0.1-0.2,2,0,2
		c0.8,0.2,3.1-1.4,6-1c1.3,0.2,3.2,0.3,4,2c1.1-0.2,0.7-2,2-2c3.5-0.8,3.8,1.5,7,1c-0.7,2.7,2,2,2,4c2.4-0.9-2.3-3-1-6
		c2.5,1.6,4-1.7,6-2c3-0.5,4.9,0.2,8,1c0.7,2.7-2.1,1.9-3,3c0.9,0.7,0.6,2.9,2,3c1.5,0.1,0.6,2.5,2,4c5.4-0.4,7.8,2.2,12,3
		c0.5,3.1-2.5,3.6-4,2c1.2,1.5,1.2,2.5,0,4c-1.3-1.1-7.9-2-9,0c0.4,2.1,2.7-0.2,4,0c-0.2,0,0.6,0.9,1,1c1.6,0.4,2.2,0.9,4,1
		c3.3,0.2,6.7-2.4,11,0c0.6-2.6-0.4-3.6-3-3c0.4-2.9,3.4-3.2,5-5c2.6,0.1,4.8,0.6,6,2c2.4-0.8-2.8-2.5-1-6c2.1-0.6,3.2-2.1,5-3
		c0-1.5-0.6-1.9-1-3c-0.1-0.2-0.9-2.7-1-2c0-0.3,1.8-2.5,2-2c-0.8-1.9-1.5-1.9-3-3c-1.1-0.8-1.2,0-2-1c-0.3-0.4,0-1.3-1-1
		c0.4-2.2,4.9-0.4,7-1c-0.1-3.3-4.5-2.1-7-3c-1-3,2.2-1.8,4-2c-2-2.7-7.2-2.1-9-5c-0.8-4,4.1-1.2,6-1c2.1,0.2,4.7-0.4,6,0
		c1,0.3,0.3,2.6,1,3c2.1,1.3,8.1-1.7,6,2c-3,0-6,0-9,0c1.7,2,4.6,0.8,7,1c3.3,0.3,7,1.8,11,1c-0.2-1.2-2.5-1.1-3-2
		c-0.3-0.4,1.5-2.2,0-3c-2,0-4,0-6,0c-0.3-2.4-4.7-0.6-4-4c-3.9,2.3-4.6-1.2-9-1c-0.7-3.1,2.7-1.9,2-5c3.1,0.5,4.4-1.7,7-2
		c6-0.7,10.9,2.8,17,3c-1.7-2-4.7-2.7-8-3c0.2-1.4,3-0.3,3-2c5.4,0.4,11.8,0,16-1c0.8-0.2,3.5,0.5,4,0c1.6-1.6,2.7,0.4,7,0
		c1.7-0.2,2.3-0.6,4-1c3.6-0.8,9-0.6,15-1c2.2-0.1,8.1-2.2,13-1c2.1,0.5,1.7,0.4,5,0c4.9-0.5,10.2-0.2,15,0c1.6,0.1,1.7,0.8,3,1
		c7.7,0.9,16.1-1.1,24,2c-0.2,1.4-3,0.3-3,2c-3.6,0.3-6.1-0.2-10,1c-0.3,0.1,0,0.9-1,1c-0.3,0-0.8-0.1-1,0c-2.9,1.1-9.4,1.7-14,3
		c-0.1,0-0.3,0.8-1,1c-0.6,0.2-1.4-0.2-2,0c-1.4,0.5-2.6,1.7-4,2c-3.1,0.6-6.7-0.3-10,1c-1.9-0.3-1.5,2.6-1,2c-1.7,2-3.2,0-4,3
		c-2.7,0-5.3,0-8,0C363.6,21.7,364.3,24.4,361.2,23.3z M327.2,11.3c-0.8,0.2-2,0-2,1C326,12.1,327.2,12.3,327.2,11.3z M332.2,11.3
		c0.4,0.1-2.1,1.8-2,2C333.3,15.4,334.9,12.3,332.2,11.3z M320.2,20.3c-1.5,3.8,4.5,0.2,3,4c2.5,0.1,4.1-0.5,5-2
		c-3.4-1.1,2.8-0.3,1-3C324.9,19.2,323.6,22.1,320.2,20.3z M349.2,27.3c-0.2,0.2-1.7,0-2,0c-7.9,1-15.9-0.7-23,0
		c0.3,0.4-0.3,1.7,0,2c0.5,0.5,1.4-0.9,1-1c1.2,0.4,1.4,0.8,3,1c4.6,0.4,10.6-0.9,13-1c4.6-0.3,9.7,1.1,12-1
		C351.4,25.6,349.8,26.6,349.2,27.3z M354.2,29.3c2.3,0.3,3.8-0.2,4-2C355.9,27,354.4,27.5,354.2,29.3z M336.2,41.3
		c-1.4-2.3,2.6-3.8,0-4C335.3,39.1,332.9,40.4,336.2,41.3z M356.2,40.3c-2.9,1.1,1.5,1.1,1-1C355.1,38.2,355.1,38.2,356.2,40.3z
		 M234.2,47.3c-1.2,0.2-2.8-0.2-3,1C232.4,48.1,234,48.5,234.2,47.3z M239.2,47.3c-0.7,0-1.3,0-2,0C231.7,47,239.4,50.1,239.2,47.3z
		 M300.2,54.3c-1.1,0.9-1,5,0,4c0.1-3.2,4.5-2.2,6-4c-0.8-0.2-2,0-2-1c0-1,0.8-1.2,1-2c-1,0-2,0-3,0c0,1-0.8,1.2-1,2
		C306,54.1,300.8,53.8,300.2,54.3z M252.2,55.3c0.3,1.2,4.4,3.4,5,1c-3.8,1.4-1.9-2.7-5-2c-3.7,1.6-9.8,0.8-15,1
		c1.3-3.4-5.1-4.1-6-2c2.9-0.2,5.5-0.1,5,3c-0.8,0.2-2,0-2,1C241.1,57.6,247.3,57,252.2,55.3z M263.2,52.3c-0.8,0.2-2,0-2,1
		C262,53.1,263.2,53.3,263.2,52.3z M268.2,53.3c-0.8,0.2-2,0-2,1C267,54.1,268.2,54.3,268.2,53.3z M338.2,62.3c-0.8,0.2-2,0-2,1
		C337,63.1,338.2,63.3,338.2,62.3z M119.2,82.3c-0.8-0.8-2.9,0.7-3,1C115.1,85.3,119.9,83,119.2,82.3z M371.2,163.3
		c0-0.6-0.8-1.1-1,0C370.2,163.9,371,164.4,371.2,163.3z M420.2,261.3c-2.3,0.6,1.6,1.4,2,0c0.4-1.3-0.9,0-1,0
		C420.9,261.4,420.5,261.2,420.2,261.3z M386.2,262.3C385.4,268.4,390.8,263,386.2,262.3L386.2,262.3z M380.2,456.3
		c-0.3-2.7,4.2-8.9,0-9C381.5,451,377.2,454.2,380.2,456.3z"/>
	<path fill-rule="evenodd" d="M987.2,25.3c1.1,0.2,0.6,1,0,1c0.9,2.8,3.5,0.2,5,0c2.2-0.3,5.2,0.6,7-1c1.3-1.2,0.8-1.5,3-2
		c2.3-0.6,5.6-2.5,10-2c2,0.2,6,0.5,7,1c0.8,0.3-2.1,1.2-2,1c-0.4,1.1,3,1,4,1c1-0.6,1-2.3,3-2c0.3,1.6-0.9,1.7-1,3
		c8.5,1.1,22.9-3.5,23,6c-2.4,0-2.9,1.7-6,1c-0.2,2.2,3.5,0.5,5,1c-0.5,0.8-1,1.6-1,3c6.4-0.1,12.6-1.3,18,0c1.5,0.4,2,0.2,2,2
		c4-1.9,8.1,0.9,14,0c1-1,2-2,3-3c5.7,1.3,13.4,0.6,19,2c0.1,2.8,3.8,4.2,1,7c1.8,0.9,5,0.3,6,2c2.3-0.7,2.7-3.3,5-4
		c2.5-0.2,3.1,1.6,5,2c4.9-1.4,11.7-1,18-1c1.5-0.4-0.4-1.3,0-3c1.6-0.4,3.5,0.5,5,0c1.1-0.3,1-2.5,3-2c-1.2-3-3.4,1.1-6,0
		c-0.4-1.7,0.8-1.9,2-2c-0.1-1.4-0.2-2.8,1-3c0.5,0.4,2.6-0.5,3,0c0.2,0.2-0.2,1.9,0,2c3.3,1,8.9-1.6,9,3c-2.7,0-5.3,0-8,0
		c0.9,1.9,4.6,1,6,1c2.2,0,4.1-0.1,6,0c1.6,0.1,1.7,0.9,3,1c5.4,0.5,11.1,0,16,1c-0.3,1.4,0.4,1.5,1,2c1.2,0.9,4,0,5,1
		c0.7,0.7,1.8,1.8,3,2c1.6,0.2,1.7-0.8,3-1c5.3-0.6,14.8-0.7,20,0c0.1,0-0.1,0.9,0,1c0.5,0.5,2.4-0.4,3,0c0,1.3,0,2.7,0,4
		c11.8,0.1,23.5,0.1,34-1c-2.8,2.4-1.4,4.1,3,4c2.5-1.2-3.3-2.4,0-5c11.6,1.7,26.7-0.1,35,5c0,4.3,0,8.7,0,13c-1.6,1.4-3.9,2.1-6,3
		c0.5,3.2,3.8,3.5,4,7c-4.8,0.9-8.3-0.4-14,1c-0.8,0.2-0.7,0.9-1,1c-3.8,1.1-7.1,1.3-11,3c-0.3,0.1-0.2,0.8-1,1
		c-2.4,0.6-4.5,0.8-6,3c-2.5,0.2-3.1-1.6-5-2c-5.4-0.8-7.3,2.1-11,3c0-0.2,0-2,0-2c-2.7,0.1-3.6,3.2-7,1c-1.7,0.4-1.9,1.8-3,3
		c-1.1,1.2-1.7,1.9-3,3c0.9,1.5,1.5-0.3,4,1c1.2,1.9-1.9,1.6-2,2c-0.8,2.8,2.7,0.6,2,5c-1.7,0-3.3,0-5,0c-0.5,3.1,2.2,3.9,0,6
		c-4-1-7.6-0.9-7,5c-2-1.7-1.3,0.1-4,0c-1.4,1.2-1.5,3.8-3,5c-4.4,0.6-7.2,7-11,5c0.8-0.9,1.1-2.3,1-4c2.4-0.4,2.2,1.8,5,1
		c-1.9-6.1-4.8-11.2-4-20c1.7-1.3,3.9-2.1,4-5c3.6,0.3,4.8-1.8,8-2c2.1-0.2,2.4-2.9,4-4c0.4-0.3,1.7,0.3,2,0c0.1-0.1-0.1-0.9,0-1
		c0.4-0.2,1.8,0.3,2,0c0.1-0.1-0.1-0.9,0-1c0.4-0.2,1.7,0.3,2,0c0.3-0.3,0.7-1.8,1-2c1.6-1,2.9,0.1,5-2c0.7-0.7,2-1.7,2-4
		c-4.5,0.1-1.3,2.3-3,4c-3.8-2.6-6.6,2.9-11,3c-0.8-0.9-1.1-2.3-1-4c-2.1,0.1-4.4-1.3-9,0c-1.3,0.4-1.2,1.4-2,2
		c-0.4,0.3-1.7-0.3-2,0c-0.5,0.6-2.7,3.5-5,3c-1.2,3.2,3.2,0.8,2,4c-5.9-0.6-8.9,1.8-15,1c0.6-3.5-1.8-0.3-1,0c-1.7-0.7-0.4-2.1-3-3
		c-2.7-0.7-2,2-4,2c-1.2,0.8-1.7-1-2-1c-0.2,0-3.2,2-4,1c-1.4-1.7-1.3,0.1-3,0c-4.3-0.2-8.7-2.1-13,0c-1.5,0.7-3,1.8-5,3
		c-1.1,0.7-1.9,1.3-3,2c-1.1,0.7-2.1,1.1-3,2c-0.9,0.8-2.2,1.2-3,2c-0.9,0.8-2.2,1.2-3,2c-0.7,0.6-5,3-8,3c2.8,3.3,5.4-1.9,9-1
		c2.4,2.4-1.5,1.9-1,5c0.5-0.4,2.6,0.5,3,0c0.2-0.2-0.2-2,0-2c1.5-0.4,2.4,2.1,6,1c0.5,2.8,5.2,1.4,4,6c1.9,0.3,0.2-3.3,1-4
		c1.8-1.6,3.9,1.3,2-3c2.5-0.2,2.4,0.6,3,3c0.4,1.5,0.9,6.8,2,10c1.1,3.1,3.5,5.2,4,8c-3.1,0.7-1.9-2.7-5-2c-2.1,0.3-0.9,3.7-3,4
		c1.3,1.1,1,2.4,2,4c0.4,0.7,1.5-0.1,2,1c0.3,0.9-0.3,2.1,0,3c-1.7,0.4-1.9-0.8-2-2c-3.1-0.7-1.9,2.7-5,2c0.5-1.8-0.6-3.6,0-6
		c0.1-0.4,1-1.2,1-1c0.1-1.6-1-1.7-1-3c0-1.3,2.9-7.2,1-10c-0.3-0.4-2.5,0.2-2-1c-3.2,1.1-3.2,5.5-3,10c-1.2-0.2-0.5,1.5-1,2
		c-1.7,1.9-4.2,2.8-6,5c-1.4,1.6-1.6,3.6-3,5c-0.8,0.8-2,0.3-3,1c-2.3,1.6-4.2,5.8-6,7c-1.2,0.8-2.6,0.4-4,1c-0.4,0.2,0.1,0.9-1,1
		c-1.2,0.1-1.8,0-2,1c-1.3-1-3.7-1-5-2c-2.5,1.2-3.3,4-7,4c0,1.3,0,2.7,0,4c-2.1,1.9-5.1,2.9-8,4c2.3,3,4.9,5.8,7,9
		c-0.4,5.4-0.1,7.8-1,11c-1.2-0.2-0.8-1.8-1-3c-3.1,1.2-6.3,2.3-11,2c-0.8-1.7,0.7-2.4,1-3c0.4-0.9,1.4-3.6,0-5c-1.2-1.2-1-1.9,1-2
		c-0.1-2.6-3.3-2-6-2c-1.9-1.8,0.4-2.9,1-5c-4.4-5.1-10.6,0.9-15,2c-1.2-2,1.9-1.5,2-2c0.2-0.5-1.7-2-1-3c0.5-0.8,3.5-0.1,3-2
		c-0.8-0.1-1-1.1-2-1c-1.1,0.1-0.5,0.8-1,1c-2,0.8-5.6,2.2-7,5c-3.2-0.6-3.1,1.9-5,0c-1.4,5,6.7,0.6,5,6c2.1,0.5,2.6-1.8,4-2
		c2.5-0.5,5.3,2,9,1c0.3,3.7-3.6,3-6,4c-1.9,1.8-3.8,3.6-6,5c0.1,1.2,1.3,1.3,2,2c1.3,1.3,2.4,2.8,3,6c1.3,2,4.8,1.8,4,6
		c0.5,2.1-1.4,1.9-3,2c0.3,2.1,4.4,0.3,5,2c-1,2.3-3.4,3.2-3,7c-3.3,0.3-3.5,3.8-6,5c-0.7,3.1-0.7,1.9,0,5c-3.1,0.1-3.5,1.7-6,4
		c-0.9,0.8-2.4,2.5-3,3c-1,0.8-3-0.8-3,1c0,2.3-7.9,0.3-8,3c-0.1,1.8-4.7-1.8-5,3c-3.3-1.6-3.8,0.2-8,0c0.2,1.2-0.2,1.8-1,2
		c-0.6,2.2,1.9,1.4,2,3c-1,4.8-3.6,8.2-9,6c-1.5-5.5,3-5,4-8c-0.2-0.8-1-1-1-2c0.2-2.2-3.5-0.5-5-1c-0.7,0.7-1.1,1.4-2,2
		c-0.8,0.6-2.1,0.4-3,1c-0.6,0.4-0.1,2.9-2,2c0.1,1.4,0.2,2.8-1,3c2.2,2.5,4,6,7,9c0.3,0.3,1.7-0.3,2,0c0.2,0.2-0.2,0.8,0,1
		c0.4,0.5,0.6,0.6,1,1c1.1,1.2,1.4,1.6,2,4c0.2,0.9,0.4,2.3,1,5c0.4,1.7,1.2,3.6,0,7c-2.4,1.9-4.8,3.8-8,5c-3.2,1.8-4.8,5.2-9,6
		c0-2,0-4,0-6c-1.2-0.2-1.8,0.2-2,1c-1.9-0.4-0.8-3.9-4-3c1.7-2.7-2.1-2.8-3-4c-0.5-0.6-0.3-2.8-1-3c-0.6-0.2-2.5,1.8-4,1
		c0-1.3,0-2.7,0-4c-2.6,0.1-2,3.3-2,6c-2,1.7-2.7,4.7-3,8c0.4,1.4,1.8,0.1,2-1c1.9,1.8,1.3,6,3,8c-0.3,2.7,2.6,1.1,4,2
		c0.3,0.2-0.3,1.8,0,2c0.8,0.7,2.3,0.2,3,1c0.6,1.4,1.6,2.4,3,3c0,2.7,0,5.3,0,8c0.2,1.3,2,1,2,0c1.8,1.2-0.8,5.9,3,7
		c-1.8,1.9-5.4,1.9-4,7c3.9,0.7-0.9-4.2,4-4c3,2.9-2,2.2-1,6c0.9,2.7,3.1-1.4,6,0c-0.5,7,4.8,3,8,5c-0.9,3.8-4,0.7-7,1
		c-3.3,0.4-1.6,5.8-2,9c0.1,2.2,4.2,0.4,6,1c0,1.4,2,0.5,3,1c0.9,0.4,1.4,3.3,5,2c1.7,0.4,1.9-0.8,2-2c3.7,2,9.9,1.5,14,3
		c-0.9,1.1-1.9,0.3-5,1c0.2,2.3,3.2,0.2,5,1c0.3,0.1,0.8,2,1,2c0.5,0.1,1.8-1.1,3-1c-0.4,0,0.7,0.9,1,1c2,0.5,4.4-1.1,7-1
		c0.3,0,1.9-0.2,2,0c0.1,0.1-0.1,1,0,1c0.8,0.1,2.3-0.9,2-1c0.4,0.1,1.2,2,1,2c1.7,0.2,2.2-0.9,4-1c1.7-0.1,3.9,1.1,5,1
		c2-0.3,3-2,5-2c2.1,3,5.8-1.9,7,2c1.7-1.7,2.6-4,6-4c0.3,2.6-1.4,3.3-4,3c1.2,3,3.4-1.1,6,0c0.3,3.7-3.6,3-6,4c-2.2,0.1-2,2.7-4,4
		c-0.7,0.4-2.2-0.2-3,0c-1.1,0.3-0.7,1.9-2,2c-4.7,0.2,0.5-2,1-3c0.2-0.4-0.3-1.7,0-2c1.5-1.6,4-2.4,5-3c-0.5-1.3-3-0.6-6,0
		c0.2,0-10,3-12,1c-0.8-0.8-1-0.2-3,0c-1,0.1-2-0.2-3,0c-3.5,0.6-5.2,0.2-11,0c0.2,0-0.5-1.6-1-1c-1.7,2.1-3.1-0.6-6-1
		c-2.2-0.3-4.9,0.3-7,0c-1.6-0.3-3.4-1.7-5-2c-3.8-0.7-8.2,0.3-12-1c-0.2-0.1,0.2-1.8,0-2c-1.2-0.9-4.7,0.7-5-1c0.2-1.4,3-0.3,3-2
		c-0.1-2.2-4.2-0.4-6-1c-0.9-0.7-0.6-2.9-2-3c-1.3-0.1-1.3-1.7-2-2c-0.4-0.2-1.7,0.3-2,0c-0.8-0.8-0.3-2-1-3c-0.8-1-3.2-2.5-5-4
		c0.4-2.1-0.7-2.6-1-4c-1.9-1.5-1.5-5.2-5-5c0.1-3.1-1.2-4.8-2-7c-3.1-0.7-1.9-0.7-5,0c0-1,1.2-0.8,2-1c-1.1-6.2-9.5-5.2-9-13
		c3.4,0.6,5.1,2.9,10,2c0.8,1.6,1.6,3.6,3,5c0.8,0.8,3,1.2,4,2c0.8,0.7,1.2,2.5,2,3c1.3,0.8,2.9,0.2,4,1c0.8,0.6,0.9,1.7,2,2
		c1.5-0.4-0.1-0.9,0-2c-3.7-0.3-3-5-6-6c-0.3-2.8-0.3-5.1-1-7c-0.5-1.2-1.4-0.2-2-1c-0.3-0.4,0.1-1.5,0-2c-0.4-1.5-2-1.1-2-4
		c-1.2-0.2-1.8,0.2-2,1c-1.4,0-1.5-4-1-6c0.1-0.3,1-1.4,1-1c-0.1-0.9-2-0.8-2-1c0-0.6,4.6-2.8,0-3c0.1-1.2,2.6-1.1,3-2
		c0.7-1.6-2.2,0.5-3-1c2-6.9-1.3-11.2-2-18c-4.2-0.2-4.2,3.8-8,4c-0.2-1.8-3.4-0.6-4-2c1.3-2.8,2.5-4.9,1-8c-0.2-1.2-1.8-0.8-3-1
		c-0.4-0.7,0.5-2.3,0-3c-0.8-1-2.2-1.1-3-2c-0.3-0.3,0.3-1.7,0-2c-1.1-0.9-3.3-2.2-3-6c-1.3,1-3.7,1-5,2c-1.5,0.5-5.2-1.2-5,1
		c-3.2,0.6-3.1-1.9-5,0c-1.4,1.2-1.5,3.8-3,5c-0.5,1-2,0.4-3,1c-2.5,1.5-3.9,4.1-6,6c-2.2,2.1-6.1,2.4-6,6c-4.5-1.5-3.1,2.9-7,2
		c-1.8,2.9,0.5,6.1,0,10c0,0.3,0.2,1.8,0,2c-0.1,0.1-0.9-0.1-1,0c-0.2,0.4,0.3,1.8,0,2c-2.1,1.7,0.9,4.1-1,6c-0.2,0.2-1.9-0.3-2,0
		c-0.4,0.8,0.3,2.2,0,3c4.4,0.7-0.8-2,2-2c1.8,0,3.1,0.2,4,1c0.3,0.3-0.3,1.7,0,2c1.7,1.4,3.9,3.5,4,8c-1.6,2.1-3.7,3.6-8,3
		c-0.3-3.3-2.3-8.2,0-11c-5.5-1.5-5.4,2.6-8,4c-7.1-1.3-4.5-12.2-10-15c0.3-3.6-1.8-4.8-2-8c-1.2-1.5-1.7-2.9-3-5
		c-0.8-1.2-0.5-2.7-1-6c-0.3-2.3-1.8-4.5-2-6c-0.4-3.3,1-6.3,0-9c-1.7,1.7-2.6,4-6,4c-2,0.1-10.2-6.7-5-7c-1.2-1.6-2.6-1.1-4-2
		c-0.9-0.5-1-2.6-3-2c-1.1-2.6-2.5-4.8-5-6c-1.7-0.9-3.2,0.8-5,1c-1.7,0.1-1.7-1-3-1c-0.6,0-1.8,0.8-3,1c-2.1,0.3-4.8,0.1-7,0
		c-2.8-0.2-9.1-1.8-14-2c0.8-2.8-1.4-2.6-1-5c-7.3,5.4-15.8-1.1-21-4c0.3-3.6-3-3.7-3-7c-2.7,1.6-4.3-0.5-7,2c1,3.1,2.5,4.9,5,7
		c0.3,0.2,0.7,1.9,1,2c0.4,0.2,1.8-0.3,2,0c0.8,1,0.5,2.7,1,4c0.9-0.8,2.3-1.1,4-1c0.1,2.5,0.2,4.8-1,6c3.2,0.3,6,1.2,9,0
		c1.9-0.7,2.6-2.7,4-4c0.8-0.7,2.1-0.3,3-1c0.6-0.5,0-2.8,2-2c-0.7,6.4,1.6,9.7,8,9c1,2,2.5,3.5,4,5c1,4.7-4,3.3-3,8
		c-2,1.7-1.3-0.1-4,0c0,1.7,0,3.3,0,5c-5.3-1.3-2.7,5.3-8,4c-1.2,0.2-0.8,1.8-1,3c-6,0-10.6,1.4-12,6c-2.7,0.4-5.4,0.8-8,2
		c-1.1,0.5-1.2,1.4-2,2c-0.4,0.3-1.7-0.3-2,0c-1.1,1.3-2.1,0.4-4,1c-0.5,0.2-1.6,1.9-2,2c-1.2,0.3-2.8-0.4-4,0c-1,0.3-1.4,1.7-2,2
		c-0.9,0.3-2.1-0.3-3,0c-1.9,0.6-2.6,1.5-4,3c0.9,1.8,2.2,3.1,4,4c4.9-0.2,9.5-2.2,14-3c1.3-0.2,2.7,0.3,4,0c2.2-0.5,4.4-2.8,7-2
		c0.1,1.8-1.1,2.1-1,4c0.1,0.9,1.4,1.6,1,3c0,0.2-1.9-0.2-2,0c-0.8,2,0.2,3.2-1,5c-1.1,1.7-2.7,5.4-5,7c-0.1,1.5-0.2,3.4-1,5
		c-0.2,0.4-1.8,0.6-2,1c-0.2,0.5,0.3,1.6,0,2c-1,1.4-3.5,2.5-5,4c-1.5,1.5-2.9,4.1-4,5c-0.9,0.7-2.2,0.3-3,1c-4.5,3.7-9.2,7.6-12,13
		c-2.4,0.3-1.9,3.5-5,3c-0.2,4.1-2.1,6.5-4,9c1.4,1.9,1.7,2.2,2,4c-0.1-0.4-1.6,0.6-1,1c0.1,0.1,1.7,1.4,1,2c-1.2,1-0.3,0.7,1,1
		c0.4,1.7-0.8,1.9-2,2c0.5,4.1,3.1,6.2,5,9c-2,6.7,2.5,12.8,0,18c-0.4,0.8-2.3,1.3-3,2c-1.5,1.5-1,2.2-4,3c-4.5,1.1-10,7.8-14,10
		c1.4,4.9,4.9,10.9,2,17c-3.7,0.3-5.5,2.5-9,3c2.5,3.2-1.3,6.8-1,11c-2.1,0.6-3.2,2.1-5,3c-0.8,3.5-1.6,4.6-5,8
		c-1.1,1.1-3.2,3.3-4,4c-0.4,0.3-1.7-0.3-2,0c-0.3,0.3-0.7,1.8-1,2c-0.4,0.2-1.7-0.3-2,0c-1,1.2-2,0.7-4,1c-1.7,0.3-3.9,1.9-5,2
		c-2.2,0.3-2.5-0.9-4-1c-0.1,0-1.1,1.2-2,1c-0.8-0.2-1-0.1-1-1c-4.1,2.4-10.5,3.7-16,2c1.4-4.4-4.8-6.2,0-8c-0.6-2-2-3.2-3-5
		c-0.5-0.9-1.9-2.5-2-4c-0.2-2.9-3.7-4.1-5-6c-0.3-0.4,0.3-1.7,0-2c-0.1-0.1-0.9,0.1-1,0c-0.2-0.4,0.3-1.8,0-2c-0.6-0.5-1.3-2.1-2-5
		c-0.7-2.9,0.4-5.5-1-10c-1-3.2-3.4-6.4-5-9c-1.8-3.1-2.7-5.8-5-8c0-1.7-0.1-3.3,0-5c0,0.2,1.6-0.5,1-1c-1.1-0.9-0.8-1.8,0-3
		c1.1-1.6,1.8-6.9,3-10c2.1-0.6,3.4-1.9,4-4c-0.3-3.1-2.2-4.5-3-7c1.4-4.5,0-8.4-3-11c0.5-4.7-3-8-6-11c-0.7-0.7-2.4-1.2-3-2
		c-0.3-0.4,0.3-1.7,0-2c-1.1-0.9-2.4-1.7-3-4c-0.7-1.8,1.6-2.4,2-4c0.9-3.3-0.6-8.1,2-10c-0.8-0.9-1.1-2.3-1-4c-3.8-1.5-0.2,4.5-4,3
		c-0.8-2.8,1.4-2.6,1-5c-4.1-0.1-6.3,1.7-11,1c-0.8-2.9-2.4-5-4-7c-2,1.3-8.6-1.7-10,0c-0.1,0.1,0.1,0.9,0,1c-0.4,0.2-1.8-0.3-2,0
		c-0.9,1.1-1.4,0.6-3,1c-1.5,0.4-2.8,1.5-4,2c-1.3,0.6-3.7,0.2-4,2c-3.2-1.7-7.7-2.6-12-2c-3.3,0.5-5.3,3-8,3
		c-8.5-1.8-10.9-9.8-20-11c0-0.8,1.3-1.1,1-2c-0.1-0.5-1.9-0.7-2-1c-0.6-1.5,0.7-3.8-1-5c0.3-2.6-3.9-0.8-3-4c-2.4,0-2.9-1.7-6-1
		c1.9-1.8-0.3-3.1-2-4c0-2,0-4,0-6c-1.1-0.9-0.3-3.7-3-3c0.2-1.1,2-0.7,2-2c0.4-0.9,0.9-1.8,2-2c-1-3.2,1.5-4.9,1-9
		c-0.2-2-2-5.1,0-6c-0.3-2.4-3.5-1.9-3-5c-0.7-1.8,0.6-2.4,1-3c0.4-0.7,1.8-1.5,2-2c0.7-1.3,0.1-3.9,1-5c0.3-0.3,1.7,0.3,2,0
		c0.6-0.8,0.7-1.9,2-2c-1.2-7.2,6.1-5.9,6-12c6.3,0.3,8.1-3.9,12-6c-2.2-4.9,1.7-9.6,4-13c4.3-0.5,9.4-3.6,9-8c-0.5-5-3.3-5-10-4
		c1.1-4.4-1.7-5-2-8c-0.7-2,1.6-2.2,2-3c0.5-1.1-0.6-3.1,1-3c-1.2-2.5-1.4-5.9-2-9c0.8-0.9,2.7-0.6,3-2c1-1,5.7,1,5,1
		c0.9,0,1.6-1.1,3-1c4.3,0.3,8.8,1.8,15,1c0.8-0.2,1-1,2-1c-0.4-3,0.5-5,0-7c-0.5-2-3.5-2.5-3-5c-2.9-1.1-7.1-0.9-9-3
		c0.1-6.6,8.8-0.1,11-3c-0.1-1.7-4.3,1.1-4-3c1.2-0.8,1.7,1,2,1c0.8,0,1-1.1,2-1c2.6,0.3,4.1,1.6,7,0c0.5-0.3-0.1-0.9,1-1
		c2.1-0.1,3.2-1.5,4-4c3.1,0.1,4.8-1.2,7-2c1.1-0.2,0.7-2,2-2c1.8-0.2,0.6-3.4,2-4c3.8-1.6,10.6-0.1,14-2c0.1-1.3-4.1-3-1-4
		c-0.2-1.1-2-0.7-2-2c-0.7-6.7,5.9-6.1,10-8c-0.4,1.7,0.8,1.9,2,2c-0.2,1.2-1.8,0.8-3,1c0.9,1.8,3.2,2.9,1,5c1.9-0.8,3.7-1.7,6-2
		c-0.2-4.8-4.8-5.2-5-10c-3.5,0.9-6.9,1.7-9,4c-4.3,0.6-6.6-0.7-10-1c-2-3.7-3.4-8-3-14c6-1.4,8.9-5.8,16-6c4.3-0.7,4.1-5.9,10-5
		c0-1-1.2-0.8-2-1c1.5-2,3.8-2.6,6-4c0.4-0.2,0.7-1.9,1-2c1.1-0.5,4,0.6,4-2c-1.5-3-4.4,0.8-7,0c0.1-2.2,2.5-2.1,5-2
		c1.2,0.2,0.5-1.5,1-2c0.3-0.3,1.7,0.3,2,0c0.8-1,2.6-0.7,3-2c3.1-1.1,1.2,3.8,4,1c0.3-0.3,0.7-1.8,1-2c0.8-0.4,3.4,0.6,4,0
		c0.8-0.8,1.7-1.6,3-2c4.6-0.6,6,1.4,9,0c1,0,0.8-1.2,1-2c2.1-0.3,3.7,0.3,6,0c1.9-0.3,5.6-2.1,10-1c0.4,0.1,1.3,1,1,1
		c1,0,2.1-1.2,4-1c1.6,0.1,1.7,0.8,3,1c3.1,0.6,4.4-0.5,6,1c0.9,0.8,4.5-1.1,3,3c0.8-0.3,5.4-2.6,7-1c0.2,0.2-0.2,2,0,2
		c2.3,0.6,5.5-0.3,8,0c4.8,0.5,8.6,2,11,4c6-1,8.1,1.9,11,4c-0.3,2.3-3.1,2.2-4,4c4.4,0.7,4.4-2.9,8-3c0.8,1.5,3.2,1.4,5,2
		c0.4-1.7-0.8-1.9-2-2c0.1-1.9,0.7-3.3,2-4c0.4-2.4-4.6,0.6-3-3c3.2,1.5,8.8,0.5,12,2c0.9,3.2-3.3,1.4-4,3c0.1,2.6,3.3,2,6,2
		c0.9-0.7,1.5-1.8,2-3c8.4-1.3,15-4.4,24-5c-0.2,1.1-2,0.7-2,2c1.9,2.6,4.5-0.8,7-1c1.6-0.1,1.8,1.2,3,1c1.5-0.2,1.8-0.6,3-1
		c2.7-1,5.6-0.7,10,0c-1-3-5.8-2.2-8-4c1.7-4.8,5-0.4,8,0c3.8,0.5,8.5,0.2,13,1c5.7,1,11.1,4.1,16,4c-0.1-1.9-3.3-0.7-3-3
		c-1.5,1.2-2.5,1.2-4,0c-0.3-1.6,0.9-1.7,1-3c-0.4-1.6-1.8,0.9-2-1c-0.7-3.7,3.5-2.5,5-4c1.7-1,3.3-2.6,5-4c1.8-1.4,2.7-2.9,5-3
		c3.4-0.1,3.9,2.9,8,3c-1.2,5.6-0.3,7.9,0,13c0.7,0.9,1.8,1.5,3,2c-0.8,4.5-6.1,4.6-8,8c3,0.9,3-1.5,5-2c0.5-0.1,1.5,0.3,2,0
		c1.6-0.8,2.1-3,4-3c-1.4-0.5-0.2-2.8-1-4c-0.2-0.3-1.8,0.3-2,0c-0.5-0.6,0.3-2.2-1-2c-0.7-2.7,2-2,2-4c-0.3-2.4-4.7-0.6-4-4
		c2.3-0.7,5.1-0.9,7-2c-0.4-1.2-1.3-2.1-3-2c1.5-2.8,6-0.1,7,1c0.1,1.8-1.2,2.1-1,4c1.9-0.1,0.7-3.3,3-3c0.3-1.1,2.3-0.3,3-1
		c0.1-0.1-0.1-1,0-1c1.2-0.2,3.3,0.9,3,1c1.1-0.3,1-2.5,3-2c3.4-0.8,1.3,4.1,5,3c1.5-0.4-0.4-1.3,0-3c-1.5-0.4,0.1-0.9,0-2
		c4,0,8,0,12,0c0.2-2.2-3.5-0.5-5-1c-3.2-0.8,1.8-1.3,3-1c2.8,1.2,6.9,1.1,11,1c-0.6-1-2.3-1-2-3c4.7-2.8,11.2-2.2,17-3
		c2.3-0.3,2.5-0.6,6-1c2.1-0.2,4.1-0.5,8-1c1.6-0.2,1.7-0.8,3-1C982.5,26,985.4,27.3,987.2,25.3z M1037.2,33.3c-0.8,0.2-2,0-2,1
		C1036,34.1,1037.2,34.3,1037.2,33.3z M1027.2,37.3c2.8,1.3,3.4-4,2-1C1027.8,36.2,1025.4,36.5,1027.2,37.3z M932.2,41.3
		c-1.2,0.2-2.8-0.2-3,1C930.4,42.1,932,42.5,932.2,41.3z M917.2,54.3c0-1-1.8-1.3-2,0C916.3,54.2,916.8,55.8,917.2,54.3z
		 M763.2,61.3c-0.8,0.2-2,0-2,1C762,62.1,763.2,62.3,763.2,61.3z M766.2,69.3c3.1-1.3,5.5,3,7,0c-1.7,0.1-2.6-0.8-3-2
		c3.2-2.3,8.8,0.1,12,1c-0.9-3.2,0.9-3.8,2-5c-3.2-0.6-4.7,0.7-7,1c-3.8-0.8-11.6-2.8-13-1C765.9,64.3,765.3,67.6,766.2,69.3z
		 M724.2,89.3c-0.8-2.1,2.3-2.8,3-3c4.8-1.5,12.6,1.7,17-2c-3.7-1.9-7.6-0.6-10,0c-3.1,0.7-6.2,0.5-9,1c-1.7,0.3-1.6,1.4-3,0
		c-2.5-2.5-4.3,2.2-5-1c2.1-0.5-0.8-1-1-2c-0.2-1.1,1-1.5,1-3c0-0.9-0.7-1.9-1-3c-0.4-1.2-0.1-2.3-1-3c1.7,0,3.3,0,5,0
		c1.8-2.5,4.9-3.8,8-5c-0.3-2,1.4-2,2-3c-3.1-0.2-7.3,0.7-9-1c-0.4,1.3-1.3,2-3,2c-1.7,2,0.1,1.3,0,4c-2.7-0.7-2,2-4,2
		c-4.4,0.3-6.3,3-10,4c0.7,3.1-1.7,2.9-1,6c3.4-0.4,4.3,1.7,6,3c-0.2,4.4-5.8,3.6-8,6c1.4,2.3-2.6,3.8,0,4c0-0.6,0.8-1.1,1,0
		c-0.1,1.3-1.3,1.4-1,3c-2.4,1.1-5.7,0.1-8,1c-0.3,0.1-0.7,1.8-1,2c-0.4,0.3-2.7,0.9-3,1c-1.1,0.3-2.6-1.2-3-1c-0.3,0.1,0.2,1.8,0,2
		c-1.3,1.3-4.1-0.1-4,2c3.2-0.2,4.4-2.3,8-2c-0.7,2.7,2.1,1.9,3,3c0.7-2.2,3.6-0.6,5-1c0.1,0-0.1-0.9,0-1c0.6-0.8,3.1-0.4,4-1
		c4-0.7,5.7,1,9,1c-0.9-3.2,3.3-1.4,4-3c0-2,0-4,0-6c1.9,1,1.5-1.7,2-2c0.9-0.6,3,0.5,3-1c-1.3-0.4-2-1.3-2-3
		C720.9,87.7,722,87,724.2,89.3z M1274.2,68.3c-0.8,0.2-2,0-2,1C1273,69.1,1274.2,69.3,1274.2,68.3z M721.2,92.3
		c2.4,0.3,1.9,3.5,5,3C729.6,91.3,723.3,89,721.2,92.3z M766.2,136.3c2.7,0,5.3,0,8,0c0-1.5,3.9-5.7,0-5
		C772.8,134.3,765.7,131.4,766.2,136.3z M828.2,152.3c-1.4-1.3-1.4-4.7,0-6c-4.4,0.7-4.8-2.7-6-4c-0.8-0.9-2.2-1-3-2
		c-0.6-0.8-0.8-1.7-1-3c2.9-0.3,3.4,0.2,2,2c2.2,0.3,2.2-2,4-3c1.7-1,6.6,1,5-4c-2.8,1.1-4.6-1.3-7-1c0.1,0-0.5,0.9-1,1
		c-1.2,0.3-1.3,0.2-2,1c-0.2,0.3-1.6-0.2-2,0c-0.1,0.1,0.1,0.9,0,1c-0.3,0.3-1.6-0.2-2,0c-0.1,0.1,0.1,0.9,0,1c-0.3,0.3-1.6-0.3-2,0
		c-1.7,1.2-1.4,2.7-3,1c-1.3,4.3-2.3,2.7,0,5c2.1,2.1-0.6,1.6,0,4c2.9,2.1,5.6,4.4,7,8c2.3-0.3,3.8,0.2,4,2c-1.7-0.1-3.1,0.2-4,1
		c1,4-3,3-2,7c0.9,1.8,2.7-0.2,5,1c0.6,0.3,1.3,2.8,2,3c3.4,0.8,6.2-0.2,10-1c0-2.3,0-4.7,0-7c-2-0.3-2,1.4-3,2c0.8-3.8-1.2-4.8-1-8
		c1.9-2,3.7-0.3,6,0c-0.1-2.5-1.5-3.9-4-4C830.3,151,829.4,151.9,828.2,152.3z M756.2,137.3c0.4-1.4,1.2-1.7,0-3
		c-2.8,0.8-2.6-1.4-5-1c-0.2,3.1-5,1.7-4,6c-5.1-1.4-2.6,4.9-5,5c-1.9,0.1-0.6,3.8-2,4c0.8,0.2,1.2,0.8,1,2c4.1,1.2,7.7,1.4,11,1
		c1.1-0.1,0.5-0.7,1-1c1.5-0.8,5.4-1.8,7-2c1.4-0.1,3.6-0.3,5,0c1.3,0.3,4,0.6,5,1c0.5,0.2,0.1,1.7,1,2c-0.4-0.1,0.5-1,1-1
		c0,0,0,0.9,0,1c0.4,0.5,5.8,1,6,1c1.5,0.1,2.1-1,3-1c1.4,0,1.8,1.5,4,1c-0.4,0.1,1-1,1-1c0.9-0.6,1.7-0.9,3-1c-0.3-3.4-2.1-5.2-6-5
		c-0.8-3.8-4.6-2.8-7-4c-0.5-0.3-1.4-1.6-2-2c-0.9-0.6-1.6-0.9-3-1c-5.5-0.8-6.3,3-11,3C759.2,139,760.5,137.7,756.2,137.3z
		 M724.2,165.3c-2.5,1.2,2,3.8-1,5c-1.2,0.6-0.7-1.8-1-2c-0.8-0.4-1.4,1.3-2,1c-0.6-0.3,0.3-2.2-1-2c-0.2,0-0.1,1.6-1,1
		c0-2.7-2.8-2.6-4-4c-1.9-1.9-0.1-2.5,0-5c-3.9-0.9-6.2-4.9-4-9c-2.7-1.9-5.5-3.8-10-4c-1.6-2-3.3-4-7-4c3.5-3.8-5.8-0.9-4-6
		c-3.1-0.5-2.8,2.5-4,4c6.3,1.1,4.8,9.9,14,8c-0.9,3.9,1.3,2.5,3,3c0.3,0.1,1.6,1.7,2,2c1.1,0.8,4.2,0.3,3,4c-2.5-0.3-5.7-4.3-7,0
		c2.7-0.7,1.9,2.1,3,3c-4.3-0.7-2.3,5-7,4c0.3,2.3-0.2,3.8-2,4c-1.9,0-3.2-1.1-5-2c-1-0.5-4.6-0.6-4-3c0.8-2.1,4.7-0.6,7-1
		c2.6-0.4,5.7-0.6,6-3c-1.3,0-0.9-1.8-2-2c0.2-1.3-1.4-0.5-2-1c-0.3-0.2,0.3-1.8,0-2c-2.5-1.6-2.9,0.4-4,0c-0.3-0.1,0.2-1.9,0-2
		c-1.2-0.7-3.1-0.5-4-1c-1.2-0.6-1.8-1.4-3-2c-1.8-1.9-6.1-1.2-7-4c3.8,0.2,0.4-0.8,1-3c-0.8-0.2-2,0-2-1c-3.2-1-4.1,1.2-6,2
		c-1.8,0.8-3.7,1.4-6,2c-3.3,0-5-1.7-9-1c-1.2,1.2-1.1,3.5-1,6c-3.3,0.1-3.8,2.8-8,2c0.2,2.8-2.8,2.5-4,4c-0.8,2.8,1.4,2.6,1,5
		c-2.1,0.5-2.5,2.8-4,4c-0.8,0.6-2.3,0.5-3,1c-0.1,0-0.9,0.9-1,1c-2.6,2.5-10.2-1.3-11,4c1.4,2.1,4.7,0.6,7,1c2.7,0.4,3.6,1.3,6,0
		c0.6-0.3,1.3-1.7,2-2c0.5-0.2,1.4,0.1,2,0c0.8-0.2,0.7-0.9,1-1c3.6-1.4,8-1.2,12-2c1.5-0.3,1.9-0.8,4-1c1.9-0.1,2.2,1,4,1
		c1.1,0,1.6-0.8,3-1c2.1-0.3,5.9,0.2,8,0c1.8-0.2,3.2-1.1,5-1c1.3,0.1,3.2,1,4,2c-3.4,2.6,0.2,4.4,1,8c-2.5-1.1-5.7,2.1-3,3
		c2.1-3.7,1.6,1.3,3,2c0.5,0.2,1.4-0.1,2,0c3.1,0.8,8,1.8,12,2c-0.1,1.7,0.2,3.1,1,4c3.2-0.2,4.2,1.8,8,1c1.5,1.2,2.4,2.9,5,3
		c1.8-2.1,2.3-3,1-6c2.4-2,4.9-3.9,8-4c1.1,0,0.5,0.8,1,1c0.8,0.3,2.3-0.4,3,0c0.4,0.3,0.5,1.8,1,2c0.6,0.2,1.4-0.1,2,0
		c0.6,0.2,0.9,1,1,1c2.7,0.7,7.2,0.6,9,1c-0.1,0,0.6,0.8,1,1c0.2,0.1,0.7,0,1,0c0.9,0,0.8,0.9,1,1c2.3,0.6,4-0.8,6,1
		c1.3-2,4.4-2.2,7-3c1.1,1.5,2.1-0.3,3,0c0.5,0.2,1,1.7,2,2c1.2,0.3,2.7-0.3,4,0c0.2-0.8,0.8-1.2,2-1c1.7-5.9,5.9-9.5,5-18
		c-5.7-1-6,3.3-12,2c-1.6-1.4-3.9-2.1-6-3c-0.2,1.2,0.2,2.8-1,3c-4.1,1.1-3.9-2.1-7-2c0.2,2.2-0.8,3.2-3,3c0-1,0-2,0-3
		c-1,0-2-0.1-3,0c-0.7,0-1.1,1-1,1c-1,0.1-1.2-1-2-1c-0.9,0-1.3,1.1-2,1c-0.1,0-0.8-1.9-1-2c-1.1-0.4-1.5,1.6-3,1c1.7-2-0.1-1.3,0-4
		c0.6,0,1.1-0.8,0-1C726.9,164.7,725,164.4,724.2,165.3z M728.2,155.3c-2.9,3.3-5.8-1.4-6,1c1.6,2,4.7,1.5,5,3c-0.1-0.3-3.3,0.7-1,1
		c1.2,0.2,1.4-1.5,3-1c-1.2,3.8-0.5,1.5,1,3c0.3,0.3-0.3,1.7,0,2s1.7-0.3,2,0c0.3,0.3-0.3,1.8,0,2c2.4,1.3,5,1.2,5-1
		c-1.5-1.5-4.2-1.8-5-4c0.4-1.8,1.6-3.4,0-5c0,1-1.8,1.3-2,0c-0.3-2.3,2.9-1.1,3-3c-2.8-0.8-2.6,1.4-5,1
		C726.9,151.9,728.2,155.3,728.2,155.3z M743.2,153.3c-0.8,0.2-2,0-2,1C742,154.1,743.2,154.3,743.2,153.3z M762.2,203.3
		c0.2,0.5,1.7,1.5,2,2c0.6,0.9,0.3,2,1,3c0.4,0.6,1.5,1.4,2,2c2.1,2.8,1.3,2.5,1,6c5.4,1.3,6.5,6.8,6,14c1.8,1.2,3.4,2.6,5,4
		c1.8,2.6,1.4,7.2,4,9c0.2-1.2-0.2-2.8,1-3c1.6,2.2-0.4,3.4,0,4c0.5,0.7,3.3,0.4,4,1c0.4,0.3,0.6,1.6,1,2c0.7,0.8,1.4,1.2,2,2
		c0.2,0.3,3-1.6,3-2c-3.1-2.9-0.1-12.2-4-7c0-1-0.8-1.2-1-2c0-1.3,1.8-0.9,2-2c-2.9-1.4-4.1-4.5-5-8c-1.5-1.2-4.1-1.2-5-3
		c-0.9-2.4-2.3-4.3-2-8c-1.3-0.7-1.9-2.1-2-4c-4,1-3.3-4.1-4-5c-0.7-0.8-3.3-0.1-3-2c-0.4-3.3-2.9-4.4-4-7c-3.1,0.7-4.1-0.1-5,1
		C762.8,200.3,761.7,202.2,762.2,203.3z M794.2,250.3c-0.8,0.2-2,0-2,1C793,251.1,794.2,251.3,794.2,250.3z M1007.2,293.3
		C1007.3,292.1,1005.7,292.7,1007.2,293.3L1007.2,293.3z"/>
	<path fill-rule="evenodd" d="M1281.2,113.3c-0.7,1-2.3,1-2,3c-2.7,0.7-2-2-4-2C1276.6,112.3,1278.6,115.3,1281.2,113.3z"/>
	<path fill-rule="evenodd" d="M1145.2,147.3c-0.8,0.2-1,1-2,1c0.8,2.2,0.6,5.4,3,6c0,2,0,4,0,6c-1,0.6-1,2.3-3,2
		c-0.2,5.1-0.7,14.2-6,11c-0.8-1.9,0.1,5.1-3,2c0,0,0-1,0-1c-1.6,0.1-2.8,1.9-5,1c-1.2-0.2-0.5,1.5-1,2c-0.8,0.8-3.3,0.1-3,2
		c-2.1,0.7-2.7-1-4-1c-1.2,0-1.4,1.8-2,2c-0.9,0.2-2.2-0.9-2-1c-2.3,1-2.5,1.9-3,3c-1.2,0.2-1.8-0.2-2-1c-3.8,0.6-2,4.3-3,6
		c-0.1,0.2-1.9-0.2-2,0c-0.3,1.1,1.4,1.6,0,3c-0.7,0.7-1.7,0.9-3,1c-0.4-1.7,0.8-1.9,2-2c-1-1.4-2.7-2-4-3c2.2-2.1-0.5-2.9,0-6
		c-1.4,0.6-2.4,1.6-3,3c-4.5-1.3,2.5-3,3-4c0.1-0.3-0.2-1.9,0-2c0.5-0.3,2.2,1.5,3,0c1.9-2.8,5.9-3.4,8-6c4.2,0.8,8.3-1.4,10,0
		c1.8-2.2,3.9-4.1,5-7c1.7-0.4,1.9,0.8,2,2c0.8-0.2,1-1,2-1c1.5-0.4-0.1-0.9,0-2c0.2-0.8,1-1,1-2c0.8-0.6,0.9,2,1,2
		c4.8-1,2.3-7.5,5-11c-1.1-0.9-0.3-3.7-3-3c0-1.7,1.2-2.1,2-3c0.2-0.3,1.9-0.8,2-1c0.1-0.3-0.2-1.9,0-2c0.5-0.3,1.4,1.5,2,1
		c1.2-1.1,1.3-2.5,3-4c0.3-2.6-3.9-0.8-3-4c1.9,1.9,1.8-0.6,5,0c1,2.7,4,3.3,6,5c1.5,1,2.7-1,3-1c1-0.1,2.1,1,2,1
		c1.8-0.4,2.5-3.7,4-1c2.9-1.4,3.5-5.2,9-4c-3.4,2.6-7.4,4.6-12,6c0.7,3,2.1-1,4,0c3.7,1.4-2.9,0.2-2,2c-3.2-0.2-3.3,2.7-7,2
		c-2,0.3-2,2.7-4,3C1147.7,149.5,1147.1,147.7,1145.2,147.3z M1116.2,176.3c-0.8,0.2-2,0-2,1C1115,177.1,1116.2,177.3,1116.2,176.3z
		"/>
	<path fill-rule="evenodd" d="M692.2,170.3C690.7,169.7,692.3,169.1,692.2,170.3L692.2,170.3z"/>
	<path fill-rule="evenodd" d="M1073.2,243.3c1.3,1.3,3,2,1,4c4.4-0.7,5.6,1.7,10,1c0.6,3.2-3.6,1.4-1,4c0.3,2.1,4.4,0.3,5,2
		c0.1,1.6-0.5,3.8,1,4c-0.2,1.2-1.8,0.8-3,1c0.2,1.1,2,0.7,2,2c0,1,1.2,0.8,2,1c-0.1,3.7,1,6.3,2,9c0,1.7-3.3,7.3-3,3
		c-2.1,0.3-0.3,4.4-2,5c-2.6-1.6-7.8-4.3-5-8c-2.4-0.4-2.2,1.8-5,1c-2.7-0.3,0.9,5.6-3,4c-0.6-3.2,0.7-4.7,1-7c2,0.3,3.1-0.2,3-2
		c1.7,0,3.3,0,5,0c1,0,0.8-1.2,1-2c1.3,1.2,1.6,0.4,3,0c-0.4-1.3-1.8-1.6-2-3c-1,0-0.8,1.2-1,2c-1.2-0.3-6.2,0.2-3,1
		c-0.3,1.4-2.5,0.8-4,1c-3-1.9,2.5-6.1-3-5c0-2,0-4,0-6c-0.4-1.5-1.3,0.4-3,0c-1-1.3-0.9-3.7-3-4c-0.1-1.4-0.2-2.8,1-3
		c-1.9-1.8-2.3-5-3-8c2.2,0.6,1.4-1.9,3-2c-1.9-3.6,1.3-5.4,2-9c1,0,2,0,3,0c1.6,2.7,2.6,6,3,10
		C1075.7,240.4,1074.7,242.2,1073.2,243.3z M1072.2,232.3c0.6,0.6,3-1,2-2C1073.7,229.8,1072,232.1,1072.2,232.3z M1074.2,253.3
		c1.5,0.2,3.7-0.4,4,1c0.1,1.4-2.9,1.1-1,2c1.3-0.4,2-1.3,2-3c-1.3,0-0.9-1.8-2-2c-0.7,2.5-3-1.5-4-2
		C1073,251.2,1074.3,251.5,1074.2,253.3z M1081.2,257.3c0-1-1.8-1.3-2,0C1079.4,258.5,1080.3,257.9,1081.2,257.3z"/>
	<path fill-rule="evenodd" d="M413.2,233.3c-3.3-2.2-6.8,4.7-11,2c-0.4-0.3,0.2-2.5-1-2c0.6-1.6,6-1.3,7-1c0,0,0,1,0,1
		C410.3,233.2,413.8,229.7,413.2,233.3z"/>
	<path fill-rule="evenodd" d="M416.2,234.3c1.7-3.2,2.7,2.5,3,4c0.8-0.5,1.6-1,3-1c-0.5,3.2-3.5,1.8-5,0
		C416,235.8,417.6,235.4,416.2,234.3z"/>
	<path fill-rule="evenodd" d="M423.2,245.3c4.6,0.3,0.8,6.7,0,8c-2,0.3,0.2-2.9,1-3C422.9,247.9,424.3,248.4,423.2,245.3z"/>
	<path fill-rule="evenodd" d="M1251.2,273.3c-0.2-0.1-2.8-0.3-2-1c1.2-0.9,3.2,1.9,3,2C1251.2,274.9,1251.5,273.4,1251.2,273.3z"/>
	<path fill-rule="evenodd" d="M1018.2,287.3c0.1,0,1.4-1.3,1,0c-0.4,1.4-4.3,0.6-2,0C1017.5,287.2,1017.9,287.4,1018.2,287.3z"/>
	<path fill-rule="evenodd" d="M1080.2,300.3c-0.3,2.9,2.3,3.1,2,6c-0.9-0.4-1.8-0.9-2-2c-1.6,1.9-3.9-1.4-6,1c-0.1,1.2,1.5,1.3,2,2
		c0.3,0.4-0.3,1.7,0,2c0.1,0.1,1.7,0.3,1,1c-0.7,0.7-1.3,2.1,3,2c-1.6,1.9,0.9,5.8,3,7c-0.2,1.3-2,1-2,0c-0.2,0-0.9-2-1-2
		c-1.2-0.1-1.4,1.8-2,2c-1.2,0.3-0.5-0.8-1-1c-0.8-0.3-2.3,0.5-3,0c-0.3-0.2,0.3-1.7,0-2c-1-0.8-1.4-0.7-2-2c0.2,0.5,1.4-0.6,1-1
		c-0.8-0.6-1.9-0.8-2-2c-3.2,1.9-0.8,5-1,10c-1,0-0.8-1.2-1-2c-0.4-1.5-0.9,0.1-2,0c-0.8-0.2-1-1-2-1c-0.3-2.3,0.2-3.8,1-5
		c0.3-2.3-2.9-1.1-3-3c0.8-5.6,3.5-9.2,4-15c0.8-0.9,2.7-0.6,3-2c3.5,0.5,6.5,1.5,11,1c3.1,0.5,2.3-3.1,6-2c-0.6,2.1-2.1,3.2-3,5
		c-5.2,0.5-12.4-1.1-16,1c-0.2,2.5,1.5,3.1,3,4c2.6,0.3,0.8-3.9,4-3C1072.6,302.9,1076.8,299.2,1080.2,300.3z M1071.2,309.3
		c0-0.6-0.8-1.1-1,0C1070.2,309.9,1071,310.4,1071.2,309.3z"/>
	<path fill-rule="evenodd" d="M991.2,301.3c2.8-1.1,2,1.9,3,3c1.6,1.8,5,2.8,5,6c-3.7-0.3-2.7-5.3-7-5
		C992.3,303.5,991,303.2,991.2,301.3z"/>
	<path fill-rule="evenodd" d="M1162.2,306.3c0.7-3.4,3-0.7,5,0C1167.1,308.5,1164.7,305,1162.2,306.3z"/>
	<path fill-rule="evenodd" d="M1093.2,324.3c1.7-0.4,1.9,0.8,2,2c1.7-0.4,1.9,0.8,2,2c-1.2,0.2-1.8-0.2-2-1
		C1094.5,326.3,1092.9,326.3,1093.2,324.3z"/>
	<path fill-rule="evenodd" d="M794.2,338.3c3.6-1.6,0.6,3.4,3,3C797.1,343.2,792.9,341.1,794.2,338.3z"/>
	<path fill-rule="evenodd" d="M126.2,354.3c-0.6,1-2.3,1-2,3C121.7,356.9,124.1,353.4,126.2,354.3z"/>
	<path fill-rule="evenodd" d="M1280.2,359.3c-0.2-1.3-2-1-2,0c-1.6,0.3-1.7-0.9-3-1c0.6-2.4,3.8-2.2,6-3c0.1,2.5,0.2,4.9-2,5
		C1277.7,359.8,1279.1,359.3,1280.2,359.3z"/>
	<path fill-rule="evenodd" d="M1271.2,359.3c-0.4-0.9,8.1-0.1,6,4c-2,0-4,0-6,0C1269.8,361,1273.8,359.5,1271.2,359.3z"/>
	<path fill-rule="evenodd" d="M4.2,362.3c-1.2-0.9,5.7-1.2,3,0C5.7,363,5.8,363.1,4.2,362.3z"/>
	<path fill-rule="evenodd" d="M1233.2,370.3c1.5,1.2,4.5,0.9,4,4c1.2-1.1,2.1-0.9,2,1C1236.2,374.7,1233.4,373.7,1233.2,370.3z"/>
	<path fill-rule="evenodd" d="M277.2,553.3c7.7,0,15.3,0,23,0c-0.3,1.2,1.6,0.5,2,1c0.1,0.2-0.2,1.9,0,2c0.6,0.2,2.5-1.8,4-1
		c0.8,2.2,2.5,3.5,6,3c3.2,0.9,3.1-1.5,4-3c2.5-0.1,2.5,1.9,5,2c2.2,0.1,5-2.5,7,0c1.1,1.4,4.3,0.6,8,1c5,0.5,9.1,2.5,14,2
		c2.8,0.2,2.3-3,5-3c2.8-1.1,4.5,1.5,7,2c2.9,0.6,6.1-0.6,9,1c3.4-1.1-2.8-0.3-1-3c1.8-0.4,8.2-1.3,10,1c0.3,0.4,0,1.3,1,1
		c6.5-1.8,16.7,0,21-4c-0.5-2.8-2.4-4.2-3-7c-2.4,0.8,2,5.3-1,7c-3.4,2.2-12.6,3-17,1c0.3-1.4,2.5-0.8,4-1c-0.3,0-0.8-2-1-2
		c-0.2,0-2.3,0.8-3,1c-1.3,0.3-5.7,2-9,0c0.2-1.8,1.7-2.3,4-2c-0.7-2.3-5.6-0.4-8-1c0.1-2.6,3.3-2,6-2c0.4-2.4-4.6,0.6-3-3
		c3.5-1.8,7.8,0.1,4,3c1.3-1.3,3.7-1.3,5,0c-0.2,1.1-2,0.7-2,2c1.1,1.7,4.8-2.5,9-1c-0.4-1.6-3.1-0.9-2-4c-1.8-0.2-5,1-4-2
		c4.2,0.5,4.4-2.9,9-2c2.2-0.6,1.4,1.9,3,2c1,0.1,2.3,2.4,4,3c-0.5-0.8-1-1.6-1-3c4,0.6,6.1-0.5,6-4c-0.4-2.2-4.9-0.4-7-1
		c0.1-2.5,1.5-3.9,4-4c1.5-3.3,2.4,2.1,5,1c-1.8-3.4-0.3-5.2,4-5c-0.4,1.2-1.3,2.1-3,2c1.9,2.5,4.6-2.7,8-2c0.1-1.8-1.2-2.1-1-4
		c2.5-0.8,3.7-0.7,5-1c-0.4,0.1,0.6,1.5,1,1c0.7-0.9,0-2.5,2-2c2.6,0,1.2,0.7,1,2c2.2,0.2,3.2-0.8,3-3c1.8-0.1,2.1,1.1,4,1
		c1.2-0.1,2.3-1.5,4-2c0.9-0.3,2.1,0.2,3,0c1.7-0.4,6-1.7,11-1c0.8,3.7-6.2,1.9-7,1c2,2.8-2.2,1.2,0,5c-2.6-0.1-4.8-0.6-6-2
		c-1,0.6-0.8,1.6-2,2c-2.2,0.8-6.1-0.9-7,2c-2.2-0.6-1.4,1.9-3,2c0.1,2.2,2.5-1.3,5,0c1,2.7-3,0.8-4,2c-1.1,1.4-2.1-1.7-3,2
		c-1.7,0-2.6-0.7-3-2c-1.6,0.4-0.9,3.1-4,2c-1,1-2,2-3,3c0.6,0.9,2.8,1.5,1,2c1,2.2,4.6-1.3,8,0c0.2,0.8-2.6,1.1-2,2
		c-0.3-0.4,1.7,1.1,1,1c1,0.2,0.8-1,1-1c1.8,0.1,3.1,1.3,4,2c0.5,0.4,0.9,1.3,2,1c-0.7,3-2.1-1-4,0c-0.3,2.6,3.9,0.8,3,4
		c1.6-0.4,0.9-3.1,4-2c0.7,2.7-2,2-2,4c-0.1,1.8,1.2,2.1,1,4c0.6,1,2.3,1,2,3c-0.8,0.4-2.3-0.4-3,0c-0.5,0.3-1.1,5.1,1,3
		c-0.8,0.7-0.7,0.7-2,1c-0.3,0.1-1.8-0.2-2,0c0.2-0.3-2.4,4.5-4,1c-1.2,0.2-0.8,1.8-1,3c-15.4,2-29.5,5.1-48,4c1.7,3.3,8.4,1.6,13,2
		c-0.3,5.7-10.1,1.9-15,3c-1,0.6-1,2.3-3,2c1.2,1.8,5.2,0.8,7,2c-2,3.8,0.9,2.2,2,5c3.6-0.2,6.6,0.3,10,0c1.6-0.2,3.5-1,5-1
		c2.2,0.1,2.5,0.8,4,1c3.4,0.5,5.3,0.1,9,1c4.2,1,12.2,0.5,19,2c-0.4,2.2-4.9,0.4-7,1c2.4,2.3,9,0.4,13,1c-0.3,2.1-4.4,0.3-5,2
		c1.6,1.7,1.4-1,3,1c0.1,0.1-0.1,1,0,1c3.1,0.6,6.8-0.1,9-1c0.4-0.1,1.8,0.3,2,0c1.5-1.8,5.5-1.2,9-2c0.8-0.2,1-0.9,2-1
		c2.5-0.4,4.6,0.3,7,0c2.4-0.3,22.3-3.5,25,0c1.2,1.5,6.1,0.2,9-1c0.4-0.1,1.8,0.3,2,0c0.1-0.1-0.1-0.9,0-1c0.4-0.2,1.8,0.3,2,0
		c0.1-0.1-0.1-0.9,0-1c0.4-0.2,1.8,0.3,2,0c1-1.2,1.7-0.6,5-1c2.1-0.3,4.2-1.9,8-1c2,0.5,2.1,0.8,6,0c3.9-0.8,10.6-1.4,17-1
		c0.5-3.2-5-0.4-4-4c-5.3,1.1-9.7,1.1-15,0c-0.3-1.2,1.6-0.5,2-1c0.3-0.4-0.3-1.6,0-2c1.2-1.3,2.9-2.2,5-3c1-0.4,1.6-0.7,3-1
		c1-0.3,2.9-0.6,6-1c3.4-0.5,7.2-2.3,11-3c1.3-0.2,2.7,0.2,4,0c1.9-0.3,3.6-0.2,7-1c4.8-1.1,16.4-1.3,24-2c2.1,0.5,2.1-1.4,3-2
		c0.9-0.7,2.6-0.7,3-2c2.7,0,5.3,0,8,0c-0.2-1.8-3.4-0.6-4-2c2.5-3.9,8.9-3.8,15-4c-0.2-1.2-1.8-0.8-3-1c0.8-2.9,3.2,0.6,5,0
		c3.3-1.5-3.3-1.2-2-4c0.8,0.5,3.3-0.7,4,0c1.8,1.8,1.2-0.2,5-1c2.9-0.3,3.1,2.3,6,2c1.4-0.2,0.3-3,2-3c2.3,0.3,3.8-0.2,5-1
		c3.8-0.5,2,4.6,7,3c3.6,1,0.8-4.5,4-4c1.7-0.4,1.9,0.8,2,2c1.7-0.4,1.9,0.8,2,2c3.4,0.3,5.6,1,10,0c1.9-0.5,3.8-0.6,5-1
		c0.9-0.3,0.9-1,1-2c2-0.9,2.8,1.3,4,1c1.1-0.3,0.7-2,2-2c2.2-0.6,1.4,1.9,3,2c3.8-0.8,7.1-0.1,12-1c1-0.2,1.5-1.1,3-1
		c2.7,0.2,4.4,1.8,7,2c3.2,0.9,3.1-1.6,5-2c5,0.9,8.6,0.8,12-2c3.2-0.9,2.1,2.6,4,3c3.1,0.7,3.6-1,6-1c3.6-1.6,0.6,3.4,3,3
		c4.4,1,4.6-2.1,7-3c2.3-0.9,1.8,1.7,4,2c2.1,0.3,2.8-1.2,4-1c2,0.3,3.1,1.9,5,2c4.7,0.1,8.6-0.8,13-2c3.4-0.9,8.3-0.5,13-2
		c1.5-0.4-0.1-0.9,0-2c-1.5-0.4,0.1-0.9,0-2c5.1-0.7,7.6,1.1,10,3c4.1,0.2,9.6-1,11,2c2-1.3,4.3-2.3,5-5c10.1-1,19.7-6.4,30-4
		c1.4-0.4,0.1-1.8-1-2c1-2.8,4.2,0.3,6,0c1.9-0.1,0.7-3.3,3-3c1.4,0.1,2.8,0.2,3-1c5.3,0,10.7,0,16,0c0.3,2.6,7.1,1,4,4
		c5.1-0.4,10.5,1.6,16,2c5.6,0.4,11.5-0.5,17,0c3.2,0.3,7.6,2.1,12,0c1.4,3.2,0.2,3.3,0,7c-1.7-0.4-1.9,0.8-2,2c-1.7,0-3.3,0-5,0
		c0.1,2.2,4.2,0.4,6,1c-0.2,2.8-1.7,4.3-5,4c-0.9,2.1-3,3-3,6c2.8,0.2,2.5-2.8,4-4c1.9-0.5,4.3,3.1,4-1c2.7-0.1,2,1.7,4,0
		c2.4-1.7,4.7-2.7,3-6c1.7-0.4,2.2,1.5,4,1c0.8-0.2,0.7-1.8,2-2c1.2-0.2,8.1,1.1,9,0c0.1-0.1-0.1-0.9,0-1c0.4-0.2,1.8,0.3,2,0
		c0.6-0.8,2.8-0.9,5-2c1.1-0.6,3.9-1,3-3c7.5-1.1,15.5-1.8,22-4c1.8,0.3,2.1-0.9,1-1c0.7-1.7,1.8-0.2,3,0c1.6,0.3,3.8-0.6,4,1
		c9.4-3.5,22.8,0.1,31-2c1.5-0.4,1.2,0,2-1c0.3-0.4,0-1.3,1-1c2.2-0.4,1.5,1.7,3,2c1.9,0.4,5.7,0.6,8,0c0.5-0.1,1.1-1,1-1
		c0.9-0.1,2.1,1,2,1c2-0.4,2.3-1.9,4-2c10-0.7,18.7,2.6,29,3c3.1,0.5,2.6-2.7,5-3c3.8,0.3,6.1-0.5,9,0c2.4,0.4,4.2,3,7,2
		c1.2,1.3,0.4,1.6,0,3c6.7-2.1,13.1-0.5,20-1c1.5-0.1,3.1-0.7,5-1c0.9-0.1,2.1,0.3,3,0c1.1-0.3,2.1-1.3,4-1c-0.2,0,0.5,1.7,1,1
		c2.2-2.8,8.5,0.6,12,1c3.9,0.5,4.1-2.5,7-3c5.2,0.1,9.6-0.1,14,0c1.1,0,0.6,0.9,1,1c0.6,0.1,3.4-1.7,6-1c0.4,0.1,1.3,1,1,1
		c0.8,0,1-1.1,2-1c1.9,0.1,3.9,0.7,6,1c1,0.1,2-0.2,3,0c1.3,0.3,3.5,0.7,7,1c3.3,0.3,5.1,1.2,9,0c-0.2,0.9,0.4,0.9,1,1
		c2.6,0,1.2,0.7,1,2c3-0.9,6.5,0.9,8,1c1.1,0.1,0.7,2.1,2,2c3.8,0.3,7.1-0.4,11,0c3.6,0.3,9.1,3.2,12-1c2.1,0.6,3.5,2.3,6,3
		c4.1,1.1,11.9-0.1,14,2c0.1,0.1,0.8-0.1,1,0c2.9,1.2,6,2.4,7,5c1-0.6,1-2.3,3-2c5.4,0.8,11,0,17,1c1.6,0.3,2.4,1.5,4,2
		c3,1,6.2,0.6,9,1c0.5,2.1-1.4,1.9-3,2c0.6,0.9,2.3,3.7-1,3c-0.2,1.7,1.7,2.6,0,3c-3,0.9-0.7-1.8-1-2c-0.4-0.2-3.1,2.2-3,0
		c-2.6-0.5-1.8,1.5-4,2c-1.9,0.5-5.8,0.4-9,1c0.6,1,2.3,1,2,3c-1.5,0.5-5.2-1.2-5,1c-2.7,1.8-1.9-4.4-3-1c-2.7-0.7-2,2-4,2
		c0.4,1.5,1.3-0.4,3,0c-0.5,0.8-1.4,2.3-1,4c0.4,1.7,2.9,1.3,3,3c0.1,2.6,2.9-1.1,3,3c1.9,1,3.3-3,4,0c2.8,0.4,0.9-3.7,3-4
		c3.5,0.5,6.5,1.5,11,1c-0.3,2.2-3.5,1.3-5,2c-1.7,0.8-2.4,2.5-4,3c-8.8-1.3-16.1,2.6-22,1c-0.1,1.9-0.7,3.3-2,4c0.6,1,2.3,1,2,3
		c1,2,3.8,2.2,7,2c0.3,1.4,2.9,0.4,3,2c0.1,1.8,1.1-0.3,5,0c-0.1,0,0.4,1,1,1c1.3,0.1,2.8-0.3,4,0c0.1,0,0.2,1,1,1
		c1.6,0.1,1.7,0.7,3,1c0.9,0.2,2.1-0.2,3,0c0.8,0.2,1,0.8,2,1c1.8,0.3,3.9-0.3,6,0c9,1.4,23.8,1.8,34,4c0,6.3,0,12.7,0,19
		c-6.5,1.8-13.3,1-20,1c-412.4,0-829.1,0-1243,0c-6.3,0-12.9,0.8-19-1c0.5-6.5-1.2-15.2,1-20c15.1,0.4,38.8,2.7,54,1
		c-2.1-3.7-7.5-1.6-11-2c-7.9-0.8-16.1-2.1-23-3c0.9-2,3.3-0.9,5-1c1.5-0.1,4.1-0.2,6,0c5.7,0.8,17.4,1,25,2c4.4,0.7-0.8-2,2-2
		c3.8-0.5,6.4,0.3,8,2c10.4,0.8,17.6-1.7,27-2c0.3-3-6.1-1-3-4c-3,0-6,0-9,0c0.8-3.2,5.5-1.9,9-2c5.2-0.2,10.3,0.6,14-1
		c1.7-0.3-1.3-3.5,3-3c-0.3-1.4-2.5-0.8-4-1c-2.9-0.4-6.3-0.2-11-1c-2.5-0.4-6.2-0.8-8-2c-0.4-0.2-2.7-0.6-3-1c-0.1-0.1,0.1-1,0-1
		c-1.6-0.6-6.2,1.4-5-2c1-0.6,1-2.3,3-2c9.3-1.8,20.4,4.3,25-2c1.4-0.1,2.8-0.2,3,1c1.3-0.8-0.6-1.2,1-2c0.5-0.3,1.4,0.1,2,0
		c0.6-0.2,4.4-1.8,8-1c2.2,0.6,1.4-1.9,3-2c4.4,0.8,9.9,0.6,17,0c3-0.3,5.3-0.8,10-1c0.3,0,1.8,0.2,2,0c1.1-1.3,0.4,0.3,2,0
		c3.5-0.6,7.8-3.8,13-1c3.2,1.2,0.8-3.2,4-2c1,0,2,0,3,0c3.1-1.1,2.4,1.6,4,2c3.7,1.2,6.1-1.8,9-2c1.8-0.1,3.3,0.8,5,1
		c3.4,0.4,6.8-0.3,11,0c2.8-1-1.5-2.7,1-4c4.6,0.6,10.7,2.1,14,1c4.4-0.7-0.8,2,2,2c3.6,0.6,4.8-1.2,7-2c2.2-0.6,1.4,1.9,3,2
		c4,1,3-3,7-2c0.7,0.9,1.8,1.5,3,2c-0.6,0.9-1.2,1.8,0,2c4,1.4,3.5-1.8,5-3c3,0.1,7.9,1,5,4c10.7,0.6,23.9-1.3,33,1
		c1.1-0.2,0.7-2,2-2c-1.6-1.7-5.4-1.2-7-3c-2.7-0.3-3.4-2.6-4-5c10.8,0.9,21.5,1.8,33,2c0.3-1.9-3.3-0.2-4-1c0-0.1,0-1,0-1
		c-2.1-0.2-2.7,1.1-4,1c0.1,0-0.4-1-1-1c-4.6-0.2-10-0.1-15-1C280.8,555.1,276.5,556.7,277.2,553.3z M285.2,559.3c-0.7,0-1.3,0-2,0
		C277.7,559,285.4,562.1,285.2,559.3z M217.2,562.3c-1,0-2,0-3,0c-1.2,0.2-2.8-0.2-3,1C213,562.7,217.1,564.5,217.2,562.3z
		 M117.2,571.3c-1.2,0.2-2.8-0.2-3,1C115.4,572.1,117,572.5,117.2,571.3z M122.2,572.3c-0.8,0.2-2,0-2,1
		C121,573.1,122.2,573.3,122.2,572.3z M109.2,573.3c-0.8,0.2-2,0-2,1C108,574.1,109.2,574.3,109.2,573.3z M362.2,575.3
		c-1.2,0.2-2.8-0.2-3,1C360.4,576.1,362,576.5,362.2,575.3z M348.2,577.3C342.9,576.2,347,580.3,348.2,577.3L348.2,577.3z
		 M355.2,580.3c0-1.3-1.8-0.9-2-2c-3.6-0.7-3.6,1.7,0,1C353.4,580.1,354,580.5,355.2,580.3z M533.2,580.3c-1,0-2,0-3,0
		c-0.8,0.2-2,0-2,1C529.7,580.8,533.4,582.5,533.2,580.3z M69.2,599.3c-0.7,0-1.3,0-2,0C61.7,599,69.4,602.1,69.2,599.3z"/>
	<path fill-rule="evenodd" d="M1218.2,535.3c-0.1-5,1,0,3,0C1223.7,535.3,1221.4,537,1218.2,535.3z"/>
	<path fill-rule="evenodd" d="M850.2,11.3c0.9,1.7,3.9-3.2,9-2c2.9,0.7,10.2,1.3,15,0c1.8,4.7-5.2,0.2-7,2c-1.6,1.6-1.2-0.2-3,0
		c-1.1,0.1-3.5,0.8-5,1c-0.8,0.1-1,1.1-2,1c-0.3,0-1-1.3-2-1c-1.1,0.3-0.7,1.9-2,2c-6.5-1.4-9.7,1-17-1c-0.2-0.1,4.2-3.1,0-2
		c-1.2,0.3-4.6,3.1-9,2c-1.5-0.5-0.1-1,1-1c1,0,2,0,3,0c4.4-4.6,13.7-4.3,22-5c0.5,2.1-1.4,1.9-3,2
		C850.8,10.2,851.4,11.1,850.2,11.3z"/>
	<path fill-rule="evenodd" d="M738.2,15.3c-8,1.3-14.5,2.5-23,1c0.6,1.5,1.8,1.5,4,2c0.9,0.2,0.6,0.8,1,1c1.2,0.4,2.8-0.5,4,0
		c0.8,0.3,2.1,3.5,6,2c-0.3,1.8-5.4,1.4-7,3c-1,1-3.8-1.6-6-1c-3.4-0.6-0.6-0.5-2-2c-0.8-0.8-1.7-1.6-3-2c-2.1-0.4-2.1,1.3-3,2
		c-0.4,0.3-1.7-0.3-2,0c-0.3,0.3,0.3,1.8,0,2c-1.2,0.9-2.9,0.2-4,1c-0.7,0.5-0.7,2.1-2,2c-4.9,0.9-5.1-2.9-10-2c0-2-2.7-1.3-2-4
		c-4.1,0.1-8.2,0.2-11-1c0.4-3.4,2.7-1.3,1-5c5.2,1.1,9.3-1.4,15,0c0.3,0.1,1.4,1,1,1c1.8-0.1,2.4-1.5,4-2c0.7-0.2,5.3,0.9,6,0
		c0.8-1,1.4-0.8,3-1c0.3,0,1.8,0.2,2,0c1.2-1.5,1.8-0.6,5,0c1.6,0.3,3.8-0.6,4,1c1.2-1.4,3.6-1.6,6-1
		C727.6,12.9,739.2,10.2,738.2,15.3z M710.2,15.3c-0.8,0.2-2,0-2,1C709,16.1,710.2,16.3,710.2,15.3z"/>
	<path fill-rule="evenodd" d="M204.2,26.3c2.7,0.6,4.2-0.4,6-1c0.3-0.1,1.8,0.3,2,0c0.1-0.1-0.1-0.9,0-1c0.4-0.2,1.8,0.3,2,0
		c1-1.3,2-0.5,4-1c1-0.2,2.1-1.5,4-1c0.4,0.1,1.3,1,1,1c0.8,0,4.6-1.9,8-1c0.5,2.2-1.9,3.3-3,4c-0.7,0.5-2.2-0.4-3,0
		c-0.9,0.4-2.3,3.9-5,4c-0.4-1.8-9.4,1-11-1c-0.1-0.1,0.1-1,0-1C207.5,28,203.4,29.6,204.2,26.3z"/>
	<path fill-rule="evenodd" d="M1158.2,29.3c0.4,1.9-2.3,1.2-3,2c-0.5,0.7-1.5,1.3-3,1c-0.8-0.2-1-1.1-2-1c0,0-0.3,1-1,1
		c-2.6,0.1-6.3-0.4-10,0c-1.9,0.2-3.4,1.1-5,1c-2.9-0.2-5-2-7-2c0.7-5,10.9-5.2,14-2c1.1-0.2,0.7-2,2-2
		C1148.4,27.8,1153.6,28.2,1158.2,29.3z"/>
	<path fill-rule="evenodd" d="M250.2,29.3c1.3-1.8-2-1.8-2-2c-0.2-1.7,3.4-1.5,5-3c3.5-0.2,3.3,3.4,6,4c2.3-0.3,3.8-1.6,7-1
		c0.6,7.6-9.6,4.4-15,5c-4.1,0.5-7.4,2.4-14,2c-1.7-0.1-2.4-1.5-4-2c-3.9-1.1-8-0.2-11-1c1.4-4.6,8.6-3.4,11-7c1,0,2,0,3,0
		c2.1-0.9,1.3,1.4,2,2c0.3,0.3,1.7-0.3,2,0c0.4,0.5,2.2,1.2,5,2C247.2,28.9,248.1,29.9,250.2,29.3z"/>
	<path fill-rule="evenodd" d="M1077.2,356.3c1.7-0.4,1.9,0.8,2,2c2.4,0.4-0.6-4.6,3-3c1.5,0,0.4-2.1,1-3c0.1-0.2,3.6-1.5,3-2
		c-1.3-1.1-0.2-0.5,1-1c-0.1,0,0.4-1.7,1-1c1.3,1.6,0.3-0.8,2-1c1.2,0.2,1.8-0.2,2-1c3.5,0.5,3.5,4.5,8,4c1.5,0,0.4-2.1,1-3
		c0.3-0.5,1.7-0.5,2-1c0.8-1.3,0.7-3.9,3-4c-0.4-1.9-3.9-0.8-3-4c0.9,0.6,0.8-1,1-1c0.2,0,2.4,1.7,3,1c1-1.2,0.4,0.1,2,0
		c-0.1,0,0.4-1,1-1c2-0.1,2.8,0.3,4,1c0.6,0.3,1.7,1.9,2,2c3,1,5.2,0.2,8,0c1.9-0.4,0.8-3.9,4-3c-2.7,2.5,2.4,7.5-3,8
		c0.2,1.4,3,0.3,3,2c1,3.6-4.3,1-5,3c1.7,1.3,2.6,3.4,6,3c-0.9,3.2,3.3,1.4,3,4c3.1,0.7,2.9-1.7,6-1c-1.7,2,0.7,2-1,4
		c8.9,0.5,5.9-10,7-17c0.6-3.9,3.3-6.8,2-10c3.7,0.3-0.5,2.9,2,3c2.7,0.1-1.1,4.7,3,4c-0.5,3.2,1.8,3.5,1,7c0,1,1.3,0.7,2,1
		c1.3,0.5,1.2,1.9,4,2c-0.2,6.2,3.3,8.7,4,14c-0.8,2.8,2.7,0.7,4,2c0.3,0.3-0.3,1.8,0,2c1.2,0.6,3.2,0.9,5,1c-0.5,3.1,1.4,3.9,2,6
		c0.9,1.8,3.5,1.8,5,3c-0.6,1.8,0.9,4.9,3,5c1.4,0.1,1.7,2.9,3,4c1,0,0.8-1.2,1-2c3.9,1,0.2,3.4,1,7c3.6,7.4-0.3,14.5-2,22
		c-5.4,1.6-5.1,8.9-9,12c0,2,0,4,0,6c-5,1.4-11.8,0.9-13,6c-2-1-4-2-6-3c-6.8,2-15.1-0.1-19-4c1.9-3.5-0.8-3.3-2-6
		c-3.3,0.1-3.8,2.8-8,2c-0.6-1.6-0.9-2.9,0-5c0.1-0.3,1.8,0.2,2,0c0.8-0.8-0.3-3.6,1-4c-4.3-0.3-3.3,4.7-7,5c0.3-1.2-1.7-0.5-2-1
		c-0.5-0.7,0.4-2.3,0-3c-1.3-2.2-3.9-3.2-4-6c-5.2-0.5-10.2-2.4-16-2c-1.6,0.1-3,1.6-5,2c-2.3,0.4-4.7-0.4-6,0c-4.3,1.4-7.1,4-10,6
		c-3.7,0-7.3,0-11,0c-2.9,0.7-4.9,2.4-7,4c-6.1,0.4-10.9-0.4-13-4c-0.9-3.2,3.3-1.4,3-4c0.2-2.2,0-3.5-1-5c-0.1-0.1-1.1-1.2-1-1
		c-0.9-2.9-0.5-5.7-2-8c-0.7-1.1-0.9-2.7-2-5c-1.2-2.6-4.3-4.6-4-8c0.8,0.5,1.6,1,3,1c-2.3-4.2,0.6-7.7,0-13c1.9-0.6,3.7-0.6,6-2
		c1.3-0.8,2.6-1.5,4-3c6.7,0.1,10.5-2.8,16-4C1075.3,365.8,1074.4,359.2,1077.2,356.3z M1108.2,341.3c1.8-0.2,5,1,4-2
		C1109.9,339,1108.4,339.5,1108.2,341.3z M1132.2,425.3c-1-1.9,3-3.3,0-4C1131.3,423.1,1128.9,424.4,1132.2,425.3z"/>
</g>
</svg>
