<?xml version="1.0" encoding="utf-8"?>
<!-- Generator: Adobe Illustrator 15.0.0, SVG Export Plug-In . SVG Version: 6.00 Build 0)  -->
<svg version="1.2" baseProfile="tiny" id="Layer_1" xmlns="http://www.w3.org/2000/svg" xmlns:xlink="http://www.w3.org/1999/xlink"
	 x="0px" y="0px" width="2741px" height="1296px" viewBox="0 0 2741 1296" xml:space="preserve">
<g>
	<polygon fill="#EBE6EA" points="2523.8,505.5 2323.9,606.1 2123.9,705.5 1924,605.9 1724,405.7 1524,605.3 1324,805.5 1124,905.5 
		924,705.8 724,806 524,806 323,1005.3 323,1206 2524,1206 	"/>
</g>
<g>
	<polyline fill="none" stroke="#380B32" stroke-width="15" stroke-miterlimit="10" points="324,1005.3 524,805.5 724,805.5 
		924,705.5 1124,905.5 1324,805.5 1524,605.3 1724,405.6 1924,605.8 2124,705.4 2324,605.8 2524,505 	"/>
</g>
<g>
	<g>
		<circle fill="#FFFFFF" cx="324" cy="1005" r="25"/>
		<circle fill="#FFFFFF" cx="524" cy="805" r="25"/>
		<circle fill="#FFFFFF" cx="724" cy="805" r="25"/>
		<circle fill="#FFFFFF" cx="924" cy="705" r="25"/>
		<circle fill="#FFFFFF" cx="1124" cy="905" r="25"/>
		<circle fill="#FFFFFF" cx="1324" cy="805" r="25"/>
		<circle fill="#FFFFFF" cx="1524" cy="605" r="25"/>
		<circle fill="#FFFFFF" cx="1724" cy="405" r="25"/>
		<circle fill="#FFFFFF" cx="1924" cy="605" r="25"/>
		<circle fill="#FFFFFF" cx="2124" cy="705" r="25"/>
		<circle fill="#FFFFFF" cx="2324" cy="605" r="25"/>
		<circle fill="#FFFFFF" cx="2524" cy="505" r="25"/>
	</g>
	<g>
		<circle fill="#FFFFFF" cx="324" cy="1005" r="25"/>
		<circle fill="#FFFFFF" cx="524" cy="805" r="25"/>
		<circle fill="#FFFFFF" cx="724" cy="805" r="25"/>
		<circle fill="#FFFFFF" cx="924" cy="705" r="25"/>
		<circle fill="#FFFFFF" cx="1124" cy="905" r="25"/>
		<circle fill="#FFFFFF" cx="1324" cy="805" r="25"/>
		<circle fill="#FFFFFF" cx="1524" cy="605" r="25"/>
		<circle fill="#FFFFFF" cx="1724" cy="405" r="25"/>
		<circle fill="#FFFFFF" cx="1924" cy="605" r="25"/>
		<circle fill="#FFFFFF" cx="2124" cy="705" r="25"/>
		<circle fill="#FFFFFF" cx="2324" cy="605" r="25"/>
		<circle fill="#FFFFFF" cx="2524" cy="505" r="25"/>
	</g>
	<g>
		<circle fill="none" stroke="#380B32" stroke-width="10" stroke-miterlimit="10" cx="324" cy="1005" r="25"/>
		<circle fill="none" stroke="#380B32" stroke-width="10" stroke-miterlimit="10" cx="524" cy="805" r="25"/>
		<circle fill="none" stroke="#380B32" stroke-width="10" stroke-miterlimit="10" cx="724" cy="805" r="25"/>
		<circle fill="none" stroke="#380B32" stroke-width="10" stroke-miterlimit="10" cx="924" cy="705" r="25"/>
		<circle fill="none" stroke="#380B32" stroke-width="10" stroke-miterlimit="10" cx="1124" cy="905" r="25"/>
		<circle fill="none" stroke="#380B32" stroke-width="10" stroke-miterlimit="10" cx="1324" cy="805" r="25"/>
		<circle fill="none" stroke="#380B32" stroke-width="10" stroke-miterlimit="10" cx="1524" cy="605" r="25"/>
		<circle fill="none" stroke="#380B32" stroke-width="10" stroke-miterlimit="10" cx="1724" cy="405" r="25"/>
		<circle fill="none" stroke="#380B32" stroke-width="10" stroke-miterlimit="10" cx="1924" cy="605" r="25"/>
		<circle fill="none" stroke="#380B32" stroke-width="10" stroke-miterlimit="10" cx="2124" cy="705" r="25"/>
		<circle fill="none" stroke="#380B32" stroke-width="10" stroke-miterlimit="10" cx="2324" cy="605" r="25"/>
		<circle fill="none" stroke="#380B32" stroke-width="10" stroke-miterlimit="10" cx="2524" cy="505" r="25"/>
	</g>
</g>
<g>
	<line fill="none" stroke="#380B32" stroke-width="5" stroke-miterlimit="10" x1="324.5" y1="1180" x2="324.5" y2="1205"/>
	<line fill="none" stroke="#380B32" stroke-width="5" stroke-miterlimit="10" x1="524.5" y1="1180" x2="524.5" y2="1205"/>
	<line fill="none" stroke="#380B32" stroke-width="5" stroke-miterlimit="10" x1="724.5" y1="1180" x2="724.5" y2="1205"/>
	<line fill="none" stroke="#380B32" stroke-width="5" stroke-miterlimit="10" x1="924.5" y1="1180" x2="924.5" y2="1205"/>
	<line fill="none" stroke="#380B32" stroke-width="5" stroke-miterlimit="10" x1="1124.5" y1="1180" x2="1124.5" y2="1205"/>
	<line fill="none" stroke="#380B32" stroke-width="5" stroke-miterlimit="10" x1="1323.5" y1="1180" x2="1323.5" y2="1205"/>
	<line fill="none" stroke="#380B32" stroke-width="5" stroke-miterlimit="10" x1="1523.5" y1="1180" x2="1523.5" y2="1205"/>
	<line fill="none" stroke="#380B32" stroke-width="5" stroke-miterlimit="10" x1="1723.5" y1="1180" x2="1723.5" y2="1205"/>
	<line fill="none" stroke="#380B32" stroke-width="5" stroke-miterlimit="10" x1="1923.5" y1="1180" x2="1923.5" y2="1205"/>
	<line fill="none" stroke="#380B32" stroke-width="5" stroke-miterlimit="10" x1="2123.5" y1="1180" x2="2123.5" y2="1205"/>
	<line fill="none" stroke="#380B32" stroke-width="5" stroke-miterlimit="10" x1="2324.5" y1="1180" x2="2324.5" y2="1205"/>
	<line fill="none" stroke="#380B32" stroke-width="5" stroke-miterlimit="10" x1="2523.5" y1="1180" x2="2523.5" y2="1205"/>
	<polyline fill="none" stroke="#380B32" stroke-width="10" stroke-miterlimit="10" points="2724,1205 124,1205 124,5 	"/>
	<line fill="none" stroke="#380B32" stroke-width="5" stroke-miterlimit="10" x1="124" y1="1007.5" x2="149" y2="1007.5"/>
	<line fill="none" stroke="#380B32" stroke-width="5" stroke-miterlimit="10" x1="124" y1="807.5" x2="149" y2="807.5"/>
	<line fill="none" stroke="#380B32" stroke-width="5" stroke-miterlimit="10" x1="124" y1="607.5" x2="149" y2="607.5"/>
	<line fill="none" stroke="#380B32" stroke-width="5" stroke-miterlimit="10" x1="124" y1="407.5" x2="149" y2="407.5"/>
	<line fill="none" stroke="#380B32" stroke-width="5" stroke-miterlimit="10" x1="124" y1="207.5" x2="149" y2="207.5"/>
	<text transform="matrix(1 0 0 1 676.6636 1280)" fill="#380B32" font-family="'Tahoma'" font-size="46">June</text>
	<text transform="matrix(1 0 0 1 24.9893 1030)" fill="#380B32" font-family="'Tahoma'" font-size="46">5k</text>
	<text transform="matrix(1 0 0 1 12.4336 630)" fill="#380B32" font-family="'Tahoma'" font-size="46">15k</text>
	<text transform="matrix(1 0 0 1 12.4336 230)" fill="#380B32" font-family="'Tahoma'" font-size="46">25k</text>
	<text transform="matrix(1 0 0 1 1878.7188 1280)" fill="#380B32" font-family="'Tahoma'" font-size="46">Dec.</text>
	<text transform="matrix(1 0 0 1 1271.666 1280)" fill="#380B32" font-family="'Tahoma'" font-size="46">S</text>
	<text transform="matrix(1 0 0 1 1297.3838 1280)" fill="#380B32" font-family="'Tahoma'" font-size="46">e</text>
	<text transform="matrix(1 0 0 1 1321.5967 1280)" fill="#380B32" font-family="'Tahoma'" font-size="46">p</text>
	<text transform="matrix(1 0 0 1 1347.0225 1280)" fill="#380B32" font-family="'Tahoma'" font-size="46">t</text>
	<text transform="matrix(1 0 0 1 1362.4082 1280)" fill="#380B32" font-family="'Tahoma'" font-size="46">.</text>
	<text transform="matrix(1 0 0 1 2482.0547 1280)" fill="#380B32" font-family="'Tahoma'" font-size="46">M</text>
	<text transform="matrix(1 0 0 1 2517.498 1280)" fill="#380B32" font-family="'Tahoma'" font-size="46">a</text>
	<text transform="matrix(1 0 0 1 2541.6426 1280)" fill="#380B32" font-family="'Tahoma'" font-size="46">r</text>
	<text transform="matrix(1 0 0 1 2552.0195 1280)" fill="#380B32" font-family="'Tahoma'" font-size="46">.</text>
</g>
<g>
	<path fill="#380B32" d="M1774.5,205.5h-100c-13.8,0-25.5,10.7-25.5,24.5v49.5c0,13.8,11.7,25.5,25.5,25.5h25l25,25l25-25h25
		c13.8,0,24.5-11.7,24.5-25.5V230C1799,216.2,1788.3,205.5,1774.5,205.5z"/>
	<text transform="matrix(1 0 0 1 1681.0742 276)" fill="#FFFFFF" font-family="'Tahoma'" font-size="54">20k</text>
</g>
</svg>
