<?xml version="1.0" standalone="no"?>
<!DOCTYPE svg PUBLIC "-//W3C//DTD SVG 20010904//EN"
 "http://www.w3.org/TR/2001/REC-SVG-20010904/DTD/svg10.dtd">
<svg version="1.0" xmlns="http://www.w3.org/2000/svg"
 width="16.000000pt" height="16.000000pt" viewBox="0 0 16.000000 16.000000"
 preserveAspectRatio="xMidYMid meet">
<metadata>
Created by potrace 1.11, written by Peter Selinger 2001-2013
</metadata>
<g transform="translate(0.000000,16.000000) scale(0.018824,-0.018824)"
fill="#000000" stroke="none">
<path d="M329 604 l-249 -249 147 -148 c82 -82 160 -157 175 -168 38 -28 118
-36 160 -16 18 9 85 69 149 134 126 127 137 147 124 229 -5 36 -18 57 -67 109
l-60 65 36 40 c64 71 59 98 -29 188 -43 43 -61 55 -94 59 l-42 6 -250 -249z
m328 115 l41 -40 -26 -29 -27 -29 -45 44 -45 45 25 24 c14 14 27 25 31 25 3 1
24 -17 46 -40z m-32 -199 l130 -130 -265 0 -265 1 135 129 c74 72 135 130 135
130 0 0 59 -58 130 -130z"/>
<path d="M37 174 c-45 -69 -48 -110 -11 -147 19 -20 33 -25 61 -22 66 6 98 67
67 128 -21 40 -63 97 -72 97 -4 0 -24 -25 -45 -56z"/>
</g>
</svg>
