<?xml version="1.0" encoding="utf-8"?>
<!-- Generator: Adobe Illustrator 15.0.0, SVG Export Plug-In . SVG Version: 6.00 Build 0)  -->
<!DOCTYPE svg [
	<!ENTITY ns_flows "http://ns.adobe.com/Flows/1.0/">
	<!ENTITY ns_extend "http://ns.adobe.com/Extensibility/1.0/">
	<!ENTITY ns_ai "http://ns.adobe.com/AdobeIllustrator/10.0/">
	<!ENTITY ns_graphs "http://ns.adobe.com/Graphs/1.0/">
]>
<svg version="1.2" baseProfile="tiny" xmlns:x="&ns_extend;" xmlns:i="&ns_ai;" xmlns:graph="&ns_graphs;"
	 xmlns="http://www.w3.org/2000/svg" xmlns:xlink="http://www.w3.org/1999/xlink" xmlns:a="http://ns.adobe.com/AdobeSVGViewerExtensions/3.0/"
	 x="0px" y="0px" width="1000px" height="1000px" viewBox="0 0 1000 1000" xml:space="preserve">
<g id="xsmall">
	<g>
		<g>
			<rect x="25" y="27" fill="#0E111A" width="4" height="4"/>
			<rect x="75.7" y="26.5" fill="#0E111A" width="4.1" height="4.1"/>
			<rect x="125.7" y="26.4" fill="#0E111A" width="4.1" height="4.1"/>
			<rect x="175.8" y="26.5" fill="#0E111A" width="4" height="4"/>
			<rect x="405.7" y="56.4" fill="#0E111A" width="4.2" height="4.2"/>
			<rect x="426.2" y="27" fill="#0E111A" width="3.1" height="3.1"/>
			<rect x="16" y="89" fill="#0E111A" width="2" height="2"/>
			<rect x="75.9" y="76.6" fill="#0E111A" width="3.7" height="3.7"/>
			<rect x="115.6" y="87.4" fill="#0E111A" width="4.2" height="4.2"/>
			<rect x="176.5" y="77.2" fill="#0E111A" width="2.5" height="2.5"/>
			<rect x="256.4" y="107.2" fill="#0E111A" width="2.7" height="2.7"/>
			<rect x="276.4" y="77.2" fill="#0E111A" width="2.6" height="2.6"/>
			<rect x="325.6" y="76.4" fill="#0E111A" width="4.2" height="4.2"/>
			<rect x="376.4" y="77.2" fill="#0E111A" width="2.7" height="2.7"/>
			<rect x="425.9" y="76.7" fill="#0E111A" width="3.6" height="3.6"/>
			<rect x="475.7" y="76.5" fill="#0E111A" width="4.1" height="4.1"/>
			<rect x="16" y="139" fill="#0E111A" width="2" height="2"/>
			<rect x="75.9" y="126.7" fill="#0E111A" width="3.7" height="3.7"/>
			<rect x="155.9" y="156.6" fill="#0E111A" width="3.7" height="3.7"/>
			<rect x="166.5" y="138.3" fill="#0E111A" width="2.5" height="2.5"/>
			<rect x="225.8" y="126.5" fill="#0E111A" width="4" height="4"/>
			<rect x="276.3" y="127.1" fill="#0E111A" width="2.9" height="2.9"/>
			<rect x="326.5" y="127.3" fill="#0E111A" width="2.5" height="2.5"/>
			<rect x="376.2" y="127" fill="#0E111A" width="3.1" height="3.1"/>
			<rect x="426.4" y="127.2" fill="#0E111A" width="2.7" height="2.7"/>
			<rect x="476.4" y="127.2" fill="#0E111A" width="2.6" height="2.6"/>
			<rect x="26" y="178" fill="#0E111A" width="2" height="2"/>
			<rect x="106.5" y="207.3" fill="#0E111A" width="2.5" height="2.5"/>
			<rect x="156.4" y="207.2" fill="#0E111A" width="2.6" height="2.6"/>
			<rect x="175.8" y="176.6" fill="#0E111A" width="3.9" height="3.9"/>
			<rect x="316.1" y="187.8" fill="#0E111A" width="3.3" height="3.3"/>
			<rect x="366.5" y="188.3" fill="#0E111A" width="2.5" height="2.5"/>
			<rect x="426.5" y="177.2" fill="#0E111A" width="2.6" height="2.6"/>
			<rect x="476.4" y="177.1" fill="#0E111A" width="2.7" height="2.7"/>
			<rect x="26" y="228" fill="#0E111A" width="2" height="2"/>
			<rect x="76.4" y="227.1" fill="#0E111A" width="2.7" height="2.7"/>
			<rect x="125.8" y="226.5" fill="#0E111A" width="4" height="4"/>
			<rect x="166.5" y="238.2" fill="#0E111A" width="2.5" height="2.5"/>
			<rect x="275.9" y="226.6" fill="#0E111A" width="3.7" height="3.7"/>
			<rect x="326.4" y="227.2" fill="#0E111A" width="2.6" height="2.6"/>
			<rect x="406.5" y="257.2" fill="#0E111A" width="2.6" height="2.6"/>
			<rect x="426.4" y="227.1" fill="#0E111A" width="2.7" height="2.7"/>
			<rect x="475.8" y="226.5" fill="#0E111A" width="4" height="4"/>
			<rect x="55" y="307" fill="#0E111A" width="4" height="4"/>
			<rect x="76.5" y="277.2" fill="#0E111A" width="2.6" height="2.6"/>
			<rect x="225.7" y="276.4" fill="#0E111A" width="4.2" height="4.2"/>
			<rect x="275.9" y="276.6" fill="#0E111A" width="3.8" height="3.8"/>
			<rect x="326.5" y="277.2" fill="#0E111A" width="2.6" height="2.6"/>
			<rect x="366.5" y="288.3" fill="#0E111A" width="2.5" height="2.5"/>
			<rect x="426" y="276.8" fill="#0E111A" width="3.4" height="3.4"/>
			<rect x="476" y="276.7" fill="#0E111A" width="3.6" height="3.6"/>
			<rect x="26" y="328" fill="#0E111A" width="2" height="2"/>
			<rect x="176.1" y="326.8" fill="#0E111A" width="3.3" height="3.3"/>
			<rect x="225.9" y="326.7" fill="#0E111A" width="3.6" height="3.6"/>
			<rect x="276.2" y="327" fill="#0E111A" width="3.1" height="3.1"/>
			<rect x="326" y="326.8" fill="#0E111A" width="3.5" height="3.5"/>
			<rect x="425.6" y="326.4" fill="#0E111A" width="4.3" height="4.3"/>
			<rect x="476.3" y="327.1" fill="#0E111A" width="2.8" height="2.8"/>
			<rect x="26" y="378" fill="#0E111A" width="2" height="2"/>
			<rect x="176.5" y="377.2" fill="#0E111A" width="2.5" height="2.5"/>
			<rect x="225.7" y="376.4" fill="#0E111A" width="4.1" height="4.1"/>
			<rect x="276.5" y="377.3" fill="#0E111A" width="2.5" height="2.5"/>
			<rect x="326.5" y="377.3" fill="#0E111A" width="2.5" height="2.5"/>
			<rect x="376.5" y="377.3" fill="#0E111A" width="2.5" height="2.5"/>
			<rect x="426.5" y="377.2" fill="#0E111A" width="2.5" height="2.5"/>
			<rect x="466.4" y="388.1" fill="#0E111A" width="2.7" height="2.7"/>
			<rect x="56" y="458" fill="#0E111A" width="2" height="2"/>
			<rect x="76.5" y="427.3" fill="#0E111A" width="2.5" height="2.5"/>
			<rect x="156.4" y="457.2" fill="#0E111A" width="2.7" height="2.7"/>
			<rect x="176.3" y="427.1" fill="#0E111A" width="2.8" height="2.8"/>
			<rect x="226.5" y="427.3" fill="#0E111A" width="2.5" height="2.5"/>
			<rect x="276.2" y="427" fill="#0E111A" width="3" height="3"/>
			<rect x="325.8" y="426.6" fill="#0E111A" width="3.9" height="3.9"/>
			<rect x="366" y="437.8" fill="#0E111A" width="3.5" height="3.5"/>
			<rect x="415.9" y="437.6" fill="#0E111A" width="3.7" height="3.7"/>
			<rect x="476.2" y="427" fill="#0E111A" width="3.1" height="3.1"/>
			<rect x="26" y="478" fill="#0E111A" width="2" height="2"/>
			<rect x="76.5" y="477.3" fill="#0E111A" width="2.5" height="2.5"/>
			<rect x="176.4" y="477.2" fill="#0E111A" width="2.6" height="2.6"/>
			<rect x="215.9" y="487.7" fill="#0E111A" width="3.6" height="3.6"/>
			<rect x="276.5" y="477.3" fill="#0E111A" width="2.5" height="2.5"/>
			<rect x="326.4" y="477.1" fill="#0E111A" width="2.7" height="2.7"/>
			<rect x="365.5" y="487.3" fill="#0E111A" width="4.4" height="4.4"/>
			<rect x="506.2" y="506.9" fill="#0E111A" width="3.2" height="3.2"/>
		</g>
		<g>
			<rect x="525.6" y="26.3" fill="#0E111A" width="4.4" height="4.4"/>
			<rect x="577.4" y="27.1" fill="#0E111A" width="2.7" height="2.7"/>
			<rect x="627.5" y="27.2" fill="#0E111A" width="2.6" height="2.6"/>
			<rect x="676.8" y="26.5" fill="#0E111A" width="3.9" height="3.9"/>
			<rect x="826.8" y="26.5" fill="#0E111A" width="4" height="4"/>
			<rect x="877" y="26.7" fill="#0E111A" width="3.5" height="3.5"/>
			<rect x="926.9" y="26.7" fill="#0E111A" width="3.6" height="3.6"/>
			<rect x="976.7" y="26.4" fill="#0E111A" width="4.1" height="4.1"/>
			<rect x="526.5" y="77.3" fill="#0E111A" width="2.5" height="2.5"/>
			<rect x="576.7" y="76.4" fill="#0E111A" width="4.1" height="4.1"/>
			<rect x="677.5" y="77.3" fill="#0E111A" width="2.5" height="2.5"/>
			<rect x="727.2" y="77" fill="#0E111A" width="3" height="3"/>
			<rect x="777.1" y="76.9" fill="#0E111A" width="3.3" height="3.3"/>
			<rect x="876.9" y="76.7" fill="#0E111A" width="3.7" height="3.7"/>
			<rect x="927.4" y="77.2" fill="#0E111A" width="2.7" height="2.7"/>
			<rect x="977.5" y="77.3" fill="#0E111A" width="2.5" height="2.5"/>
			<rect x="525.6" y="126.4" fill="#0E111A" width="4.2" height="4.2"/>
			<rect x="676.6" y="126.3" fill="#0E111A" width="4.3" height="4.3"/>
			<rect x="727.4" y="127.1" fill="#0E111A" width="2.8" height="2.8"/>
			<rect x="776.5" y="126.3" fill="#0E111A" width="4.4" height="4.4"/>
			<rect x="856.7" y="156.5" fill="#0E111A" width="4.1" height="4.1"/>
			<rect x="526.5" y="177.3" fill="#0E111A" width="2.5" height="2.5"/>
			<rect x="626.8" y="176.5" fill="#0E111A" width="4" height="4"/>
			<rect x="676.8" y="176.6" fill="#0E111A" width="3.9" height="3.9"/>
			<rect x="727" y="176.7" fill="#0E111A" width="3.5" height="3.5"/>
			<rect x="776.7" y="176.5" fill="#0E111A" width="4" height="4"/>
			<rect x="827.5" y="177.2" fill="#0E111A" width="2.5" height="2.5"/>
			<rect x="525.8" y="226.5" fill="#0E111A" width="3.9" height="3.9"/>
			<rect x="627.5" y="227.2" fill="#0E111A" width="2.6" height="2.6"/>
			<rect x="677.4" y="227.1" fill="#0E111A" width="2.7" height="2.7"/>
			<rect x="727.5" y="227.3" fill="#0E111A" width="2.5" height="2.5"/>
			<rect x="777.2" y="226.9" fill="#0E111A" width="3.1" height="3.1"/>
			<rect x="827.5" y="227.3" fill="#0E111A" width="2.5" height="2.5"/>
			<rect x="907.5" y="257.2" fill="#0E111A" width="2.6" height="2.6"/>
			<rect x="957.4" y="257.2" fill="#0E111A" width="2.7" height="2.7"/>
			<rect x="977.4" y="227.2" fill="#0E111A" width="2.6" height="2.6"/>
			<rect x="526.4" y="277.2" fill="#0E111A" width="2.7" height="2.7"/>
			<rect x="577.5" y="277.3" fill="#0E111A" width="2.5" height="2.5"/>
			<rect x="677.5" y="277.3" fill="#0E111A" width="2.5" height="2.5"/>
			<rect x="727.3" y="277.1" fill="#0E111A" width="2.9" height="2.9"/>
			<rect x="777.5" y="277.2" fill="#0E111A" width="2.5" height="2.5"/>
			<rect x="827.4" y="277.2" fill="#0E111A" width="2.7" height="2.7"/>
			<rect x="877.5" y="277.3" fill="#0E111A" width="2.5" height="2.5"/>
			<rect x="947.4" y="318.2" fill="#0E111A" width="2.6" height="2.6"/>
			<rect x="977.4" y="277.1" fill="#0E111A" width="2.7" height="2.7"/>
			<rect x="516.5" y="338.2" fill="#0E111A" width="2.6" height="2.6"/>
			<rect x="577.4" y="327.1" fill="#0E111A" width="2.7" height="2.7"/>
			<rect x="627.5" y="327.3" fill="#0E111A" width="2.5" height="2.5"/>
			<rect x="677.3" y="327.1" fill="#0E111A" width="2.9" height="2.9"/>
			<rect x="726.6" y="326.4" fill="#0E111A" width="4.2" height="4.2"/>
			<rect x="777.5" y="327.2" fill="#0E111A" width="2.5" height="2.5"/>
			<rect x="827.5" y="327.2" fill="#0E111A" width="2.6" height="2.6"/>
			<rect x="877.5" y="327.3" fill="#0E111A" width="2.5" height="2.5"/>
			<rect x="977.4" y="327.2" fill="#0E111A" width="2.6" height="2.6"/>
			<rect x="525.9" y="376.7" fill="#0E111A" width="3.7" height="3.7"/>
			<rect x="626.8" y="376.5" fill="#0E111A" width="4" height="4"/>
			<rect x="676.7" y="376.4" fill="#0E111A" width="4.1" height="4.1"/>
			<rect x="857.4" y="407.1" fill="#0E111A" width="2.7" height="2.7"/>
			<rect x="907.5" y="407.3" fill="#0E111A" width="2.5" height="2.5"/>
			<rect x="927.3" y="377" fill="#0E111A" width="3" height="3"/>
			<rect x="976.7" y="376.4" fill="#0E111A" width="4.2" height="4.2"/>
			<rect x="657.5" y="457.3" fill="#0E111A" width="2.5" height="2.5"/>
			<rect x="676.8" y="426.5" fill="#0E111A" width="4" height="4"/>
			<rect x="727" y="426.8" fill="#0E111A" width="3.4" height="3.4"/>
			<rect x="777.4" y="427.2" fill="#0E111A" width="2.6" height="2.6"/>
			<rect x="827.5" y="427.2" fill="#0E111A" width="2.6" height="2.6"/>
			<rect x="867.5" y="438.2" fill="#0E111A" width="2.6" height="2.6"/>
			<rect x="927.2" y="426.9" fill="#0E111A" width="3.1" height="3.1"/>
			<rect x="977" y="426.7" fill="#0E111A" width="3.6" height="3.6"/>
			<rect x="525.7" y="476.5" fill="#0E111A" width="4.1" height="4.1"/>
			<rect x="627.4" y="477.1" fill="#0E111A" width="2.7" height="2.7"/>
			<rect x="676.8" y="476.5" fill="#0E111A" width="3.9" height="3.9"/>
			<rect x="777.5" y="477.2" fill="#0E111A" width="2.6" height="2.6"/>
			<rect x="857.5" y="507.2" fill="#0E111A" width="2.5" height="2.5"/>
			<rect x="877.5" y="477.2" fill="#0E111A" width="2.6" height="2.6"/>
			<rect x="926.8" y="476.6" fill="#0E111A" width="3.8" height="3.8"/>
			<rect x="966.7" y="487.4" fill="#0E111A" width="4.2" height="4.2"/>
		</g>
		<g>
			<rect x="26.5" y="527.3" fill="#0E111A" width="2.5" height="2.5"/>
			<rect x="66.5" y="538.2" fill="#0E111A" width="2.5" height="2.5"/>
			<rect x="146.2" y="567.9" fill="#0E111A" width="3.1" height="3.1"/>
			<rect x="225.9" y="526.7" fill="#0E111A" width="3.6" height="3.6"/>
			<rect x="275.8" y="526.5" fill="#0E111A" width="3.9" height="3.9"/>
			<rect x="326.5" y="527.2" fill="#0E111A" width="2.6" height="2.6"/>
			<rect x="376.5" y="527.2" fill="#0E111A" width="2.6" height="2.6"/>
			<rect x="476.1" y="526.8" fill="#0E111A" width="3.4" height="3.4"/>
			<rect x="176.5" y="577.3" fill="#0E111A" width="2.5" height="2.5"/>
			<rect x="226.5" y="577.3" fill="#0E111A" width="2.5" height="2.5"/>
			<rect x="276.5" y="577.3" fill="#0E111A" width="2.5" height="2.5"/>
			<rect x="316.5" y="588.2" fill="#0E111A" width="2.6" height="2.6"/>
			<rect x="426.5" y="577.3" fill="#0E111A" width="2.5" height="2.5"/>
			<rect x="475.7" y="576.4" fill="#0E111A" width="4.2" height="4.2"/>
			<rect x="16.4" y="638.1" fill="#0E111A" width="2.8" height="2.8"/>
			<rect x="156.5" y="657.3" fill="#0E111A" width="2.5" height="2.5"/>
			<rect x="176.5" y="627.3" fill="#0E111A" width="2.5" height="2.5"/>
			<rect x="226.5" y="627.2" fill="#0E111A" width="2.6" height="2.6"/>
			<rect x="276.5" y="627.2" fill="#0E111A" width="2.6" height="2.6"/>
			<rect x="316.4" y="638.2" fill="#0E111A" width="2.7" height="2.7"/>
			<rect x="426" y="626.7" fill="#0E111A" width="3.5" height="3.5"/>
			<rect x="476.2" y="626.9" fill="#0E111A" width="3.1" height="3.1"/>
			<rect x="26.4" y="677.2" fill="#0E111A" width="2.6" height="2.6"/>
			<rect x="76.2" y="676.9" fill="#0E111A" width="3.2" height="3.2"/>
			<rect x="225.6" y="676.4" fill="#0E111A" width="4.3" height="4.3"/>
			<rect x="275.9" y="676.6" fill="#0E111A" width="3.8" height="3.8"/>
			<rect x="376.5" y="677.2" fill="#0E111A" width="2.6" height="2.6"/>
			<rect x="476" y="676.8" fill="#0E111A" width="3.4" height="3.4"/>
			<rect x="26.5" y="727.3" fill="#0E111A" width="2.5" height="2.5"/>
			<rect x="76.5" y="727.3" fill="#0E111A" width="2.5" height="2.5"/>
			<rect x="225.7" y="726.4" fill="#0E111A" width="4.2" height="4.2"/>
			<rect x="276.1" y="726.8" fill="#0E111A" width="3.4" height="3.4"/>
			<rect x="316.5" y="738.3" fill="#0E111A" width="2.5" height="2.5"/>
			<rect x="375.7" y="726.4" fill="#0E111A" width="4.1" height="4.1"/>
			<rect x="456.1" y="756.8" fill="#0E111A" width="3.4" height="3.4"/>
			<rect x="476.5" y="727.2" fill="#0E111A" width="2.6" height="2.6"/>
			<rect x="25.7" y="776.4" fill="#0E111A" width="4.2" height="4.2"/>
			<rect x="76.5" y="777.2" fill="#0E111A" width="2.5" height="2.5"/>
			<rect x="126.5" y="777.3" fill="#0E111A" width="2.5" height="2.5"/>
			<rect x="176.5" y="777.3" fill="#0E111A" width="2.5" height="2.5"/>
			<rect x="226.4" y="777.2" fill="#0E111A" width="2.7" height="2.7"/>
			<rect x="356" y="806.8" fill="#0E111A" width="3.5" height="3.5"/>
			<rect x="376.5" y="777.3" fill="#0E111A" width="2.5" height="2.5"/>
			<rect x="426.2" y="777" fill="#0E111A" width="3" height="3"/>
			<rect x="466.5" y="788.3" fill="#0E111A" width="2.5" height="2.5"/>
			<rect x="76" y="826.8" fill="#0E111A" width="3.5" height="3.5"/>
			<rect x="126" y="826.8" fill="#0E111A" width="3.5" height="3.5"/>
			<rect x="206.5" y="857.3" fill="#0E111A" width="2.5" height="2.5"/>
			<rect x="255.9" y="856.6" fill="#0E111A" width="3.8" height="3.8"/>
			<rect x="276.5" y="827.3" fill="#0E111A" width="2.5" height="2.5"/>
			<rect x="326.1" y="826.8" fill="#0E111A" width="3.4" height="3.4"/>
			<rect x="376.1" y="826.9" fill="#0E111A" width="3.2" height="3.2"/>
			<rect x="425.9" y="826.7" fill="#0E111A" width="3.7" height="3.7"/>
			<rect x="465.6" y="837.4" fill="#0E111A" width="4.2" height="4.2"/>
			<rect x="76.2" y="876.9" fill="#0E111A" width="3.1" height="3.1"/>
			<rect x="126.5" y="877.2" fill="#0E111A" width="2.5" height="2.5"/>
			<rect x="196.5" y="918.3" fill="#0E111A" width="2.5" height="2.5"/>
			<rect x="276.5" y="877.3" fill="#0E111A" width="2.5" height="2.5"/>
			<rect x="326.5" y="877.3" fill="#0E111A" width="2.5" height="2.5"/>
			<rect x="375.7" y="876.4" fill="#0E111A" width="4.2" height="4.2"/>
			<rect x="425.7" y="876.5" fill="#0E111A" width="4.1" height="4.1"/>
			<rect x="476.4" y="877.1" fill="#0E111A" width="2.7" height="2.7"/>
			<rect x="65.8" y="937.5" fill="#0E111A" width="4" height="4"/>
			<rect x="126.2" y="927" fill="#0E111A" width="3" height="3"/>
			<rect x="176.5" y="927.3" fill="#0E111A" width="2.5" height="2.5"/>
			<rect x="226" y="926.7" fill="#0E111A" width="3.5" height="3.5"/>
			<rect x="276.2" y="926.9" fill="#0E111A" width="3.2" height="3.2"/>
			<rect x="326.3" y="927.1" fill="#0E111A" width="2.9" height="2.9"/>
			<rect x="376.1" y="926.8" fill="#0E111A" width="3.4" height="3.4"/>
			<rect x="425.9" y="926.6" fill="#0E111A" width="3.8" height="3.8"/>
			<rect x="475.7" y="926.4" fill="#0E111A" width="4.2" height="4.2"/>
			<rect x="25.7" y="976.5" fill="#0E111A" width="4" height="4"/>
			<rect x="76.5" y="977.3" fill="#0E111A" width="2.5" height="2.5"/>
			<rect x="126.5" y="977.3" fill="#0E111A" width="2.5" height="2.5"/>
			<rect x="176.5" y="977.3" fill="#0E111A" width="2.5" height="2.5"/>
			<rect x="216.5" y="988.3" fill="#0E111A" width="2.5" height="2.5"/>
			<rect x="276.5" y="977.3" fill="#0E111A" width="2.5" height="2.5"/>
			<rect x="376.5" y="977.2" fill="#0E111A" width="2.6" height="2.6"/>
			<rect x="426.4" y="977.1" fill="#0E111A" width="2.7" height="2.7"/>
		</g>
		<g>
			<rect x="525.9" y="526.6" fill="#0E111A" width="3.7" height="3.7"/>
			<rect x="576.9" y="526.6" fill="#0E111A" width="3.8" height="3.8"/>
			<rect x="626.6" y="526.4" fill="#0E111A" width="4.2" height="4.2"/>
			<rect x="707.1" y="556.9" fill="#0E111A" width="3.3" height="3.3"/>
			<rect x="756.7" y="556.5" fill="#0E111A" width="4.1" height="4.1"/>
			<rect x="777.5" y="527.2" fill="#0E111A" width="2.5" height="2.5"/>
			<rect x="826.8" y="526.6" fill="#0E111A" width="3.9" height="3.9"/>
			<rect x="877.4" y="527.2" fill="#0E111A" width="2.6" height="2.6"/>
			<rect x="927.5" y="527.2" fill="#0E111A" width="2.6" height="2.6"/>
			<rect x="967.5" y="538.2" fill="#0E111A" width="2.6" height="2.6"/>
			<rect x="577" y="576.8" fill="#0E111A" width="3.4" height="3.4"/>
			<rect x="647" y="617.7" fill="#0E111A" width="3.6" height="3.6"/>
			<rect x="676.7" y="576.4" fill="#0E111A" width="4.1" height="4.1"/>
			<rect x="727.4" y="577.1" fill="#0E111A" width="2.8" height="2.8"/>
			<rect x="776.7" y="576.4" fill="#0E111A" width="4.2" height="4.2"/>
			<rect x="827.1" y="576.8" fill="#0E111A" width="3.4" height="3.4"/>
			<rect x="867.1" y="587.8" fill="#0E111A" width="3.4" height="3.4"/>
			<rect x="916.8" y="587.6" fill="#0E111A" width="3.8" height="3.8"/>
			<rect x="967.5" y="588.3" fill="#0E111A" width="2.5" height="2.5"/>
			<rect x="526.4" y="627.1" fill="#0E111A" width="2.8" height="2.8"/>
			<rect x="667.5" y="638.2" fill="#0E111A" width="2.5" height="2.5"/>
			<rect x="727.5" y="627.3" fill="#0E111A" width="2.5" height="2.5"/>
			<rect x="777.2" y="627" fill="#0E111A" width="3.1" height="3.1"/>
			<rect x="827.5" y="627.2" fill="#0E111A" width="2.5" height="2.5"/>
			<rect x="877.4" y="627.1" fill="#0E111A" width="2.7" height="2.7"/>
			<rect x="927.1" y="626.9" fill="#0E111A" width="3.3" height="3.3"/>
			<rect x="977.2" y="627" fill="#0E111A" width="3" height="3"/>
			<rect x="526.5" y="677.2" fill="#0E111A" width="2.6" height="2.6"/>
			<rect x="577" y="676.7" fill="#0E111A" width="3.5" height="3.5"/>
			<rect x="657" y="706.7" fill="#0E111A" width="3.5" height="3.5"/>
			<rect x="666.9" y="687.6" fill="#0E111A" width="3.8" height="3.8"/>
			<rect x="726.8" y="676.5" fill="#0E111A" width="3.9" height="3.9"/>
			<rect x="777.4" y="677.1" fill="#0E111A" width="2.7" height="2.7"/>
			<rect x="977.1" y="676.9" fill="#0E111A" width="3.3" height="3.3"/>
			<rect x="526.1" y="726.9" fill="#0E111A" width="3.3" height="3.3"/>
			<rect x="576.5" y="726.3" fill="#0E111A" width="4.4" height="4.4"/>
			<rect x="627.4" y="727.2" fill="#0E111A" width="2.7" height="2.7"/>
			<rect x="677.5" y="727.2" fill="#0E111A" width="2.6" height="2.6"/>
			<rect x="717.5" y="738.3" fill="#0E111A" width="2.5" height="2.5"/>
			<rect x="777.4" y="727.1" fill="#0E111A" width="2.7" height="2.7"/>
			<rect x="827.1" y="726.9" fill="#0E111A" width="3.2" height="3.2"/>
			<rect x="876.5" y="726.2" fill="#0E111A" width="4.5" height="4.5"/>
			<rect x="927.3" y="727.1" fill="#0E111A" width="2.9" height="2.9"/>
			<rect x="977.4" y="727.2" fill="#0E111A" width="2.6" height="2.6"/>
			<rect x="516.4" y="788.2" fill="#0E111A" width="2.6" height="2.6"/>
			<rect x="577.5" y="777.2" fill="#0E111A" width="2.5" height="2.5"/>
			<rect x="627.5" y="777.2" fill="#0E111A" width="2.6" height="2.6"/>
			<rect x="677.5" y="777.2" fill="#0E111A" width="2.6" height="2.6"/>
			<rect x="727.5" y="777.3" fill="#0E111A" width="2.5" height="2.5"/>
			<rect x="777.5" y="777.3" fill="#0E111A" width="2.5" height="2.5"/>
			<rect x="827.5" y="777.3" fill="#0E111A" width="2.5" height="2.5"/>
			<rect x="876.9" y="776.6" fill="#0E111A" width="3.8" height="3.8"/>
			<rect x="926.8" y="776.5" fill="#0E111A" width="3.9" height="3.9"/>
			<rect x="977.3" y="777" fill="#0E111A" width="3" height="3"/>
			<rect x="515.7" y="837.5" fill="#0E111A" width="4.1" height="4.1"/>
			<rect x="577.1" y="826.8" fill="#0E111A" width="3.3" height="3.3"/>
			<rect x="627.5" y="827.2" fill="#0E111A" width="2.5" height="2.5"/>
			<rect x="677.5" y="827.2" fill="#0E111A" width="2.6" height="2.6"/>
			<rect x="727.5" y="827.3" fill="#0E111A" width="2.5" height="2.5"/>
			<rect x="777.5" y="827.3" fill="#0E111A" width="2.5" height="2.5"/>
			<rect x="827.5" y="827.3" fill="#0E111A" width="2.5" height="2.5"/>
			<rect x="877.5" y="827.3" fill="#0E111A" width="2.5" height="2.5"/>
			<rect x="927.1" y="826.9" fill="#0E111A" width="3.2" height="3.2"/>
			<rect x="976.8" y="826.5" fill="#0E111A" width="3.9" height="3.9"/>
			<rect x="566.8" y="887.5" fill="#0E111A" width="4" height="4"/>
			<rect x="676.9" y="876.7" fill="#0E111A" width="3.6" height="3.6"/>
			<rect x="776.7" y="876.4" fill="#0E111A" width="4.2" height="4.2"/>
			<rect x="877.5" y="877.2" fill="#0E111A" width="2.6" height="2.6"/>
			<rect x="926.7" y="876.5" fill="#0E111A" width="4" height="4"/>
			<rect x="977.5" y="877.3" fill="#0E111A" width="2.5" height="2.5"/>
			<rect x="516.1" y="937.9" fill="#0E111A" width="3.2" height="3.2"/>
			<rect x="577.3" y="927.1" fill="#0E111A" width="2.8" height="2.8"/>
			<rect x="627.3" y="927" fill="#0E111A" width="3" height="3"/>
			<rect x="707.2" y="956.9" fill="#0E111A" width="3.1" height="3.1"/>
			<rect x="777.3" y="927.1" fill="#0E111A" width="2.8" height="2.8"/>
			<rect x="856.9" y="956.7" fill="#0E111A" width="3.6" height="3.6"/>
			<rect x="907.4" y="957.1" fill="#0E111A" width="2.7" height="2.7"/>
			<rect x="957.5" y="957.3" fill="#0E111A" width="2.5" height="2.5"/>
			<rect x="525.8" y="976.6" fill="#0E111A" width="3.9" height="3.9"/>
			<rect x="577" y="976.7" fill="#0E111A" width="3.6" height="3.6"/>
			<rect x="626.8" y="976.5" fill="#0E111A" width="4" height="4"/>
			<rect x="676.8" y="976.6" fill="#0E111A" width="3.8" height="3.8"/>
			<rect x="727.3" y="977.1" fill="#0E111A" width="2.9" height="2.9"/>
			<rect x="776.6" y="976.4" fill="#0E111A" width="4.3" height="4.3"/>
			<rect x="826.7" y="976.4" fill="#0E111A" width="4.2" height="4.2"/>
			<rect x="877.4" y="977.1" fill="#0E111A" width="2.7" height="2.7"/>
			<rect x="927.5" y="977.3" fill="#0E111A" width="2.5" height="2.5"/>
			<rect x="977.5" y="977.3" fill="#0E111A" width="2.5" height="2.5"/>
		</g>
	</g>
</g>
<g id="small" display="none">
	<g display="inline">
		<g>
			<rect x="30.3" y="53.1" fill="#0E111A" width="3.8" height="3.8"/>
			<rect x="105.3" y="53.1" fill="#0E111A" width="3.8" height="3.8"/>
			<rect x="180.3" y="53.1" fill="#0E111A" width="3.8" height="3.8"/>
			<rect x="255.3" y="53.1" fill="#0E111A" width="3.8" height="3.8"/>
			<rect x="330.3" y="53.1" fill="#0E111A" width="3.8" height="3.8"/>
			<rect x="405.3" y="53.1" fill="#0E111A" width="3.8" height="3.8"/>
			<rect x="480.3" y="53.1" fill="#0E111A" width="3.8" height="3.8"/>
			<rect x="30.3" y="128.1" fill="#0E111A" width="3.8" height="3.8"/>
			<rect x="105.3" y="128.1" fill="#0E111A" width="3.8" height="3.8"/>
			<rect x="180.3" y="128.1" fill="#0E111A" width="3.8" height="3.8"/>
			<rect x="255.3" y="128.1" fill="#0E111A" width="3.8" height="3.8"/>
			<rect x="330.3" y="128.1" fill="#0E111A" width="3.8" height="3.8"/>
			<rect x="405.3" y="128.1" fill="#0E111A" width="3.8" height="3.8"/>
			<rect x="480.3" y="128.1" fill="#0E111A" width="3.8" height="3.8"/>
			<rect x="30.3" y="203.1" fill="#0E111A" width="3.8" height="3.8"/>
			<rect x="105.3" y="203.1" fill="#0E111A" width="3.8" height="3.8"/>
			<rect x="180.3" y="203.1" fill="#0E111A" width="3.8" height="3.8"/>
			<rect x="255.3" y="203.1" fill="#0E111A" width="3.8" height="3.8"/>
			<rect x="330.3" y="203.1" fill="#0E111A" width="3.8" height="3.8"/>
			<rect x="405.3" y="203.1" fill="#0E111A" width="3.8" height="3.8"/>
			<rect x="480.3" y="203.1" fill="#0E111A" width="3.8" height="3.8"/>
			<rect x="30.3" y="278.1" fill="#0E111A" width="3.8" height="3.8"/>
			<rect x="105.3" y="278.1" fill="#0E111A" width="3.8" height="3.8"/>
			<rect x="180.3" y="278.1" fill="#0E111A" width="3.8" height="3.8"/>
			<rect x="255.3" y="278.1" fill="#0E111A" width="3.8" height="3.8"/>
			<rect x="330.3" y="278.1" fill="#0E111A" width="3.8" height="3.8"/>
			<rect x="405.3" y="278.1" fill="#0E111A" width="3.8" height="3.8"/>
			<rect x="480.3" y="278.1" fill="#0E111A" width="3.8" height="3.8"/>
			<rect x="30.3" y="353.1" fill="#0E111A" width="3.8" height="3.8"/>
			<rect x="105.3" y="353.1" fill="#0E111A" width="3.8" height="3.8"/>
			<rect x="180.3" y="353.1" fill="#0E111A" width="3.8" height="3.8"/>
			<rect x="255.3" y="353.1" fill="#0E111A" width="3.8" height="3.8"/>
			<rect x="330.3" y="353.1" fill="#0E111A" width="3.8" height="3.8"/>
			<rect x="405.3" y="353.1" fill="#0E111A" width="3.8" height="3.8"/>
			<rect x="480.3" y="353.1" fill="#0E111A" width="3.8" height="3.8"/>
			<rect x="30.3" y="428.1" fill="#0E111A" width="3.8" height="3.8"/>
			<rect x="105.3" y="428.1" fill="#0E111A" width="3.8" height="3.8"/>
			<rect x="180.3" y="428.1" fill="#0E111A" width="3.8" height="3.8"/>
			<rect x="255.3" y="428.1" fill="#0E111A" width="3.8" height="3.8"/>
			<rect x="330.3" y="428.1" fill="#0E111A" width="3.8" height="3.8"/>
			<rect x="405.3" y="428.1" fill="#0E111A" width="3.8" height="3.8"/>
			<rect x="480.3" y="428.1" fill="#0E111A" width="3.8" height="3.8"/>
			<rect x="30.3" y="503.1" fill="#0E111A" width="3.8" height="3.8"/>
			<rect x="105.3" y="503.1" fill="#0E111A" width="3.8" height="3.8"/>
			<rect x="180.3" y="503.1" fill="#0E111A" width="3.8" height="3.8"/>
			<rect x="255.3" y="503.1" fill="#0E111A" width="3.8" height="3.8"/>
			<rect x="330.3" y="503.1" fill="#0E111A" width="3.8" height="3.8"/>
			<rect x="405.3" y="503.1" fill="#0E111A" width="3.8" height="3.8"/>
			<rect x="480.3" y="503.1" fill="#0E111A" width="3.8" height="3.8"/>
			<rect x="30.3" y="578.1" fill="#0E111A" width="3.8" height="3.8"/>
			<rect x="105.3" y="578.1" fill="#0E111A" width="3.8" height="3.8"/>
			<rect x="180.3" y="578.1" fill="#0E111A" width="3.8" height="3.8"/>
			<rect x="255.3" y="578.1" fill="#0E111A" width="3.8" height="3.8"/>
			<rect x="330.3" y="578.1" fill="#0E111A" width="3.8" height="3.8"/>
			<rect x="405.3" y="578.1" fill="#0E111A" width="3.8" height="3.8"/>
			<rect x="480.3" y="578.1" fill="#0E111A" width="3.8" height="3.8"/>
		</g>
		<g>
			<rect x="555.3" y="53.1" fill="#0E111A" width="3.8" height="3.8"/>
			<rect x="631.8" y="53.1" fill="#0E111A" width="3.8" height="3.8"/>
			<rect x="706.8" y="53.1" fill="#0E111A" width="3.8" height="3.8"/>
			<rect x="781.8" y="53.1" fill="#0E111A" width="3.8" height="3.8"/>
			<rect x="856.8" y="53.1" fill="#0E111A" width="3.8" height="3.8"/>
			<rect x="931.8" y="53.1" fill="#0E111A" width="3.8" height="3.8"/>
			<rect x="555.3" y="128.1" fill="#0E111A" width="3.8" height="3.8"/>
			<rect x="631.8" y="128.1" fill="#0E111A" width="3.8" height="3.8"/>
			<rect x="706.8" y="128.1" fill="#0E111A" width="3.8" height="3.8"/>
			<rect x="781.8" y="128.1" fill="#0E111A" width="3.8" height="3.8"/>
			<rect x="856.8" y="128.1" fill="#0E111A" width="3.8" height="3.8"/>
			<rect x="931.8" y="128.1" fill="#0E111A" width="3.8" height="3.8"/>
			<rect x="555.3" y="203.1" fill="#0E111A" width="3.8" height="3.8"/>
			<rect x="631.8" y="203.1" fill="#0E111A" width="3.8" height="3.8"/>
			<rect x="706.8" y="203.1" fill="#0E111A" width="3.8" height="3.8"/>
			<rect x="781.8" y="203.1" fill="#0E111A" width="3.8" height="3.8"/>
			<rect x="856.8" y="203.1" fill="#0E111A" width="3.8" height="3.8"/>
			<rect x="931.8" y="203.1" fill="#0E111A" width="3.8" height="3.8"/>
			<rect x="555.3" y="278.1" fill="#0E111A" width="3.8" height="3.8"/>
			<rect x="631.8" y="278.1" fill="#0E111A" width="3.8" height="3.8"/>
			<rect x="706.8" y="278.1" fill="#0E111A" width="3.8" height="3.8"/>
			<rect x="781.8" y="278.1" fill="#0E111A" width="3.8" height="3.8"/>
			<rect x="856.8" y="278.1" fill="#0E111A" width="3.8" height="3.8"/>
			<rect x="931.8" y="278.1" fill="#0E111A" width="3.8" height="3.8"/>
			<rect x="555.3" y="353.1" fill="#0E111A" width="3.8" height="3.8"/>
			<rect x="631.8" y="353.1" fill="#0E111A" width="3.8" height="3.8"/>
			<rect x="706.8" y="353.1" fill="#0E111A" width="3.8" height="3.8"/>
			<rect x="781.8" y="353.1" fill="#0E111A" width="3.8" height="3.8"/>
			<rect x="856.8" y="353.1" fill="#0E111A" width="3.8" height="3.8"/>
			<rect x="931.8" y="353.1" fill="#0E111A" width="3.8" height="3.8"/>
			<rect x="555.3" y="428.1" fill="#0E111A" width="3.8" height="3.8"/>
			<rect x="631.8" y="428.1" fill="#0E111A" width="3.8" height="3.8"/>
			<rect x="706.8" y="428.1" fill="#0E111A" width="3.8" height="3.8"/>
			<rect x="781.8" y="428.1" fill="#0E111A" width="3.8" height="3.8"/>
			<rect x="856.8" y="428.1" fill="#0E111A" width="3.8" height="3.8"/>
			<rect x="931.8" y="428.1" fill="#0E111A" width="3.8" height="3.8"/>
			<rect x="555.3" y="503.1" fill="#0E111A" width="3.8" height="3.8"/>
			<rect x="631.8" y="503.1" fill="#0E111A" width="3.8" height="3.8"/>
			<rect x="706.8" y="503.1" fill="#0E111A" width="3.8" height="3.8"/>
			<rect x="781.8" y="503.1" fill="#0E111A" width="3.8" height="3.8"/>
			<rect x="856.8" y="503.1" fill="#0E111A" width="3.8" height="3.8"/>
			<rect x="931.8" y="503.1" fill="#0E111A" width="3.8" height="3.8"/>
			<rect x="555.3" y="578.1" fill="#0E111A" width="3.8" height="3.8"/>
			<rect x="631.8" y="578.1" fill="#0E111A" width="3.8" height="3.8"/>
			<rect x="706.8" y="578.1" fill="#0E111A" width="3.8" height="3.8"/>
			<rect x="781.8" y="578.1" fill="#0E111A" width="3.8" height="3.8"/>
			<rect x="856.8" y="578.1" fill="#0E111A" width="3.8" height="3.8"/>
			<rect x="931.8" y="578.1" fill="#0E111A" width="3.8" height="3.8"/>
		</g>
		<g>
			<rect x="30.3" y="653.1" fill="#0E111A" width="3.8" height="3.8"/>
			<rect x="105.3" y="653.1" fill="#0E111A" width="3.8" height="3.8"/>
			<rect x="180.3" y="653.1" fill="#0E111A" width="3.8" height="3.8"/>
			<rect x="255.3" y="653.1" fill="#0E111A" width="3.8" height="3.8"/>
			<rect x="330.3" y="653.1" fill="#0E111A" width="3.8" height="3.8"/>
			<rect x="405.3" y="653.1" fill="#0E111A" width="3.8" height="3.8"/>
			<rect x="480.3" y="653.1" fill="#0E111A" width="3.8" height="3.8"/>
			<rect x="30.3" y="728.1" fill="#0E111A" width="3.8" height="3.8"/>
			<rect x="105.3" y="728.1" fill="#0E111A" width="3.8" height="3.8"/>
			<rect x="180.3" y="728.1" fill="#0E111A" width="3.8" height="3.8"/>
			<rect x="255.3" y="728.1" fill="#0E111A" width="3.8" height="3.8"/>
			<rect x="330.3" y="728.1" fill="#0E111A" width="3.8" height="3.8"/>
			<rect x="405.3" y="728.1" fill="#0E111A" width="3.8" height="3.8"/>
			<rect x="480.3" y="728.1" fill="#0E111A" width="3.8" height="3.8"/>
			<rect x="30.3" y="803.1" fill="#0E111A" width="3.8" height="3.8"/>
			<rect x="105.3" y="803.1" fill="#0E111A" width="3.8" height="3.8"/>
			<rect x="180.3" y="803.1" fill="#0E111A" width="3.8" height="3.8"/>
			<rect x="255.3" y="803.1" fill="#0E111A" width="3.8" height="3.8"/>
			<rect x="330.3" y="803.1" fill="#0E111A" width="3.8" height="3.8"/>
			<rect x="405.3" y="803.1" fill="#0E111A" width="3.8" height="3.8"/>
			<rect x="480.3" y="803.1" fill="#0E111A" width="3.8" height="3.8"/>
			<rect x="30.3" y="878.1" fill="#0E111A" width="3.8" height="3.8"/>
			<rect x="105.3" y="878.1" fill="#0E111A" width="3.8" height="3.8"/>
			<rect x="180.3" y="878.1" fill="#0E111A" width="3.8" height="3.8"/>
			<rect x="255.3" y="878.1" fill="#0E111A" width="3.8" height="3.8"/>
			<rect x="330.3" y="878.1" fill="#0E111A" width="3.8" height="3.8"/>
			<rect x="405.3" y="878.1" fill="#0E111A" width="3.8" height="3.8"/>
			<rect x="480.3" y="878.1" fill="#0E111A" width="3.8" height="3.8"/>
			<rect x="30.3" y="953.1" fill="#0E111A" width="3.8" height="3.8"/>
			<rect x="105.3" y="953.1" fill="#0E111A" width="3.8" height="3.8"/>
			<rect x="180.3" y="953.1" fill="#0E111A" width="3.8" height="3.8"/>
			<rect x="255.3" y="953.1" fill="#0E111A" width="3.8" height="3.8"/>
			<rect x="330.3" y="953.1" fill="#0E111A" width="3.8" height="3.8"/>
			<rect x="405.3" y="953.1" fill="#0E111A" width="3.8" height="3.8"/>
			<rect x="480.3" y="953.1" fill="#0E111A" width="3.8" height="3.8"/>
		</g>
		<g>
			<rect x="555.3" y="653.1" fill="#0E111A" width="3.8" height="3.8"/>
			<rect x="631.8" y="653.1" fill="#0E111A" width="3.8" height="3.8"/>
			<rect x="706.8" y="653.1" fill="#0E111A" width="3.8" height="3.8"/>
			<rect x="781.8" y="653.1" fill="#0E111A" width="3.8" height="3.8"/>
			<rect x="856.8" y="653.1" fill="#0E111A" width="3.8" height="3.8"/>
			<rect x="931.8" y="653.1" fill="#0E111A" width="3.8" height="3.8"/>
			<rect x="555.3" y="728.1" fill="#0E111A" width="3.8" height="3.8"/>
			<rect x="631.8" y="728.1" fill="#0E111A" width="3.8" height="3.8"/>
			<rect x="706.8" y="728.1" fill="#0E111A" width="3.8" height="3.8"/>
			<rect x="781.8" y="728.1" fill="#0E111A" width="3.8" height="3.8"/>
			<rect x="856.8" y="728.1" fill="#0E111A" width="3.8" height="3.8"/>
			<rect x="931.8" y="728.1" fill="#0E111A" width="3.8" height="3.8"/>
			<rect x="555.3" y="803.1" fill="#0E111A" width="3.8" height="3.8"/>
			<rect x="631.8" y="803.1" fill="#0E111A" width="3.8" height="3.8"/>
			<rect x="706.8" y="803.1" fill="#0E111A" width="3.8" height="3.8"/>
			<rect x="781.8" y="803.1" fill="#0E111A" width="3.8" height="3.8"/>
			<rect x="856.8" y="803.1" fill="#0E111A" width="3.8" height="3.8"/>
			<rect x="931.8" y="803.1" fill="#0E111A" width="3.8" height="3.8"/>
			<rect x="555.3" y="878.1" fill="#0E111A" width="3.8" height="3.8"/>
			<rect x="631.8" y="878.1" fill="#0E111A" width="3.8" height="3.8"/>
			<rect x="706.8" y="878.1" fill="#0E111A" width="3.8" height="3.8"/>
			<rect x="781.8" y="878.1" fill="#0E111A" width="3.8" height="3.8"/>
			<rect x="856.8" y="878.1" fill="#0E111A" width="3.8" height="3.8"/>
			<rect x="931.8" y="878.1" fill="#0E111A" width="3.8" height="3.8"/>
			<rect x="555.3" y="953.1" fill="#0E111A" width="3.8" height="3.8"/>
			<rect x="631.8" y="953.1" fill="#0E111A" width="3.8" height="3.8"/>
			<rect x="706.8" y="953.1" fill="#0E111A" width="3.8" height="3.8"/>
			<rect x="781.8" y="953.1" fill="#0E111A" width="3.8" height="3.8"/>
			<rect x="856.8" y="953.1" fill="#0E111A" width="3.8" height="3.8"/>
			<rect x="931.8" y="953.1" fill="#0E111A" width="3.8" height="3.8"/>
		</g>
	</g>
</g>
<g id="normal" display="none">
	<g display="inline">
		<rect x="64" y="27" fill="#0E111A" width="5" height="5"/>
		<rect x="164.5" y="26.5" fill="#0E111A" width="5" height="5"/>
		<rect x="264.5" y="26.5" fill="#0E111A" width="5" height="5"/>
		<rect x="364.5" y="26.5" fill="#0E111A" width="5" height="5"/>
		<rect x="464.5" y="26.5" fill="#0E111A" width="5" height="5"/>
		<rect x="564.5" y="26.5" fill="#0E111A" width="5" height="5"/>
		<rect x="664.5" y="26.5" fill="#0E111A" width="5" height="5"/>
		<rect x="764.5" y="26.5" fill="#0E111A" width="5" height="5"/>
		<rect x="864.5" y="26.5" fill="#0E111A" width="5" height="5"/>
		<rect x="964.5" y="26.5" fill="#0E111A" width="5" height="5"/>
		<rect x="64" y="127" fill="#0E111A" width="5" height="5"/>
		<rect x="164.5" y="126.5" fill="#0E111A" width="5" height="5"/>
		<rect x="264.5" y="126.5" fill="#0E111A" width="5" height="5"/>
		<rect x="364.5" y="126.5" fill="#0E111A" width="5" height="5"/>
		<rect x="464.5" y="126.5" fill="#0E111A" width="5" height="5"/>
		<rect x="564.5" y="126.5" fill="#0E111A" width="5" height="5"/>
		<rect x="664.5" y="126.5" fill="#0E111A" width="5" height="5"/>
		<rect x="764.5" y="126.5" fill="#0E111A" width="5" height="5"/>
		<rect x="864.5" y="126.5" fill="#0E111A" width="5" height="5"/>
		<rect x="964.5" y="126.5" fill="#0E111A" width="5" height="5"/>
		<rect x="64" y="227" fill="#0E111A" width="5" height="5"/>
		<rect x="164.5" y="226.5" fill="#0E111A" width="5" height="5"/>
		<rect x="264.5" y="226.5" fill="#0E111A" width="5" height="5"/>
		<rect x="364.5" y="226.5" fill="#0E111A" width="5" height="5"/>
		<rect x="464.5" y="226.5" fill="#0E111A" width="5" height="5"/>
		<rect x="564.5" y="226.5" fill="#0E111A" width="5" height="5"/>
		<rect x="664.5" y="226.5" fill="#0E111A" width="5" height="5"/>
		<rect x="764.5" y="226.5" fill="#0E111A" width="5" height="5"/>
		<rect x="864.5" y="226.5" fill="#0E111A" width="5" height="5"/>
		<rect x="964.5" y="226.5" fill="#0E111A" width="5" height="5"/>
		<rect x="64" y="327" fill="#0E111A" width="5" height="5"/>
		<rect x="164.5" y="326.5" fill="#0E111A" width="5" height="5"/>
		<rect x="264.5" y="326.5" fill="#0E111A" width="5" height="5"/>
		<rect x="364.5" y="326.5" fill="#0E111A" width="5" height="5"/>
		<rect x="464.5" y="326.5" fill="#0E111A" width="5" height="5"/>
		<rect x="564.5" y="326.5" fill="#0E111A" width="5" height="5"/>
		<rect x="664.5" y="326.5" fill="#0E111A" width="5" height="5"/>
		<rect x="764.5" y="326.5" fill="#0E111A" width="5" height="5"/>
		<rect x="864.5" y="326.5" fill="#0E111A" width="5" height="5"/>
		<rect x="964.5" y="326.5" fill="#0E111A" width="5" height="5"/>
		<rect x="64" y="427" fill="#0E111A" width="5" height="5"/>
		<rect x="164.5" y="426.5" fill="#0E111A" width="5" height="5"/>
		<rect x="264.5" y="426.5" fill="#0E111A" width="5" height="5"/>
		<rect x="364.5" y="426.5" fill="#0E111A" width="5" height="5"/>
		<rect x="464.5" y="426.5" fill="#0E111A" width="5" height="5"/>
		<rect x="564.5" y="426.5" fill="#0E111A" width="5" height="5"/>
		<rect x="664.5" y="426.5" fill="#0E111A" width="5" height="5"/>
		<rect x="764.5" y="426.5" fill="#0E111A" width="5" height="5"/>
		<rect x="864.5" y="426.5" fill="#0E111A" width="5" height="5"/>
		<rect x="964.5" y="426.5" fill="#0E111A" width="5" height="5"/>
		<rect x="64" y="527" fill="#0E111A" width="5" height="5"/>
		<rect x="164.5" y="526.5" fill="#0E111A" width="5" height="5"/>
		<rect x="264.5" y="526.5" fill="#0E111A" width="5" height="5"/>
		<rect x="364.5" y="526.5" fill="#0E111A" width="5" height="5"/>
		<rect x="464.5" y="526.5" fill="#0E111A" width="5" height="5"/>
		<rect x="564.5" y="526.5" fill="#0E111A" width="5" height="5"/>
		<rect x="664.5" y="526.5" fill="#0E111A" width="5" height="5"/>
		<rect x="764.5" y="526.5" fill="#0E111A" width="5" height="5"/>
		<rect x="864.5" y="526.5" fill="#0E111A" width="5" height="5"/>
		<rect x="964.5" y="526.5" fill="#0E111A" width="5" height="5"/>
		<rect x="64" y="627" fill="#0E111A" width="5" height="5"/>
		<rect x="164.5" y="626.5" fill="#0E111A" width="5" height="5"/>
		<rect x="264.5" y="626.5" fill="#0E111A" width="5" height="5"/>
		<rect x="364.5" y="626.5" fill="#0E111A" width="5" height="5"/>
		<rect x="464.5" y="626.5" fill="#0E111A" width="5" height="5"/>
		<rect x="564.5" y="626.5" fill="#0E111A" width="5" height="5"/>
		<rect x="664.5" y="626.5" fill="#0E111A" width="5" height="5"/>
		<rect x="764.5" y="626.5" fill="#0E111A" width="5" height="5"/>
		<rect x="864.5" y="626.5" fill="#0E111A" width="5" height="5"/>
		<rect x="964.5" y="626.5" fill="#0E111A" width="5" height="5"/>
		<rect x="64" y="727" fill="#0E111A" width="5" height="5"/>
		<rect x="164.5" y="726.5" fill="#0E111A" width="5" height="5"/>
		<rect x="264.5" y="726.5" fill="#0E111A" width="5" height="5"/>
		<rect x="364.5" y="726.5" fill="#0E111A" width="5" height="5"/>
		<rect x="464.5" y="726.5" fill="#0E111A" width="5" height="5"/>
		<rect x="564.5" y="726.5" fill="#0E111A" width="5" height="5"/>
		<rect x="664.5" y="726.5" fill="#0E111A" width="5" height="5"/>
		<rect x="764.5" y="726.5" fill="#0E111A" width="5" height="5"/>
		<rect x="864.5" y="726.5" fill="#0E111A" width="5" height="5"/>
		<rect x="964.5" y="726.5" fill="#0E111A" width="5" height="5"/>
		<rect x="64" y="827" fill="#0E111A" width="5" height="5"/>
		<rect x="164.5" y="826.5" fill="#0E111A" width="5" height="5"/>
		<rect x="264.5" y="826.5" fill="#0E111A" width="5" height="5"/>
		<rect x="364.5" y="826.5" fill="#0E111A" width="5" height="5"/>
		<rect x="464.5" y="826.5" fill="#0E111A" width="5" height="5"/>
		<rect x="564.5" y="826.5" fill="#0E111A" width="5" height="5"/>
		<rect x="664.5" y="826.5" fill="#0E111A" width="5" height="5"/>
		<rect x="764.5" y="826.5" fill="#0E111A" width="5" height="5"/>
		<rect x="864.5" y="826.5" fill="#0E111A" width="5" height="5"/>
		<rect x="964.5" y="826.5" fill="#0E111A" width="5" height="5"/>
		<rect x="64" y="927" fill="#0E111A" width="5" height="5"/>
		<rect x="164.5" y="926.5" fill="#0E111A" width="5" height="5"/>
		<rect x="264.5" y="926.5" fill="#0E111A" width="5" height="5"/>
		<rect x="364.5" y="926.5" fill="#0E111A" width="5" height="5"/>
		<rect x="464.5" y="926.5" fill="#0E111A" width="5" height="5"/>
		<rect x="564.5" y="926.5" fill="#0E111A" width="5" height="5"/>
		<rect x="664.5" y="926.5" fill="#0E111A" width="5" height="5"/>
		<rect x="764.5" y="926.5" fill="#0E111A" width="5" height="5"/>
		<rect x="864.5" y="926.5" fill="#0E111A" width="5" height="5"/>
		<rect x="964.5" y="926.5" fill="#0E111A" width="5" height="5"/>
	</g>
</g>
<g id="large" display="none">
	<g display="inline">
		<rect x="138.3" y="110.3" fill="#0E111A" width="7.5" height="7.5"/>
		<rect x="288.3" y="110.3" fill="#0E111A" width="7.5" height="7.5"/>
		<rect x="438.3" y="110.3" fill="#0E111A" width="7.5" height="7.5"/>
		<rect x="588.3" y="110.3" fill="#0E111A" width="7.5" height="7.5"/>
		<rect x="738.3" y="110.3" fill="#0E111A" width="7.5" height="7.5"/>
		<rect x="888.3" y="110.3" fill="#0E111A" width="7.5" height="7.5"/>
		<rect x="138.3" y="260.3" fill="#0E111A" width="7.5" height="7.5"/>
		<rect x="288.3" y="260.3" fill="#0E111A" width="7.5" height="7.5"/>
		<rect x="438.3" y="260.3" fill="#0E111A" width="7.5" height="7.5"/>
		<rect x="588.3" y="260.3" fill="#0E111A" width="7.5" height="7.5"/>
		<rect x="738.3" y="260.3" fill="#0E111A" width="7.5" height="7.5"/>
		<rect x="888.3" y="260.3" fill="#0E111A" width="7.5" height="7.5"/>
		<rect x="138.3" y="410.3" fill="#0E111A" width="7.5" height="7.5"/>
		<rect x="288.3" y="410.3" fill="#0E111A" width="7.5" height="7.5"/>
		<rect x="438.3" y="410.3" fill="#0E111A" width="7.5" height="7.5"/>
		<rect x="588.3" y="410.3" fill="#0E111A" width="7.5" height="7.5"/>
		<rect x="738.3" y="410.3" fill="#0E111A" width="7.5" height="7.5"/>
		<rect x="888.3" y="410.3" fill="#0E111A" width="7.5" height="7.5"/>
		<rect x="138.3" y="560.3" fill="#0E111A" width="7.5" height="7.5"/>
		<rect x="288.3" y="560.3" fill="#0E111A" width="7.5" height="7.5"/>
		<rect x="438.3" y="560.3" fill="#0E111A" width="7.5" height="7.5"/>
		<rect x="588.3" y="560.3" fill="#0E111A" width="7.5" height="7.5"/>
		<rect x="738.3" y="560.3" fill="#0E111A" width="7.5" height="7.5"/>
		<rect x="888.3" y="560.3" fill="#0E111A" width="7.5" height="7.5"/>
		<rect x="138.3" y="710.3" fill="#0E111A" width="7.5" height="7.5"/>
		<rect x="288.3" y="710.3" fill="#0E111A" width="7.5" height="7.5"/>
		<rect x="438.3" y="710.3" fill="#0E111A" width="7.5" height="7.5"/>
		<rect x="588.3" y="710.3" fill="#0E111A" width="7.5" height="7.5"/>
		<rect x="738.3" y="710.3" fill="#0E111A" width="7.5" height="7.5"/>
		<rect x="888.3" y="710.3" fill="#0E111A" width="7.5" height="7.5"/>
		<rect x="138.3" y="860.3" fill="#0E111A" width="7.5" height="7.5"/>
		<rect x="288.3" y="860.3" fill="#0E111A" width="7.5" height="7.5"/>
		<rect x="438.3" y="860.3" fill="#0E111A" width="7.5" height="7.5"/>
		<rect x="588.3" y="860.3" fill="#0E111A" width="7.5" height="7.5"/>
		<rect x="738.3" y="860.3" fill="#0E111A" width="7.5" height="7.5"/>
		<rect x="888.3" y="860.3" fill="#0E111A" width="7.5" height="7.5"/>
	</g>
</g>
<g id="xlarge" display="none">
	<g display="inline">
		<rect x="61" y="134" fill="#0E111A" width="10" height="10"/>
		<rect x="261" y="134" fill="#0E111A" width="10" height="10"/>
		<rect x="461" y="134" fill="#0E111A" width="10" height="10"/>
		<rect x="661" y="134" fill="#0E111A" width="10" height="10"/>
		<rect x="861" y="134" fill="#0E111A" width="10" height="10"/>
		<rect x="61" y="334" fill="#0E111A" width="10" height="10"/>
		<rect x="261" y="334" fill="#0E111A" width="10" height="10"/>
		<rect x="461" y="334" fill="#0E111A" width="10" height="10"/>
		<rect x="661" y="334" fill="#0E111A" width="10" height="10"/>
		<rect x="861" y="334" fill="#0E111A" width="10" height="10"/>
		<rect x="61" y="534" fill="#0E111A" width="10" height="10"/>
		<rect x="261" y="534" fill="#0E111A" width="10" height="10"/>
		<rect x="461" y="534" fill="#0E111A" width="10" height="10"/>
		<rect x="661" y="534" fill="#0E111A" width="10" height="10"/>
		<rect x="861" y="534" fill="#0E111A" width="10" height="10"/>
		<rect x="61" y="734" fill="#0E111A" width="10" height="10"/>
		<rect x="261" y="734" fill="#0E111A" width="10" height="10"/>
		<rect x="461" y="734" fill="#0E111A" width="10" height="10"/>
		<rect x="661" y="734" fill="#0E111A" width="10" height="10"/>
		<rect x="861" y="734" fill="#0E111A" width="10" height="10"/>
		<rect x="61" y="934" fill="#0E111A" width="10" height="10"/>
		<rect x="261" y="934" fill="#0E111A" width="10" height="10"/>
		<rect x="461" y="934" fill="#0E111A" width="10" height="10"/>
		<rect x="661" y="934" fill="#0E111A" width="10" height="10"/>
		<rect x="861" y="934" fill="#0E111A" width="10" height="10"/>
	</g>
</g>
</svg>
