<?xml version="1.0" encoding="utf-8"?>
<!-- Generator: Adobe Illustrator 15.0.0, SVG Export Plug-In . SVG Version: 6.00 Build 0)  -->
<svg version="1.2" baseProfile="tiny" id="Layer_1" xmlns="http://www.w3.org/2000/svg" xmlns:xlink="http://www.w3.org/1999/xlink"
	 x="0px" y="0px" width="2741px" height="1296px" viewBox="0 0 2741 1296" xml:space="preserve">
<g>
	<line fill="none" stroke="#EBE6EA" stroke-width="10" stroke-miterlimit="10" x1="121" y1="1016" x2="2721" y2="1016"/>
	<line fill="none" stroke="#EBE6EA" stroke-width="10" stroke-miterlimit="10" x1="121" y1="616" x2="2721" y2="616"/>
	<line fill="none" stroke="#EBE6EA" stroke-width="10" stroke-miterlimit="10" x1="121" y1="216" x2="2721" y2="216"/>
	<line fill="none" stroke="#380B32" stroke-width="5" stroke-miterlimit="10" x1="321.5" y1="1180" x2="321.5" y2="1205"/>
	<line fill="none" stroke="#380B32" stroke-width="5" stroke-miterlimit="10" x1="521.5" y1="1180" x2="521.5" y2="1205"/>
	<line fill="none" stroke="#380B32" stroke-width="5" stroke-miterlimit="10" x1="721.5" y1="1180" x2="721.5" y2="1205"/>
	<line fill="none" stroke="#380B32" stroke-width="5" stroke-miterlimit="10" x1="921.5" y1="1180" x2="921.5" y2="1205"/>
	<line fill="none" stroke="#380B32" stroke-width="5" stroke-miterlimit="10" x1="1121.5" y1="1180" x2="1121.5" y2="1205"/>
	<line fill="none" stroke="#380B32" stroke-width="5" stroke-miterlimit="10" x1="1320.5" y1="1180" x2="1320.5" y2="1205"/>
	<line fill="none" stroke="#380B32" stroke-width="5" stroke-miterlimit="10" x1="1520.5" y1="1180" x2="1520.5" y2="1205"/>
	<line fill="none" stroke="#380B32" stroke-width="5" stroke-miterlimit="10" x1="1720.5" y1="1180" x2="1720.5" y2="1205"/>
	<line fill="none" stroke="#380B32" stroke-width="5" stroke-miterlimit="10" x1="1920.5" y1="1180" x2="1920.5" y2="1205"/>
	<line fill="none" stroke="#380B32" stroke-width="5" stroke-miterlimit="10" x1="2120.5" y1="1180" x2="2120.5" y2="1205"/>
	<line fill="none" stroke="#380B32" stroke-width="5" stroke-miterlimit="10" x1="2321.5" y1="1180" x2="2321.5" y2="1205"/>
	<line fill="none" stroke="#380B32" stroke-width="5" stroke-miterlimit="10" x1="2520.5" y1="1180" x2="2520.5" y2="1205"/>
	<polyline fill="none" stroke="#380B32" stroke-width="3" stroke-miterlimit="10" points="2721,1205 121,1205 121,5 	"/>
	<text transform="matrix(1 0 0 1 673.6636 1280)" fill="#380B32" font-family="'Tahoma'" font-size="46">June</text>
	<text transform="matrix(1 0 0 1 21.9893 1030)" fill="#380B32" font-family="'Tahoma'" font-size="46">5k</text>
	<text transform="matrix(1 0 0 1 9.4336 630)" fill="#380B32" font-family="'Tahoma'" font-size="46">15k</text>
	<text transform="matrix(1 0 0 1 9.4336 230)" fill="#380B32" font-family="'Tahoma'" font-size="46">25k</text>
	<text transform="matrix(1 0 0 1 1875.7188 1280)" fill="#380B32" font-family="'Tahoma'" font-size="46">Dec.</text>
	<text transform="matrix(1 0 0 1 1268.666 1280)" fill="#380B32" font-family="'Tahoma'" font-size="46">S</text>
	<text transform="matrix(1 0 0 1 1294.3838 1280)" fill="#380B32" font-family="'Tahoma'" font-size="46">e</text>
	<text transform="matrix(1 0 0 1 1318.5967 1280)" fill="#380B32" font-family="'Tahoma'" font-size="46">p</text>
	<text transform="matrix(1 0 0 1 1344.0225 1280)" fill="#380B32" font-family="'Tahoma'" font-size="46">t</text>
	<text transform="matrix(1 0 0 1 1359.4082 1280)" fill="#380B32" font-family="'Tahoma'" font-size="46">.</text>
	<text transform="matrix(1 0 0 1 2479.0547 1280)" fill="#380B32" font-family="'Tahoma'" font-size="46">M</text>
	<text transform="matrix(1 0 0 1 2514.498 1280)" fill="#380B32" font-family="'Tahoma'" font-size="46">a</text>
	<text transform="matrix(1 0 0 1 2538.6426 1280)" fill="#380B32" font-family="'Tahoma'" font-size="46">r</text>
	<text transform="matrix(1 0 0 1 2549.0195 1280)" fill="#380B32" font-family="'Tahoma'" font-size="46">.</text>
</g>
<polyline fill="none" stroke="#380B32" stroke-width="10" stroke-miterlimit="10" points="321,706 521,557 721,532 921,456.3 
	1121,605.9 1321,530.7 1521,380.3 1721,330.7 1921,455.8 2121,405.4 2321,380.8 2521,305.4 "/>
<polyline fill="none" stroke="#380B32" stroke-width="10" stroke-miterlimit="10" points="321,1056 521,957 721,907 921,881.3 
	1121,955.9 1321,980.7 1521,905.3 1721,755.7 1921,830.8 2121,955.4 2321,805.8 2521,905.4 "/>
<g>
	<g>
		<circle fill="#FFFFFF" cx="321" cy="705" r="25"/>
		<circle fill="#FFFFFF" cx="521" cy="555" r="25"/>
		<circle fill="#FFFFFF" cx="721" cy="530" r="25"/>
		<circle fill="#FFFFFF" cx="921" cy="455" r="25"/>
		<circle fill="#FFFFFF" cx="1121" cy="605" r="25"/>
		<circle fill="#FFFFFF" cx="1321" cy="530" r="25"/>
		<circle fill="#FFFFFF" cx="1521" cy="380" r="25"/>
		<circle fill="#FFFFFF" cx="1721" cy="330" r="25"/>
		<circle fill="#FFFFFF" cx="1921" cy="455" r="25"/>
		<circle fill="#FFFFFF" cx="2121" cy="405" r="25"/>
		<circle fill="#FFFFFF" cx="2321" cy="380" r="25"/>
		<circle fill="#FFFFFF" cx="2521" cy="305" r="25"/>
	</g>
	<g>
		<circle fill="#FFFFFF" cx="321" cy="705" r="25"/>
		<circle fill="#FFFFFF" cx="521" cy="555" r="25"/>
		<circle fill="#FFFFFF" cx="721" cy="530" r="25"/>
		<circle fill="#FFFFFF" cx="921" cy="455" r="25"/>
		<circle fill="#FFFFFF" cx="1121" cy="605" r="25"/>
		<circle fill="#FFFFFF" cx="1321" cy="530" r="25"/>
		<circle fill="#FFFFFF" cx="1521" cy="380" r="25"/>
		<circle fill="#FFFFFF" cx="1721" cy="330" r="25"/>
		<circle fill="#FFFFFF" cx="1921" cy="455" r="25"/>
		<circle fill="#FFFFFF" cx="2121" cy="405" r="25"/>
		<circle fill="#FFFFFF" cx="2321" cy="380" r="25"/>
		<circle fill="#FFFFFF" cx="2521" cy="305" r="25"/>
	</g>
	<g>
		<circle fill="none" stroke="#380B32" stroke-width="10" stroke-miterlimit="10" cx="321" cy="705" r="25"/>
		<circle fill="none" stroke="#380B32" stroke-width="10" stroke-miterlimit="10" cx="521" cy="555" r="25"/>
		<circle fill="none" stroke="#380B32" stroke-width="10" stroke-miterlimit="10" cx="721" cy="530" r="25"/>
		<circle fill="none" stroke="#380B32" stroke-width="10" stroke-miterlimit="10" cx="921" cy="455" r="25"/>
		<circle fill="none" stroke="#380B32" stroke-width="10" stroke-miterlimit="10" cx="1121" cy="605" r="25"/>
		<circle fill="none" stroke="#380B32" stroke-width="10" stroke-miterlimit="10" cx="1321" cy="530" r="25"/>
		<circle fill="none" stroke="#380B32" stroke-width="10" stroke-miterlimit="10" cx="1521" cy="380" r="25"/>
		<circle fill="none" stroke="#380B32" stroke-width="10" stroke-miterlimit="10" cx="1721" cy="330" r="25"/>
		<circle fill="none" stroke="#380B32" stroke-width="10" stroke-miterlimit="10" cx="1921" cy="455" r="25"/>
		<circle fill="none" stroke="#380B32" stroke-width="10" stroke-miterlimit="10" cx="2121" cy="405" r="25"/>
		<circle fill="none" stroke="#380B32" stroke-width="10" stroke-miterlimit="10" cx="2321" cy="380" r="25"/>
		<circle fill="none" stroke="#380B32" stroke-width="10" stroke-miterlimit="10" cx="2521" cy="305" r="25"/>
	</g>
</g>
<g>
	<g>
		<circle fill="#FFFFFF" cx="321" cy="1055" r="25"/>
		<circle fill="#FFFFFF" cx="521" cy="955" r="25"/>
		<circle fill="#FFFFFF" cx="721" cy="905" r="25"/>
		<circle fill="#FFFFFF" cx="921" cy="880" r="25"/>
		<circle fill="#FFFFFF" cx="1121" cy="955" r="25"/>
		<circle fill="#FFFFFF" cx="1321" cy="980" r="25"/>
		<circle fill="#FFFFFF" cx="1521" cy="905" r="25"/>
		<circle fill="#FFFFFF" cx="1721" cy="755" r="25"/>
		<circle fill="#FFFFFF" cx="1921" cy="830" r="25"/>
		<circle fill="#FFFFFF" cx="2121" cy="955" r="25"/>
		<circle fill="#FFFFFF" cx="2321" cy="805" r="25"/>
		<circle fill="#FFFFFF" cx="2521" cy="905" r="25"/>
	</g>
	<g>
		<circle fill="#380B32" cx="321" cy="1055" r="25"/>
		<circle fill="#380B32" cx="521" cy="955" r="25"/>
		<circle fill="#380B32" cx="721" cy="905" r="25"/>
		<circle fill="#380B32" cx="921" cy="880" r="25"/>
		<circle fill="#380B32" cx="1121" cy="955" r="25"/>
		<circle fill="#380B32" cx="1321" cy="980" r="25"/>
		<circle fill="#380B32" cx="1521" cy="905" r="25"/>
		<circle fill="#380B32" cx="1721" cy="755" r="25"/>
		<circle fill="#380B32" cx="1921" cy="830" r="25"/>
		<circle fill="#380B32" cx="2121" cy="955" r="25"/>
		<circle fill="#380B32" cx="2321" cy="805" r="25"/>
		<circle fill="#380B32" cx="2521" cy="905" r="25"/>
	</g>
</g>
<circle fill="none" stroke="#380B32" stroke-width="10" stroke-miterlimit="10" cx="921" cy="86" r="25"/>
<circle fill="#380B32" cx="1496" cy="86" r="25"/>
<text transform="matrix(1 0 0 1 991.9395 111)" fill="#380B32" font-family="'Tahoma'" font-size="46">T</text>
<text transform="matrix(1 0 0 1 1014.1084 111)" fill="#380B32" font-family="'Tahoma'" font-size="46">o</text>
<text transform="matrix(1 0 0 1 1039.085 111)" fill="#380B32" font-family="'Tahoma'" font-size="46">t</text>
<text transform="matrix(1 0 0 1 1054.4707 111)" fill="#380B32" font-family="'Tahoma'" font-size="46">a</text>
<text transform="matrix(1 0 0 1 1078.6162 111)" fill="#380B32" font-family="'Tahoma'" font-size="46">l</text>
<text transform="matrix(1 0 0 1 1089.1279 111)" fill="#380B32" font-family="'Tahoma'" font-size="46"> </text>
<text transform="matrix(1 0 0 1 1103.5029 111)" fill="#380B32" font-family="'Tahoma'" font-size="46">V</text>
<text transform="matrix(1 0 0 1 1130.9502 111)" fill="#380B32" font-family="'Tahoma'" font-size="46">i</text>
<text transform="matrix(1 0 0 1 1141.4619 111)" fill="#380B32" font-family="'Tahoma'" font-size="46">s</text>
<text transform="matrix(1 0 0 1 1161.9912 111)" fill="#380B32" font-family="'Tahoma'" font-size="46">i</text>
<text transform="matrix(1 0 0 1 1172.5928 111)" fill="#380B32" font-family="'Tahoma'" font-size="46">t</text>
<text transform="matrix(1 0 0 1 1187.9785 111)" fill="#380B32" font-family="'Tahoma'" font-size="46">o</text>
<text transform="matrix(1 0 0 1 1212.9551 111)" fill="#380B32" font-family="'Tahoma'" font-size="46">r</text>
<text transform="matrix(1 0 0 1 1229.5313 111)" fill="#380B32" font-family="'Tahoma'" font-size="46">s</text>
<text transform="matrix(1 0 0 1 1569.7256 111)" fill="#380B32" font-family="'Tahoma'" font-size="46">U</text>
<text transform="matrix(1 0 0 1 1599.8906 111)" fill="#380B32" font-family="'Tahoma'" font-size="46">n</text>
<text transform="matrix(1 0 0 1 1625.541 111)" fill="#380B32" font-family="'Tahoma'" font-size="46">i</text>
<text transform="matrix(1 0 0 1 1636.0527 111)" fill="#380B32" font-family="'Tahoma'" font-size="46">q</text>
<text transform="matrix(1 0 0 1 1661.4785 111)" fill="#380B32" font-family="'Tahoma'" font-size="46">u</text>
<text transform="matrix(1 0 0 1 1687.1289 111)" fill="#380B32" font-family="'Tahoma'" font-size="46">e</text>
<text transform="matrix(1 0 0 1 1711.3418 111)" fill="#380B32" font-family="'Tahoma'" font-size="46"> </text>
<text transform="matrix(1 0 0 1 1725.7168 111)" fill="#380B32" font-family="'Tahoma'" font-size="46">V</text>
<text transform="matrix(1 0 0 1 1753.1641 111)" fill="#380B32" font-family="'Tahoma'" font-size="46">i</text>
<text transform="matrix(1 0 0 1 1763.6758 111)" fill="#380B32" font-family="'Tahoma'" font-size="46">s</text>
<text transform="matrix(1 0 0 1 1784.2051 111)" fill="#380B32" font-family="'Tahoma'" font-size="46">i</text>
<text transform="matrix(1 0 0 1 1794.8066 111)" fill="#380B32" font-family="'Tahoma'" font-size="46">t</text>
<text transform="matrix(1 0 0 1 1810.1924 111)" fill="#380B32" font-family="'Tahoma'" font-size="46">o</text>
<text transform="matrix(1 0 0 1 1835.1689 111)" fill="#380B32" font-family="'Tahoma'" font-size="46">r</text>
<text transform="matrix(1 0 0 1 1851.7451 111)" fill="#380B32" font-family="'Tahoma'" font-size="46">s</text>
</svg>
