<?xml version="1.0" encoding="utf-8"?>
<!-- Generator: Adobe Illustrator 15.0.0, SVG Export Plug-In . SVG Version: 6.00 Build 0)  -->
<!DOCTYPE svg [
	<!ENTITY ns_flows "http://ns.adobe.com/Flows/1.0/">
	<!ENTITY ns_extend "http://ns.adobe.com/Extensibility/1.0/">
	<!ENTITY ns_ai "http://ns.adobe.com/AdobeIllustrator/10.0/">
	<!ENTITY ns_graphs "http://ns.adobe.com/Graphs/1.0/">
]>
<svg version="1.2" baseProfile="tiny" id="Layer_1" xmlns:x="&ns_extend;" xmlns:i="&ns_ai;" xmlns:graph="&ns_graphs;"
	 xmlns="http://www.w3.org/2000/svg" xmlns:xlink="http://www.w3.org/1999/xlink" xmlns:a="http://ns.adobe.com/AdobeSVGViewerExtensions/3.0/"
	 x="0px" y="0px" width="20.1px" height="20.3px" viewBox="0 0 20.1 20.3" xml:space="preserve">
<g>
	<path d="M19,9.1L16.8,7l1.4-1.4c0.8-0.8,0.8-2,0-2.8l-2.1-2.1c-0.8-0.8-2-0.8-2.8,0L2,11.9L9.1,19c1.6,1.6,4.1,1.6,5.7,0l4.2-4.2
		C20.5,13.2,20.5,10.6,19,9.1z M14.7,2l2.1,2.1l-1.4,1.4l-2.1-2.1L14.7,2z M5.2,11.1l6.7-6.4l6.4,6.4H5.2z"/>
	<path d="M0,18.3c0,1.1,0.9,2,2,2c1.1,0,2-0.9,2-2c0-1.3-2-3.5-2-3.5S0,17,0,18.3z"/>
</g>
</svg>
